<svg xmlns="http://www.w3.org/2000/svg" xmlns:xlink="http://www.w3.org/1999/xlink" width="80" zoomAndPan="magnify" viewBox="0 0 60 60" height="80" preserveAspectRatio="xMidYMid meet" version="1.0"><defs><clipPath id="07bdc187bb"><path d="M 6 4.777344 L 54 4.777344 L 54 55 L 6 55 Z M 6 4.777344 " clip-rule="nonzero"/></clipPath></defs><g clip-path="url(#07bdc187bb)"><path fill="#dbbf97" d="M 51.851562 54.160156 L 39.78125 54.160156 L 39.78125 35.316406 L 51.851562 35.316406 Z M 8.148438 35.316406 L 20.21875 35.316406 L 20.21875 54.160156 L 8.148438 54.160156 Z M 20.21875 26.488281 L 20.21875 34.523438 L 7.789062 34.523438 Z M 35.175781 42.203125 C 34.933594 41.550781 32.757812 35.832031 30 35.832031 C 27.242188 35.832031 25.066406 41.550781 24.824219 42.203125 C 24.808594 42.246094 24.800781 42.292969 24.800781 42.339844 L 24.800781 54.160156 L 23.855469 54.160156 L 23.855469 41.976562 C 24.707031 39.816406 27.390625 34.445312 30 34.445312 C 32.609375 34.445312 35.292969 39.816406 36.144531 41.976562 L 36.144531 54.160156 L 35.199219 54.160156 L 35.199219 42.339844 C 35.199219 42.292969 35.191406 42.246094 35.175781 42.203125 Z M 30.398438 36.691406 C 32.113281 37.210938 33.820312 40.859375 34.402344 42.410156 L 34.402344 54.160156 L 30.398438 54.160156 Z M 29.601562 54.160156 L 25.597656 54.160156 L 25.597656 42.410156 C 26.179688 40.859375 27.882812 37.207031 29.601562 36.691406 Z M 21.019531 21.773438 L 30 12.792969 L 38.980469 21.773438 L 38.980469 54.160156 L 36.945312 54.160156 L 36.945312 41.902344 C 36.945312 41.855469 36.933594 41.804688 36.917969 41.757812 C 36.789062 41.429688 33.722656 33.652344 30 33.652344 C 26.277344 33.652344 23.210938 41.429688 23.082031 41.757812 C 23.066406 41.804688 23.054688 41.855469 23.054688 41.902344 L 23.054688 54.160156 L 21.019531 54.160156 Z M 52.210938 34.523438 L 39.78125 34.523438 L 39.78125 26.488281 Z M 27.78125 8.242188 L 27.78125 7.390625 L 28.941406 7.390625 C 29.164062 7.390625 29.339844 7.210938 29.339844 6.992188 L 29.339844 5.644531 L 30.660156 5.644531 L 30.660156 6.992188 C 30.660156 7.210938 30.835938 7.390625 31.058594 7.390625 L 32.21875 7.390625 L 32.21875 8.242188 L 31.058594 8.242188 C 30.835938 8.242188 30.660156 8.417969 30.660156 8.640625 L 30.660156 11.832031 L 29.339844 11.832031 L 29.339844 8.640625 C 29.339844 8.417969 29.164062 8.242188 28.941406 8.242188 Z M 53.777344 34.585938 L 39.78125 25.539062 L 39.78125 21.613281 C 39.78125 21.507812 39.738281 21.40625 39.664062 21.332031 L 30.960938 12.628906 L 31.058594 12.628906 C 31.277344 12.628906 31.457031 12.449219 31.457031 12.230469 L 31.457031 9.035156 L 32.617188 9.035156 C 32.839844 9.035156 33.015625 8.859375 33.015625 8.640625 L 33.015625 6.992188 C 33.015625 6.773438 32.839844 6.597656 32.617188 6.597656 L 31.457031 6.597656 L 31.457031 5.246094 C 31.457031 5.027344 31.277344 4.851562 31.058594 4.851562 L 28.941406 4.851562 C 28.722656 4.851562 28.542969 5.027344 28.542969 5.246094 L 28.542969 6.597656 L 27.382812 6.597656 C 27.160156 6.597656 26.984375 6.773438 26.984375 6.992188 L 26.984375 8.640625 C 26.984375 8.859375 27.160156 9.035156 27.382812 9.035156 L 28.542969 9.035156 L 28.542969 12.230469 C 28.542969 12.449219 28.722656 12.628906 28.941406 12.628906 L 29.039062 12.628906 L 20.335938 21.332031 C 20.261719 21.40625 20.21875 21.507812 20.21875 21.613281 L 20.21875 25.539062 L 6.222656 34.585938 C 6.074219 34.683594 6.003906 34.863281 6.054688 35.03125 C 6.105469 35.203125 6.261719 35.316406 6.4375 35.316406 L 7.347656 35.316406 L 7.347656 54.558594 C 7.347656 54.777344 7.527344 54.953125 7.746094 54.953125 L 52.253906 54.953125 C 52.472656 54.953125 52.652344 54.777344 52.652344 54.558594 L 52.652344 35.316406 L 53.5625 35.316406 C 53.738281 35.316406 53.894531 35.203125 53.945312 35.03125 C 53.996094 34.863281 53.925781 34.683594 53.777344 34.585938 " fill-opacity="1" fill-rule="nonzero"/></g><path fill="#dbbf97" d="M 43.925781 43.210938 C 43.925781 43.121094 43.949219 40.992188 46.144531 40.992188 C 48.285156 40.992188 48.359375 42.984375 48.363281 43.210938 L 48.363281 48.921875 L 43.925781 48.921875 Z M 43.527344 49.71875 L 48.761719 49.71875 C 48.980469 49.71875 49.160156 49.542969 49.160156 49.320312 L 49.160156 43.210938 C 49.160156 42.167969 48.53125 40.195312 46.144531 40.195312 C 43.757812 40.195312 43.125 42.167969 43.125 43.210938 L 43.125 49.320312 C 43.125 49.542969 43.304688 49.71875 43.527344 49.71875 " fill-opacity="1" fill-rule="nonzero"/><path fill="#dbbf97" d="M 32.617188 47.175781 L 31.308594 47.175781 C 31.089844 47.175781 30.910156 47.355469 30.910156 47.574219 C 30.910156 47.796875 31.089844 47.972656 31.308594 47.972656 L 32.617188 47.972656 C 32.839844 47.972656 33.015625 47.796875 33.015625 47.574219 C 33.015625 47.355469 32.839844 47.175781 32.617188 47.175781 " fill-opacity="1" fill-rule="nonzero"/><path fill="#dbbf97" d="M 16.074219 48.921875 L 11.636719 48.921875 L 11.636719 43.214844 C 11.640625 42.984375 11.714844 40.992188 13.855469 40.992188 C 16 40.992188 16.074219 42.984375 16.074219 43.210938 Z M 13.855469 40.195312 C 11.46875 40.195312 10.839844 42.167969 10.839844 43.210938 L 10.839844 49.320312 C 10.839844 49.542969 11.015625 49.71875 11.238281 49.71875 L 16.472656 49.71875 C 16.695312 49.71875 16.875 49.542969 16.875 49.320312 L 16.875 43.210938 C 16.875 42.167969 16.242188 40.195312 13.855469 40.195312 " fill-opacity="1" fill-rule="nonzero"/><path fill="#dbbf97" d="M 26.984375 47.574219 C 26.984375 47.796875 27.160156 47.972656 27.382812 47.972656 L 28.691406 47.972656 C 28.910156 47.972656 29.089844 47.796875 29.089844 47.574219 C 29.089844 47.355469 28.910156 47.175781 28.691406 47.175781 L 27.382812 47.175781 C 27.160156 47.175781 26.984375 47.355469 26.984375 47.574219 " fill-opacity="1" fill-rule="nonzero"/><path fill="#dbbf97" d="M 29.601562 20.511719 L 29.601562 23.179688 L 26.9375 23.179688 C 27.117188 21.789062 28.214844 20.691406 29.601562 20.511719 Z M 33.0625 23.179688 L 30.398438 23.179688 L 30.398438 20.511719 C 31.785156 20.691406 32.882812 21.789062 33.0625 23.179688 Z M 30.398438 26.640625 L 30.398438 23.972656 L 33.0625 23.972656 C 32.882812 25.359375 31.785156 26.460938 30.398438 26.640625 Z M 26.9375 23.972656 L 29.601562 23.972656 L 29.601562 26.640625 C 28.214844 26.460938 27.117188 25.359375 26.9375 23.972656 Z M 30 27.464844 C 32.144531 27.464844 33.890625 25.71875 33.890625 23.574219 C 33.890625 21.429688 32.144531 19.6875 30 19.6875 C 27.855469 19.6875 26.109375 21.429688 26.109375 23.574219 C 26.109375 25.71875 27.855469 27.464844 30 27.464844 " fill-opacity="1" fill-rule="nonzero"/></svg>