<svg xmlns="http://www.w3.org/2000/svg" xmlns:xlink="http://www.w3.org/1999/xlink" width="80" zoomAndPan="magnify" viewBox="0 0 60 60" height="80" preserveAspectRatio="xMidYMid meet" version="1.0"><defs><clipPath id="0f8ef830d1"><path d="M 5.132812 3.859375 L 54.632812 3.859375 L 54.632812 56.359375 L 5.132812 56.359375 Z M 5.132812 3.859375 " clip-rule="nonzero"/></clipPath></defs><g clip-path="url(#0f8ef830d1)"><path fill="#dbbf97" d="M 44.964844 15.070312 L 44.851562 15.1875 C 44.699219 15.277344 44.574219 15.402344 44.5 15.558594 L 43.277344 16.839844 C 43.160156 16.882812 43.046875 16.945312 42.953125 17.039062 C 42.855469 17.140625 42.792969 17.265625 42.753906 17.390625 L 27.605469 33.308594 C 27.453125 33.46875 27.371094 33.679688 27.371094 33.90625 L 27.371094 52.121094 C 27.371094 52.574219 27.722656 52.953125 28.175781 52.976562 L 40.566406 53.671875 C 40.8125 53.683594 41 53.890625 41 54.136719 C 41 54.394531 40.792969 54.601562 40.539062 54.601562 L 12.496094 54.601562 C 12.238281 54.601562 12.035156 54.394531 12.035156 54.136719 C 12.035156 53.890625 12.222656 53.683594 12.46875 53.671875 L 24.859375 52.976562 C 25.3125 52.953125 25.664062 52.574219 25.664062 52.121094 L 25.664062 33.90625 C 25.664062 33.679688 25.582031 33.46875 25.429688 33.308594 L 8.070312 15.070312 Z M 42.703125 5.613281 C 48.34375 5.613281 52.929688 10.242188 52.929688 15.929688 C 52.929688 21.613281 48.34375 26.242188 42.703125 26.242188 C 41.003906 26.242188 39.347656 25.816406 37.867188 25.011719 L 38.492188 24.351562 C 39.796875 25.015625 41.238281 25.382812 42.703125 25.382812 C 47.875 25.382812 52.078125 21.140625 52.078125 15.929688 C 52.078125 10.714844 47.875 6.472656 42.703125 6.472656 C 38.5 6.472656 34.820312 9.328125 33.6875 13.347656 L 32.808594 13.347656 C 33.957031 8.878906 38.046875 5.613281 42.703125 5.613281 Z M 41.851562 23.605469 C 41.121094 23.523438 40.40625 23.339844 39.726562 23.054688 L 41.851562 20.824219 Z M 47 22.332031 C 45.992188 23.019531 44.820312 23.472656 43.558594 23.613281 L 43.558594 19.367188 C 43.558594 19.269531 43.53125 19.175781 43.5 19.089844 L 43.640625 18.945312 Z M 45.695312 16.789062 L 50.324219 16.789062 C 50.132812 18.488281 49.394531 20.019531 48.292969 21.207031 L 44.816406 17.703125 Z M 48.308594 10.667969 C 49.402344 11.851562 50.136719 13.375 50.324219 15.070312 L 47.328125 15.070312 L 47.582031 14.804688 C 47.816406 14.554688 47.882812 14.1875 47.746094 13.875 C 47.613281 13.554688 47.308594 13.347656 46.964844 13.347656 L 46.183594 13.347656 Z M 36.722656 11.105469 L 38.945312 13.347656 L 35.480469 13.347656 C 35.769531 12.523438 36.191406 11.773438 36.722656 11.105469 Z M 41.355469 13.347656 L 37.925781 9.886719 C 39.035156 8.996094 40.386719 8.414062 41.851562 8.246094 L 41.851562 13.347656 Z M 43.558594 13.347656 L 43.558594 8.242188 C 44.832031 8.386719 46.011719 8.84375 47.019531 9.539062 L 44 13.347656 Z M 23.960938 34.25 L 23.960938 51.304688 L 12.375 51.957031 C 11.226562 52.019531 10.328125 52.976562 10.328125 54.136719 C 10.328125 55.339844 11.300781 56.320312 12.496094 56.320312 L 40.539062 56.320312 C 41.734375 56.320312 42.703125 55.339844 42.703125 54.136719 C 42.703125 52.976562 41.804688 52.019531 40.65625 51.957031 L 29.074219 51.304688 L 29.074219 34.25 L 36.652344 26.289062 C 38.480469 27.378906 40.5625 27.960938 42.703125 27.960938 C 49.28125 27.960938 54.632812 22.5625 54.632812 15.929688 C 54.632812 9.292969 49.28125 3.894531 42.703125 3.894531 C 37.121094 3.894531 32.25 7.914062 31.0625 13.347656 L 6.070312 13.347656 C 5.726562 13.347656 5.421875 13.554688 5.289062 13.875 C 5.152344 14.1875 5.21875 14.554688 5.453125 14.804688 L 23.960938 34.25 " fill-opacity="1" fill-rule="nonzero"/></g><path fill="#dbbf97" d="M 26.515625 30.554688 C 27.773438 30.554688 29.035156 30.070312 29.996094 29.105469 L 30.527344 28.566406 C 30.859375 28.230469 30.859375 27.6875 30.527344 27.351562 C 30.195312 27.015625 29.65625 27.015625 29.324219 27.351562 L 28.789062 27.890625 C 27.535156 29.15625 25.5 29.15625 24.246094 27.890625 L 16.644531 20.226562 L 37.59375 20.226562 C 38.0625 20.226562 38.445312 19.839844 38.445312 19.367188 C 38.445312 18.890625 38.0625 18.507812 37.59375 18.507812 L 14.941406 18.507812 L 13.488281 17.039062 C 13.15625 16.703125 12.617188 16.703125 12.285156 17.039062 C 11.949219 17.375 11.949219 17.917969 12.285156 18.253906 L 23.039062 29.105469 C 23.996094 30.070312 25.257812 30.554688 26.515625 30.554688 " fill-opacity="1" fill-rule="nonzero"/></svg>