<svg xmlns="http://www.w3.org/2000/svg" xmlns:xlink="http://www.w3.org/1999/xlink" width="80" zoomAndPan="magnify" viewBox="0 0 60 60" height="80" preserveAspectRatio="xMidYMid meet" version="1.0"><defs><clipPath id="c553ced0fc"><path d="M 29 4.121094 L 31 4.121094 L 31 9 L 29 9 Z M 29 4.121094 " clip-rule="nonzero"/></clipPath><clipPath id="f3da5a6942"><path d="M 30 10 L 52.75 10 L 52.75 55.871094 L 30 55.871094 Z M 30 10 " clip-rule="nonzero"/></clipPath><clipPath id="622f55bc4e"><path d="M 7 10 L 29 10 L 29 55.871094 L 7 55.871094 Z M 7 10 " clip-rule="nonzero"/></clipPath></defs><g clip-path="url(#c553ced0fc)"><path fill="#dbbf97" d="M 29.082031 4.753906 L 29.082031 8 C 29.082031 8.378906 29.335938 8.632812 29.714844 8.632812 C 30.03125 8.632812 30.347656 8.378906 30.347656 8 L 30.410156 4.753906 C 30.410156 4.375 30.160156 4.121094 29.78125 4.121094 C 29.398438 4.121094 29.148438 4.4375 29.082031 4.753906 Z M 29.082031 4.753906 " fill-opacity="1" fill-rule="nonzero"/></g><path fill="#dbbf97" d="M 33.699219 6.980469 L 31.359375 9.207031 C 31.105469 9.460938 31.105469 9.84375 31.359375 10.097656 C 31.488281 10.222656 31.675781 10.285156 31.804688 10.285156 C 31.929688 10.285156 32.117188 10.222656 32.246094 10.097656 L 34.585938 7.871094 C 34.839844 7.617188 34.839844 7.234375 34.585938 6.980469 C 34.394531 6.789062 33.953125 6.789062 33.699219 6.980469 Z M 33.699219 6.980469 " fill-opacity="1" fill-rule="nonzero"/><path fill="#dbbf97" d="M 24.847656 7.042969 C 24.59375 7.300781 24.59375 7.679688 24.847656 7.933594 L 27.1875 10.160156 C 27.3125 10.285156 27.441406 10.351562 27.628906 10.351562 C 27.820312 10.351562 27.945312 10.285156 28.070312 10.160156 C 28.324219 9.90625 28.324219 9.523438 28.070312 9.269531 L 25.730469 7.042969 C 25.480469 6.789062 25.035156 6.789062 24.847656 7.042969 Z M 24.847656 7.042969 " fill-opacity="1" fill-rule="nonzero"/><g clip-path="url(#f3da5a6942)"><path fill="#dbbf97" d="M 51.59375 52.375 L 47.613281 53.328125 L 44.132812 39.023438 C 47.675781 37.433594 48.875 30.25 46.851562 22.113281 C 46.21875 19.632812 44.449219 13.59375 43.375 11.304688 C 43.25 11.050781 42.933594 10.921875 42.679688 10.984375 L 31.296875 13.785156 C 30.980469 13.847656 30.792969 14.101562 30.792969 14.417969 C 30.855469 16.960938 32.054688 23.128906 32.6875 25.609375 C 34.648438 33.617188 38.886719 39.339844 42.679688 39.339844 C 42.742188 39.339844 42.804688 39.339844 42.933594 39.339844 L 46.410156 53.644531 L 42.425781 54.597656 C 42.109375 54.664062 41.855469 55.042969 41.984375 55.363281 C 42.046875 55.679688 42.300781 55.871094 42.617188 55.871094 C 42.679688 55.871094 42.742188 55.871094 42.742188 55.871094 L 51.910156 53.644531 C 52.226562 53.582031 52.480469 53.199219 52.355469 52.882812 C 52.289062 52.5 51.910156 52.308594 51.59375 52.375 Z M 42.425781 12.257812 C 42.867188 13.273438 43.375 14.738281 43.878906 16.261719 L 32.625 18.933594 C 32.371094 17.34375 32.117188 15.882812 32.054688 14.800781 Z M 33.890625 25.226562 C 33.636719 24.082031 33.195312 22.175781 32.816406 20.203125 L 44.195312 17.472656 C 44.765625 19.378906 45.273438 21.222656 45.523438 22.300781 C 47.421875 29.996094 46.285156 37.117188 43.121094 37.878906 C 40.023438 38.769531 35.785156 32.917969 33.890625 25.226562 Z M 33.890625 25.226562 " fill-opacity="1" fill-rule="nonzero"/></g><path fill="#dbbf97" d="M 43.945312 33.9375 C 44.640625 32.285156 44.890625 27.324219 43.4375 21.347656 C 43.375 21.03125 42.996094 20.777344 42.679688 20.902344 C 42.363281 20.96875 42.109375 21.347656 42.238281 21.667969 C 43.628906 27.261719 43.375 32.03125 42.804688 33.429688 C 42.679688 33.746094 42.804688 34.128906 43.121094 34.253906 C 43.183594 34.316406 43.3125 34.316406 43.375 34.316406 C 43.628906 34.382812 43.816406 34.191406 43.945312 33.9375 Z M 43.945312 33.9375 " fill-opacity="1" fill-rule="nonzero"/><g clip-path="url(#622f55bc4e)"><path fill="#dbbf97" d="M 28.894531 14.355469 C 28.894531 14.039062 28.703125 13.785156 28.386719 13.71875 L 17.007812 10.921875 C 16.691406 10.859375 16.4375 10.984375 16.308594 11.242188 C 15.234375 13.527344 13.464844 19.570312 12.832031 22.046875 C 11.820312 26.054688 11.632812 30.058594 12.199219 33.238281 C 12.707031 36.226562 13.90625 38.261719 15.613281 39.023438 L 12.136719 53.390625 L 8.089844 52.375 C 7.773438 52.308594 7.394531 52.5 7.332031 52.820312 C 7.269531 53.136719 7.457031 53.519531 7.773438 53.582031 L 16.941406 55.804688 C 17.007812 55.804688 17.070312 55.804688 17.070312 55.804688 C 17.386719 55.804688 17.636719 55.617188 17.703125 55.296875 C 17.765625 54.980469 17.574219 54.597656 17.257812 54.535156 L 13.339844 53.644531 L 16.816406 39.277344 C 16.878906 39.277344 17.007812 39.277344 17.070312 39.277344 C 18.839844 39.277344 20.738281 38.070312 22.445312 35.71875 C 24.40625 33.175781 25.984375 29.550781 26.996094 25.480469 C 27.628906 23.066406 28.832031 16.898438 28.894531 14.355469 Z M 17.257812 12.257812 L 27.628906 14.800781 C 27.566406 15.882812 27.3125 17.40625 27.058594 18.933594 L 15.804688 16.261719 C 16.308594 14.738281 16.816406 13.273438 17.257812 12.257812 Z M 21.433594 35.015625 C 19.726562 37.242188 17.890625 38.324219 16.4375 38.003906 C 14.984375 37.625 13.90625 35.84375 13.402344 33.046875 C 12.894531 30.058594 13.085938 26.246094 14.035156 22.367188 C 14.285156 21.222656 14.792969 19.378906 15.363281 17.535156 L 26.742188 20.269531 C 26.363281 22.238281 25.984375 24.144531 25.667969 25.289062 C 24.847656 29.105469 23.328125 32.601562 21.433594 35.015625 Z M 21.433594 35.015625 " fill-opacity="1" fill-rule="nonzero"/></g><path fill="#dbbf97" d="M 17.007812 20.902344 C 16.691406 20.839844 16.308594 21.03125 16.246094 21.347656 C 14.792969 27.324219 15.109375 32.285156 15.742188 33.9375 C 15.867188 34.191406 16.058594 34.316406 16.308594 34.316406 C 16.375 34.316406 16.5 34.316406 16.5625 34.253906 C 16.878906 34.128906 17.070312 33.746094 16.878906 33.429688 C 16.308594 31.964844 16.058594 27.261719 17.449219 21.667969 C 17.574219 21.347656 17.386719 21.03125 17.007812 20.902344 Z M 17.007812 20.902344 " fill-opacity="1" fill-rule="nonzero"/><path fill="#dbbf97" d="M 33.066406 38.070312 C 31.804688 37.558594 30.476562 37.941406 29.464844 39.023438 C 28.515625 37.941406 27.1875 37.558594 25.859375 38.070312 C 24.339844 38.640625 23.078125 40.484375 23.582031 42.902344 C 24.40625 46.84375 28.957031 48.875 29.148438 48.941406 C 29.210938 49.003906 29.335938 49.003906 29.398438 49.003906 C 29.464844 49.003906 29.589844 49.003906 29.652344 48.941406 C 29.84375 48.875 34.394531 46.84375 35.21875 42.902344 C 35.851562 40.484375 34.585938 38.640625 33.066406 38.070312 Z M 34.078125 42.582031 C 33.445312 45.378906 30.410156 47.160156 29.464844 47.605469 C 28.578125 47.160156 25.480469 45.378906 24.847656 42.582031 C 24.46875 40.804688 25.351562 39.59375 26.363281 39.214844 C 26.617188 39.148438 26.808594 39.085938 27.058594 39.085938 C 27.757812 39.085938 28.453125 39.53125 28.957031 40.359375 C 29.210938 40.738281 29.84375 40.738281 30.03125 40.359375 C 30.664062 39.277344 31.613281 38.832031 32.625 39.214844 C 33.574219 39.59375 34.457031 40.804688 34.078125 42.582031 Z M 34.078125 42.582031 " fill-opacity="1" fill-rule="nonzero"/></svg>