<svg xmlns="http://www.w3.org/2000/svg" xmlns:xlink="http://www.w3.org/1999/xlink" width="80" zoomAndPan="magnify" viewBox="0 0 60 60" height="80" preserveAspectRatio="xMidYMid meet" version="1.0"><defs><clipPath id="d0bf7323c2"><path d="M 2.40625 47.574219 L 56.394531 47.574219 L 56.394531 53.65625 L 2.40625 53.65625 Z M 2.40625 47.574219 " clip-rule="nonzero"/></clipPath><clipPath id="15e6bfac1e"><path d="M 28 4.917969 L 31 4.917969 L 31 16 L 28 16 Z M 28 4.917969 " clip-rule="nonzero"/></clipPath></defs><path fill="#dbbf97" d="M 8.054688 44.648438 C 8.566406 33.339844 17.957031 24.332031 29.46875 24.332031 C 40.976562 24.332031 50.367188 33.339844 50.882812 44.648438 Z M 27.988281 21.652344 C 27.988281 20.886719 28.628906 20.25 29.402344 20.25 C 30.171875 20.25 30.820312 20.886719 30.820312 21.652344 C 30.820312 21.972656 30.683594 22.230469 30.558594 22.484375 L 28.246094 22.484375 C 28.054688 22.230469 27.988281 21.910156 27.988281 21.652344 Z M 32.617188 22.609375 C 32.746094 22.289062 32.8125 21.972656 32.8125 21.589844 C 32.8125 19.734375 31.269531 18.269531 29.46875 18.269531 C 27.601562 18.269531 26.121094 19.800781 26.121094 21.589844 C 26.121094 21.972656 26.183594 22.289062 26.3125 22.609375 C 14.929688 24.144531 6.1875 33.855469 6.1875 45.542969 L 6.1875 46.5 L 52.875 46.5 L 52.875 45.542969 C 52.746094 33.917969 44 24.210938 32.617188 22.609375 " fill-opacity="1" fill-rule="nonzero"/><path fill="#dbbf97" d="M 11.136719 42.605469 L 10.945312 42.605469 C 10.429688 42.476562 10.171875 42.027344 10.300781 41.519531 C 11.78125 35.320312 16.542969 30.019531 23.164062 27.277344 C 23.609375 27.082031 24.128906 27.277344 24.320312 27.785156 C 24.511719 28.230469 24.320312 28.742188 23.808594 28.933594 C 17.765625 31.425781 13.324219 36.277344 11.972656 41.902344 C 11.90625 42.285156 11.523438 42.605469 11.136719 42.605469 " fill-opacity="1" fill-rule="nonzero"/><g clip-path="url(#d0bf7323c2)"><path fill="#dbbf97" d="M 6.703125 51.804688 L 52.105469 51.804688 L 53.902344 49.441406 L 4.898438 49.441406 Z M 52.167969 53.65625 L 6.636719 53.65625 C 6.121094 53.65625 5.605469 53.402344 5.285156 53.015625 L 2.648438 49.632812 C 2.394531 49.246094 2.324219 48.796875 2.519531 48.351562 C 2.714844 47.96875 3.164062 47.714844 3.617188 47.714844 L 55.191406 47.714844 C 55.640625 47.714844 56.089844 47.96875 56.277344 48.355469 C 56.476562 48.738281 56.414062 49.246094 56.152344 49.632812 L 53.519531 53.015625 C 53.195312 53.402344 52.679688 53.65625 52.167969 53.65625 " fill-opacity="1" fill-rule="nonzero"/></g><g clip-path="url(#15e6bfac1e)"><path fill="#dbbf97" d="M 29.207031 15.011719 C 28.691406 15.011719 28.308594 14.625 28.308594 14.117188 L 28.308594 5.808594 C 28.308594 5.300781 28.691406 4.917969 29.207031 4.917969 C 29.722656 4.917969 30.109375 5.300781 30.109375 5.746094 L 30.109375 14.050781 C 30.109375 14.5625 29.660156 15.011719 29.207031 15.011719 " fill-opacity="1" fill-rule="nonzero"/></g><path fill="#dbbf97" d="M 18.40625 17.628906 C 18.085938 17.628906 17.765625 17.433594 17.632812 17.183594 L 13.453125 9.964844 C 13.195312 9.519531 13.324219 9.003906 13.777344 8.75 C 14.226562 8.496094 14.738281 8.621094 15 9.070312 L 19.175781 16.289062 C 19.4375 16.734375 19.308594 17.246094 18.855469 17.5 C 18.726562 17.5625 18.597656 17.628906 18.40625 17.628906 " fill-opacity="1" fill-rule="nonzero"/><path fill="#dbbf97" d="M 39.945312 17.628906 C 39.820312 17.628906 39.628906 17.5625 39.5 17.5 C 39.046875 17.246094 38.917969 16.734375 39.179688 16.289062 L 43.355469 9.070312 C 43.617188 8.621094 44.128906 8.496094 44.578125 8.75 C 45.023438 9.003906 45.160156 9.519531 44.902344 9.964844 L 40.714844 17.183594 C 40.589844 17.433594 40.269531 17.628906 39.945312 17.628906 " fill-opacity="1" fill-rule="nonzero"/></svg>