<svg xmlns="http://www.w3.org/2000/svg" xmlns:xlink="http://www.w3.org/1999/xlink" width="80" zoomAndPan="magnify" viewBox="0 0 60 60" height="80" preserveAspectRatio="xMidYMid meet" version="1.0"><defs><clipPath id="cca78661b0"><path d="M 21 2.554688 L 29 2.554688 L 29 12 L 21 12 Z M 21 2.554688 " clip-rule="nonzero"/></clipPath><clipPath id="c51ae14fa8"><path d="M 17 23 L 46 23 L 46 55.804688 L 17 55.804688 Z M 17 23 " clip-rule="nonzero"/></clipPath><clipPath id="ed6cbdcec2"><path d="M 10.414062 9 L 26 9 L 26 55.804688 L 10.414062 55.804688 Z M 10.414062 9 " clip-rule="nonzero"/></clipPath><clipPath id="0baf3a9634"><path d="M 38 5 L 47.164062 5 L 47.164062 20 L 38 20 Z M 38 5 " clip-rule="nonzero"/></clipPath></defs><g clip-path="url(#cca78661b0)"><path fill="#dbbf97" d="M 24.425781 3.503906 C 23.605469 3.503906 22.878906 4.007812 22.472656 4.859375 C 22.273438 5.28125 22.152344 6.152344 22.726562 7.910156 L 22.730469 7.910156 C 22.921875 8.503906 23.398438 9.582031 24.417969 10.105469 C 25.246094 10.53125 26.28125 10.410156 26.828125 9.824219 C 27.195312 9.433594 27.394531 8.832031 27.445312 7.984375 C 27.511719 6.808594 27.296875 5.773438 26.820312 4.984375 C 26.277344 4.09375 25.347656 3.511719 24.445312 3.503906 C 24.4375 3.503906 24.433594 3.503906 24.425781 3.503906 Z M 25.472656 11.273438 C 24.972656 11.273438 24.464844 11.15625 23.996094 10.917969 C 23.03125 10.414062 22.273438 9.449219 21.859375 8.191406 C 21.316406 6.53125 21.246094 5.308594 21.648438 4.46875 C 22.210938 3.292969 23.246094 2.589844 24.425781 2.589844 C 24.433594 2.589844 24.445312 2.589844 24.453125 2.589844 C 25.683594 2.605469 26.886719 3.339844 27.597656 4.511719 C 28.171875 5.457031 28.433594 6.675781 28.355469 8.035156 C 28.292969 9.105469 28.011719 9.894531 27.496094 10.445312 C 26.988281 10.988281 26.246094 11.273438 25.472656 11.273438 " fill-opacity="1" fill-rule="nonzero"/></g><path fill="#dbbf97" d="M 37.253906 24.882812 C 37.027344 24.882812 36.800781 24.859375 36.570312 24.808594 L 36.636719 24.355469 L 36.539062 24.804688 C 33.683594 24.171875 30.898438 23.128906 28.480469 21.792969 C 28.257812 21.667969 28.179688 21.390625 28.300781 21.171875 C 28.421875 20.949219 28.703125 20.871094 28.921875 20.992188 C 31.265625 22.289062 33.964844 23.300781 36.734375 23.914062 L 36.667969 24.367188 L 36.761719 23.917969 C 37.414062 24.058594 38.078125 23.914062 38.628906 23.519531 C 39.210938 23.101562 39.589844 22.457031 39.675781 21.746094 C 39.742188 21.175781 39.609375 20.9375 39.289062 20.367188 L 39.21875 20.246094 C 39.097656 20.023438 39.175781 19.75 39.394531 19.625 C 39.617188 19.503906 39.894531 19.582031 40.015625 19.800781 L 40.082031 19.921875 C 40.429688 20.539062 40.683594 20.984375 40.582031 21.851562 C 40.464844 22.816406 39.949219 23.695312 39.160156 24.257812 C 38.589844 24.671875 37.929688 24.882812 37.253906 24.882812 " fill-opacity="1" fill-rule="nonzero"/><path fill="#dbbf97" d="M 34.9375 14.496094 C 34.835938 14.496094 34.738281 14.492188 34.640625 14.488281 C 33.257812 14.398438 31.945312 13.855469 30.78125 13.375 L 27.972656 12.210938 C 27.738281 12.113281 27.628906 11.847656 27.726562 11.613281 C 27.820312 11.382812 28.085938 11.273438 28.320312 11.371094 L 31.132812 12.53125 C 32.28125 13.007812 33.46875 13.5 34.695312 13.574219 C 35.914062 13.648438 37.476562 13.152344 38.121094 12.050781 C 38.246094 11.835938 38.527344 11.761719 38.742188 11.886719 C 38.960938 12.015625 39.035156 12.292969 38.90625 12.511719 C 38.097656 13.898438 36.34375 14.496094 34.9375 14.496094 " fill-opacity="1" fill-rule="nonzero"/><g clip-path="url(#c51ae14fa8)"><path fill="#dbbf97" d="M 31.710938 55.59375 C 26.855469 55.59375 20.648438 54.847656 17.609375 52.746094 C 17.402344 52.601562 17.351562 52.316406 17.492188 52.109375 C 17.636719 51.902344 17.921875 51.851562 18.128906 51.996094 C 20.554688 53.671875 25.820312 54.703125 31.863281 54.683594 C 37.53125 54.664062 42.460938 53.695312 44.617188 52.195312 C 44.035156 50.710938 43.246094 48.605469 42.417969 46.390625 C 40.628906 41.605469 38.40625 35.652344 37.09375 32.972656 C 36.230469 31.210938 35.601562 29.703125 35.328125 28.066406 C 35.089844 26.632812 35.1875 26.136719 35.402344 25.039062 C 35.457031 24.78125 35.511719 24.488281 35.574219 24.136719 C 35.617188 23.886719 35.855469 23.722656 36.101562 23.765625 C 36.351562 23.8125 36.515625 24.046875 36.472656 24.296875 C 36.410156 24.652344 36.351562 24.953125 36.296875 25.214844 C 36.09375 26.257812 36.019531 26.648438 36.226562 27.914062 C 36.484375 29.441406 37.085938 30.882812 37.914062 32.570312 C 39.246094 35.292969 41.382812 41.019531 43.273438 46.070312 C 44.164062 48.449219 45.003906 50.699219 45.59375 52.183594 C 45.671875 52.367188 45.613281 52.578125 45.457031 52.707031 C 42.851562 54.8125 36.730469 55.582031 31.867188 55.59375 C 31.8125 55.59375 31.761719 55.59375 31.710938 55.59375 " fill-opacity="1" fill-rule="nonzero"/></g><path fill="#dbbf97" d="M 37.753906 21.203125 C 37.675781 21.203125 37.601562 21.199219 37.535156 21.199219 C 37.527344 21.199219 37.519531 21.199219 37.511719 21.199219 C 37.25 21.179688 31.039062 20.6875 24.601562 15.679688 C 24.402344 15.527344 24.367188 15.238281 24.519531 15.039062 C 24.675781 14.84375 24.964844 14.808594 25.160156 14.960938 C 31.242188 19.691406 37.261719 20.261719 37.5625 20.289062 C 38.492188 20.300781 39.101562 20.191406 39.308594 19.625 C 39.386719 19.402344 39.375 19.136719 39.273438 18.878906 C 39.230469 18.777344 39.1875 18.671875 39.144531 18.554688 C 39.0625 18.347656 38.976562 18.121094 38.875 17.886719 C 38.476562 16.953125 38.46875 15.902344 38.847656 15 C 39.109375 14.382812 39.488281 13.816406 39.980469 13.320312 C 40.160156 13.140625 40.449219 13.140625 40.628906 13.316406 C 40.808594 13.492188 40.808594 13.78125 40.632812 13.960938 C 40.222656 14.375 39.902344 14.84375 39.6875 15.355469 C 39.402344 16.03125 39.414062 16.824219 39.714844 17.53125 C 39.820312 17.773438 39.910156 18.011719 39.996094 18.226562 C 40.039062 18.339844 40.078125 18.441406 40.117188 18.539062 C 40.304688 19.007812 40.320312 19.5 40.164062 19.933594 C 39.742188 21.109375 38.507812 21.203125 37.753906 21.203125 " fill-opacity="1" fill-rule="nonzero"/><g clip-path="url(#ed6cbdcec2)"><path fill="#dbbf97" d="M 12.953125 55.765625 C 12.941406 55.765625 12.929688 55.765625 12.917969 55.765625 C 12.078125 55.753906 11.316406 55.316406 10.878906 54.601562 C 10.441406 53.882812 10.402344 53.003906 10.777344 52.253906 C 14.09375 45.59375 17.277344 39.0625 19.796875 32.339844 C 21.003906 28.789062 21.484375 24.683594 21.15625 23.234375 L 20.140625 18.714844 C 19.855469 17.449219 19.5 15.871094 20.070312 14.433594 C 20.398438 13.605469 21.058594 12.886719 21.695312 12.191406 C 22.382812 11.441406 23.03125 10.730469 23.144531 10.023438 C 23.1875 9.773438 23.421875 9.605469 23.667969 9.644531 C 23.917969 9.6875 24.085938 9.917969 24.046875 10.167969 C 23.886719 11.144531 23.113281 11.988281 22.367188 12.804688 C 21.789062 13.441406 21.183594 14.097656 20.917969 14.773438 C 20.488281 15.859375 20.714844 17.109375 21.027344 18.511719 L 22.050781 23.03125 C 22.453125 24.832031 21.816406 29.234375 20.65625 32.648438 C 18.113281 39.421875 14.917969 45.980469 11.59375 52.65625 C 11.359375 53.128906 11.386719 53.675781 11.65625 54.125 C 11.929688 54.574219 12.40625 54.84375 12.929688 54.851562 C 12.9375 54.851562 12.949219 54.851562 12.953125 54.851562 C 13.503906 54.851562 14.007812 54.558594 14.277344 54.082031 C 17.601562 48.1875 21.480469 41.140625 25.039062 33.566406 C 25.148438 33.339844 25.417969 33.242188 25.648438 33.347656 C 25.875 33.453125 25.972656 33.726562 25.867188 33.957031 C 22.292969 41.554688 18.402344 48.621094 15.070312 54.527344 C 14.640625 55.292969 13.832031 55.765625 12.953125 55.765625 " fill-opacity="1" fill-rule="nonzero"/></g><path fill="#dbbf97" d="M 25.453125 34.21875 C 25.390625 34.21875 25.324219 34.203125 25.261719 34.175781 C 25.035156 34.070312 24.933594 33.800781 25.039062 33.570312 C 26.953125 29.386719 28.464844 26.082031 29.691406 22.222656 C 29.765625 21.984375 30.023438 21.851562 30.261719 21.929688 C 30.503906 22.003906 30.636719 22.261719 30.5625 22.503906 C 29.316406 26.410156 27.796875 29.738281 25.867188 33.953125 C 25.789062 34.117188 25.625 34.21875 25.453125 34.21875 " fill-opacity="1" fill-rule="nonzero"/><path fill="#dbbf97" d="M 34.820312 17.335938 C 34.796875 17.335938 34.773438 17.335938 34.75 17.332031 C 32.648438 17.011719 30.601562 16.398438 28.671875 15.511719 L 28.414062 15.394531 C 27.820312 15.117188 27.257812 14.851562 26.667969 14.777344 C 26.109375 14.707031 25.402344 14.851562 25.078125 15.335938 C 24.9375 15.546875 24.65625 15.601562 24.445312 15.464844 C 24.238281 15.324219 24.179688 15.042969 24.320312 14.832031 C 24.792969 14.117188 25.765625 13.738281 26.785156 13.871094 C 27.515625 13.96875 28.167969 14.273438 28.800781 14.566406 L 29.050781 14.683594 C 30.90625 15.535156 32.871094 16.125 34.886719 16.429688 C 35.136719 16.464844 35.308594 16.699219 35.269531 16.949219 C 35.238281 17.171875 35.042969 17.335938 34.820312 17.335938 " fill-opacity="1" fill-rule="nonzero"/><g clip-path="url(#0baf3a9634)"><path fill="#dbbf97" d="M 41.996094 12.832031 C 42.109375 12.832031 42.21875 12.875 42.300781 12.949219 C 42.4375 13.070312 42.488281 13.261719 42.429688 13.433594 C 41.878906 15.09375 42.328125 16.9375 43.480469 18.035156 C 43.566406 16.953125 43.769531 15.835938 44.328125 14.761719 C 44.414062 14.59375 44.503906 14.421875 44.59375 14.253906 C 45.132812 13.222656 45.691406 12.160156 45.953125 11.042969 C 46.234375 9.828125 46.09375 8.632812 45.578125 7.839844 C 45.214844 7.273438 44.671875 6.917969 43.960938 6.777344 C 42.972656 6.585938 42.277344 7.167969 40.796875 8.496094 L 40.613281 8.664062 C 39.570312 9.515625 38.863281 10.90625 38.984375 11.84375 C 39.054688 12.398438 39.285156 12.789062 39.664062 13 C 40.191406 13.292969 40.992188 13.246094 41.808594 12.875 C 41.871094 12.847656 41.933594 12.832031 41.996094 12.832031 Z M 43.882812 19.375 C 43.800781 19.375 43.722656 19.351562 43.652344 19.308594 C 41.917969 18.273438 41.015625 16.09375 41.355469 13.992188 C 40.5625 14.183594 39.800781 14.121094 39.21875 13.796875 C 38.773438 13.550781 38.214844 13.03125 38.078125 11.960938 C 37.914062 10.699219 38.730469 9.019531 40.019531 7.96875 L 40.1875 7.816406 C 41.675781 6.480469 42.660156 5.597656 44.136719 5.886719 C 45.085938 6.070312 45.847656 6.574219 46.34375 7.34375 C 46.992188 8.339844 47.175781 9.800781 46.839844 11.246094 C 46.554688 12.476562 45.96875 13.597656 45.398438 14.679688 C 45.3125 14.84375 45.222656 15.011719 45.136719 15.179688 C 44.515625 16.386719 44.386719 17.695312 44.339844 18.933594 C 44.335938 19.097656 44.242188 19.242188 44.101562 19.316406 C 44.035156 19.355469 43.957031 19.375 43.882812 19.375 " fill-opacity="1" fill-rule="nonzero"/></g></svg>