<svg xmlns="http://www.w3.org/2000/svg" xmlns:xlink="http://www.w3.org/1999/xlink" width="80" zoomAndPan="magnify" viewBox="0 0 60 60" height="80" preserveAspectRatio="xMidYMid meet" version="1.0"><defs><clipPath id="83469ffe97"><path d="M 3.582031 4.832031 L 56.070312 4.832031 L 56.070312 52.078125 L 3.582031 52.078125 Z M 3.582031 4.832031 " clip-rule="nonzero"/></clipPath></defs><g clip-path="url(#83469ffe97)"><path fill="#dbbf97" d="M 55.410156 34.214844 C 55.300781 34.441406 55.140625 34.601562 54.890625 34.636719 C 54.613281 34.675781 54.335938 34.710938 54.058594 34.707031 C 51.773438 34.691406 49.492188 34.664062 47.207031 34.648438 C 45.90625 34.640625 44.605469 34.648438 43.304688 34.648438 C 43.203125 34.648438 43.101562 34.648438 42.957031 34.648438 C 43.210938 33.597656 43.179688 32.558594 43.238281 31.503906 C 43.371094 31.503906 43.480469 31.503906 43.59375 31.503906 C 46.566406 31.511719 49.542969 31.523438 52.519531 31.53125 C 53.023438 31.535156 53.53125 31.511719 54.03125 31.5625 C 54.339844 31.589844 54.640625 31.71875 54.9375 31.835938 C 55.1875 31.929688 55.320312 32.164062 55.421875 32.394531 C 55.679688 33 55.714844 33.609375 55.410156 34.214844 Z M 53.855469 35.480469 C 53.800781 36.023438 53.753906 36.5625 53.6875 37.101562 C 53.589844 37.917969 53.480469 38.734375 53.363281 39.550781 C 53.261719 40.230469 52.878906 40.691406 52.234375 40.9375 C 51.617188 41.175781 50.972656 41.269531 50.3125 41.285156 C 50.277344 41.285156 50.242188 41.277344 50.199219 41.269531 C 50.191406 40.988281 50.210938 40.703125 50.007812 40.433594 C 49.777344 40.683594 49.8125 40.992188 49.757812 41.289062 C 49.492188 41.289062 49.230469 41.308594 48.972656 41.285156 C 48.324219 41.222656 47.671875 41.152344 47.023438 41.070312 C 46.382812 40.992188 46.054688 40.578125 45.953125 39.976562 C 45.839844 39.285156 45.734375 38.589844 45.675781 37.890625 C 45.609375 37.089844 45.597656 36.28125 45.5625 35.476562 C 45.558594 35.386719 45.5625 35.292969 45.5625 35.1875 C 46.164062 35.1875 46.742188 35.1875 47.351562 35.1875 C 47.335938 35.300781 47.328125 35.371094 47.316406 35.445312 C 47.253906 35.789062 47.265625 36.132812 47.304688 36.480469 C 47.308594 36.535156 47.324219 36.589844 47.34375 36.640625 C 47.378906 36.738281 47.449219 36.796875 47.554688 36.792969 C 47.667969 36.789062 47.722656 36.714844 47.742188 36.617188 C 47.8125 36.246094 47.828125 35.871094 47.777344 35.496094 C 47.765625 35.40625 47.753906 35.316406 47.738281 35.203125 C 48.484375 35.203125 49.207031 35.203125 49.917969 35.203125 C 49.917969 35.4375 49.914062 35.648438 49.917969 35.863281 C 49.921875 36.179688 49.929688 36.496094 49.9375 36.8125 C 49.9375 36.851562 49.9375 36.898438 49.957031 36.921875 C 50 36.976562 50.058594 37.0625 50.109375 37.058594 C 50.175781 37.058594 50.277344 37.003906 50.304688 36.945312 C 50.355469 36.839844 50.378906 36.710938 50.382812 36.59375 C 50.390625 36.144531 50.386719 35.695312 50.386719 35.210938 C 50.96875 35.171875 51.589844 35.199219 52.242188 35.1875 C 52.234375 35.355469 52.222656 35.503906 52.214844 35.648438 C 52.207031 35.898438 52.199219 36.152344 52.195312 36.40625 C 52.191406 36.441406 52.203125 36.480469 52.210938 36.515625 C 52.230469 36.621094 52.273438 36.71875 52.398438 36.722656 C 52.53125 36.726562 52.574219 36.632812 52.59375 36.523438 C 52.652344 36.191406 52.707031 35.859375 52.660156 35.523438 C 52.648438 35.429688 52.640625 35.339844 52.628906 35.207031 C 53.050781 35.230469 53.445312 35.25 53.855469 35.273438 C 53.855469 35.355469 53.859375 35.421875 53.855469 35.480469 Z M 42.339844 30.726562 C 42.246094 30.84375 42.152344 30.859375 42.027344 30.855469 C 40.492188 30.84375 38.957031 30.832031 37.421875 30.820312 C 33.980469 30.792969 30.535156 30.765625 27.089844 30.734375 C 23.910156 30.707031 20.726562 30.679688 17.546875 30.652344 C 17.507812 30.652344 17.46875 30.652344 17.421875 30.652344 C 17.082031 30.132812 16.792969 30.128906 16.410156 30.628906 C 16.054688 30.628906 15.691406 30.632812 15.324219 30.625 C 15.257812 30.621094 15.183594 30.582031 15.128906 30.539062 C 15.023438 30.460938 14.921875 30.375 14.835938 30.277344 C 14.210938 29.554688 13.59375 28.828125 12.96875 28.105469 C 12.855469 27.972656 12.828125 27.84375 12.855469 27.671875 C 13.050781 26.40625 12.332031 25.160156 11.136719 24.703125 C 10.96875 24.640625 10.882812 24.546875 10.816406 24.390625 C 10.117188 22.792969 9.851562 21.125 10.003906 19.394531 C 10.160156 17.652344 10.9375 16.214844 12.207031 15.035156 C 12.300781 14.949219 12.425781 14.886719 12.550781 14.847656 C 13.488281 14.5625 14.421875 14.253906 15.371094 14.011719 C 17.328125 13.503906 19.324219 13.203125 21.335938 12.980469 C 24.585938 12.613281 27.847656 12.472656 31.117188 12.554688 C 32.667969 12.597656 34.21875 12.6875 35.765625 12.816406 C 37.144531 12.929688 38.523438 13.082031 39.890625 13.285156 C 42.363281 13.652344 44.792969 14.214844 47.164062 15.03125 C 47.671875 15.207031 48.039062 15.488281 48.355469 15.894531 C 49.363281 17.179688 49.800781 18.644531 49.796875 20.265625 C 49.792969 21.683594 49.515625 23.035156 48.964844 24.339844 C 48.890625 24.515625 48.792969 24.621094 48.605469 24.6875 C 47.40625 25.117188 46.667969 26.40625 46.886719 27.671875 C 46.914062 27.839844 46.894531 27.972656 46.785156 28.113281 C 46.167969 28.890625 45.519531 29.640625 44.792969 30.320312 C 44.644531 30.464844 44.503906 30.613281 44.367188 30.765625 C 44.289062 30.851562 44.207031 30.882812 44.097656 30.878906 C 43.851562 30.871094 43.609375 30.871094 43.367188 30.875 C 43.242188 30.878906 43.164062 30.835938 43.082031 30.738281 C 42.859375 30.472656 42.546875 30.464844 42.339844 30.726562 Z M 42.113281 34.632812 C 42.035156 34.636719 41.953125 34.648438 41.871094 34.644531 C 40.128906 34.640625 38.390625 34.632812 36.652344 34.628906 C 36.496094 34.628906 36.394531 34.582031 36.304688 34.453125 C 35.589844 33.433594 34.6875 32.613281 33.644531 31.941406 C 33.347656 31.753906 33.023438 31.605469 32.714844 31.441406 C 32.714844 31.429688 32.714844 31.417969 32.714844 31.40625 C 35.875 31.4375 39.03125 31.472656 42.222656 31.503906 C 42.234375 32.546875 42.257812 33.582031 42.113281 34.632812 Z M 33.824219 34.605469 C 33.683594 33.378906 33.09375 32.429688 32.125 31.703125 C 32.136719 31.6875 32.148438 31.671875 32.160156 31.65625 C 32.289062 31.703125 32.417969 31.742188 32.542969 31.800781 C 33.007812 32.007812 33.425781 32.285156 33.820312 32.601562 C 34.464844 33.121094 35.054688 33.691406 35.5625 34.34375 C 35.617188 34.417969 35.667969 34.496094 35.75 34.605469 C 35.078125 34.605469 34.464844 34.605469 33.824219 34.605469 Z M 31.800781 34.59375 C 31.84375 33.574219 31.867188 32.566406 31.359375 31.636719 C 32.304688 31.917969 33.382812 33.464844 33.414062 34.59375 C 32.871094 34.59375 32.347656 34.59375 31.800781 34.59375 Z M 31.328125 34.582031 C 30.671875 34.582031 30.019531 34.582031 29.320312 34.582031 C 29.375 34.476562 29.414062 34.390625 29.460938 34.304688 C 29.773438 33.734375 30.023438 33.144531 30.125 32.496094 C 30.179688 32.175781 30.210938 31.851562 30.257812 31.503906 C 30.308594 31.5 30.378906 31.507812 30.449219 31.492188 C 30.792969 31.421875 30.960938 31.617188 31.085938 31.898438 C 31.246094 32.25 31.332031 32.621094 31.363281 33.007812 C 31.410156 33.527344 31.425781 34.050781 31.328125 34.582031 Z M 28.742188 34.578125 C 28.214844 34.578125 27.703125 34.578125 27.183594 34.578125 C 27.710938 33.671875 29.355469 31.484375 29.839844 31.394531 C 29.964844 31.910156 29.347656 33.703125 28.742188 34.578125 Z M 26.621094 34.398438 C 26.515625 34.542969 26.402344 34.59375 26.222656 34.589844 C 24.136719 34.578125 22.050781 34.574219 19.964844 34.570312 C 19.214844 34.566406 18.46875 34.5625 17.71875 34.558594 C 17.628906 34.558594 17.535156 34.550781 17.449219 34.546875 C 17.449219 33.441406 17.449219 32.375 17.449219 31.316406 C 17.707031 31.253906 28.445312 31.328125 29.128906 31.394531 C 29.109375 31.429688 29.101562 31.464844 29.078125 31.484375 C 28.492188 31.988281 28 32.574219 27.53125 33.183594 C 27.222656 33.585938 26.914062 33.984375 26.621094 34.398438 Z M 16.027344 34.554688 C 12.554688 34.546875 9.082031 34.542969 5.609375 34.535156 C 5.441406 34.535156 5.265625 34.546875 5.109375 34.503906 C 4.570312 34.347656 4.34375 33.925781 4.28125 33.414062 C 4.210938 32.84375 4.328125 32.296875 4.570312 31.773438 C 4.640625 31.628906 4.742188 31.535156 4.882812 31.464844 C 5.371094 31.230469 5.890625 31.132812 6.433594 31.140625 C 8.21875 31.167969 10.007812 31.1875 11.792969 31.210938 C 13.179688 31.226562 14.566406 31.242188 15.949219 31.257812 C 16.050781 31.257812 16.152344 31.257812 16.269531 31.257812 C 16.160156 32.382812 16.273438 33.445312 16.332031 34.539062 C 16.222656 34.542969 16.125 34.554688 16.027344 34.554688 Z M 13.980469 39.78125 C 13.933594 40.019531 13.847656 40.25 13.753906 40.472656 C 13.65625 40.707031 13.472656 40.875 13.222656 40.941406 C 12.910156 41.023438 12.589844 41.101562 12.265625 41.136719 C 11.632812 41.203125 11 41.234375 10.367188 41.277344 C 10.292969 41.28125 10.21875 41.269531 10.125 41.265625 C 10.105469 40.957031 10.113281 40.671875 9.910156 40.417969 C 9.664062 40.65625 9.722656 40.957031 9.699219 41.257812 C 9.476562 41.25 9.261719 41.246094 9.050781 41.226562 C 8.554688 41.175781 8.070312 41.078125 7.609375 40.886719 C 7.039062 40.652344 6.667969 40.238281 6.5625 39.628906 C 6.4375 38.890625 6.335938 38.148438 6.246094 37.40625 C 6.15625 36.683594 6.089844 35.957031 6.015625 35.230469 C 6.011719 35.195312 6.015625 35.160156 6.015625 35.113281 C 6.433594 35.113281 6.839844 35.113281 7.230469 35.113281 C 7.230469 35.351562 7.222656 35.574219 7.234375 35.796875 C 7.246094 36.019531 7.273438 36.242188 7.296875 36.464844 C 7.3125 36.585938 7.351562 36.691406 7.496094 36.695312 C 7.613281 36.699219 7.691406 36.609375 7.691406 36.433594 C 7.691406 36.078125 7.675781 35.722656 7.664062 35.367188 C 7.660156 35.292969 7.648438 35.21875 7.636719 35.105469 C 8.28125 35.09375 8.90625 35.097656 9.550781 35.101562 C 9.53125 35.457031 9.5 35.78125 9.496094 36.105469 C 9.496094 36.328125 9.523438 36.554688 9.546875 36.777344 C 9.550781 36.832031 9.566406 36.894531 9.601562 36.933594 C 9.648438 36.980469 9.730469 37.050781 9.777344 37.039062 C 9.839844 37.023438 9.929688 36.941406 9.9375 36.882812 C 9.96875 36.585938 9.992188 36.285156 9.992188 35.988281 C 9.992188 35.707031 9.960938 35.425781 9.941406 35.148438 C 10.132812 35.089844 11.734375 35.074219 12.160156 35.128906 C 12.148438 35.253906 12.144531 35.382812 12.121094 35.507812 C 12.054688 35.824219 12.097656 36.140625 12.132812 36.457031 C 12.15625 36.667969 12.230469 36.769531 12.347656 36.773438 C 12.46875 36.777344 12.570312 36.679688 12.582031 36.476562 C 12.601562 36.160156 12.597656 35.84375 12.59375 35.527344 C 12.589844 35.398438 12.5625 35.269531 12.542969 35.121094 C 13.128906 35.121094 13.707031 35.121094 14.300781 35.121094 C 14.308594 35.175781 14.328125 35.230469 14.328125 35.28125 C 14.335938 36.789062 14.257812 38.296875 13.980469 39.78125 Z M 10.222656 24.863281 C 11.507812 24.894531 12.503906 25.929688 12.476562 27.207031 C 12.488281 28.40625 11.46875 29.585938 10.042969 29.535156 C 8.78125 29.484375 7.777344 28.421875 7.804688 27.125 C 7.835938 25.847656 8.921875 24.828125 10.222656 24.863281 Z M 5.070312 25.863281 C 5.214844 25.136719 5.390625 24.417969 5.664062 23.726562 C 6.0625 22.71875 6.652344 21.859375 7.574219 21.257812 C 8.019531 20.964844 8.496094 20.757812 9.039062 20.753906 C 9.105469 20.753906 9.167969 20.753906 9.265625 20.753906 C 9.332031 22.042969 9.574219 23.285156 10.070312 24.496094 C 8.402344 24.671875 7.617188 25.832031 7.484375 26.933594 C 7.351562 28.011719 7.902344 29.140625 9 29.683594 C 9.910156 30.132812 11.378906 30.160156 12.488281 28.722656 C 13.023438 29.332031 13.558594 29.941406 14.089844 30.546875 C 14.082031 30.570312 14.078125 30.578125 14.074219 30.585938 C 14.066406 30.59375 14.058594 30.601562 14.054688 30.601562 C 11.050781 30.59375 8.046875 30.585938 5.042969 30.578125 C 4.996094 30.578125 4.949219 30.5625 4.878906 30.550781 C 4.839844 30.214844 4.796875 29.882812 4.769531 29.546875 C 4.671875 28.304688 4.824219 27.078125 5.070312 25.863281 Z M 15.371094 13.277344 C 16.726562 12.839844 18.109375 12.511719 19.519531 12.3125 C 21.054688 12.09375 22.597656 11.898438 24.136719 11.714844 C 24.871094 11.628906 25.609375 11.582031 26.347656 11.539062 C 27.414062 11.476562 28.480469 11.414062 29.546875 11.394531 C 30.910156 11.371094 32.277344 11.429688 33.640625 11.5625 C 34.421875 11.636719 35.207031 11.664062 35.988281 11.757812 C 37.355469 11.914062 38.71875 12.09375 40.082031 12.28125 C 41.285156 12.449219 42.472656 12.722656 43.644531 13.050781 C 44.683594 13.339844 45.691406 13.707031 46.605469 14.300781 C 46.679688 14.351562 46.757812 14.402344 46.8125 14.496094 C 46.648438 14.441406 46.484375 14.386719 46.316406 14.332031 C 44.378906 13.6875 42.386719 13.25 40.367188 12.941406 C 38.9375 12.722656 37.496094 12.527344 36.054688 12.386719 C 33.203125 12.105469 30.339844 12.007812 27.472656 12.085938 C 26.117188 12.125 24.757812 12.171875 23.40625 12.273438 C 21.035156 12.449219 18.679688 12.761719 16.355469 13.273438 C 15.652344 13.429688 14.957031 13.621094 14.257812 13.792969 C 14.199219 13.808594 14.140625 13.816406 14.082031 13.828125 C 14.078125 13.808594 14.070312 13.792969 14.066406 13.773438 C 14.5 13.609375 14.929688 13.421875 15.371094 13.277344 Z M 43.246094 12.207031 C 42.886719 12.121094 42.542969 12.042969 42.199219 11.964844 C 40.964844 11.691406 39.71875 11.496094 38.464844 11.351562 C 37.621094 11.253906 36.777344 11.140625 35.925781 11.070312 C 34.835938 10.980469 33.742188 10.925781 32.652344 10.855469 C 32.007812 10.8125 31.363281 10.777344 30.71875 10.722656 C 29.839844 10.652344 28.960938 10.691406 28.082031 10.753906 C 26.8125 10.84375 25.542969 10.921875 24.277344 11.027344 C 23.371094 11.101562 22.46875 11.195312 21.570312 11.316406 C 20.484375 11.460938 19.398438 11.609375 18.328125 11.8125 C 17.417969 11.984375 16.527344 12.238281 15.628906 12.460938 C 15.519531 12.484375 15.414062 12.515625 15.269531 12.558594 C 15.503906 10.960938 15.816406 9.414062 16.21875 7.886719 C 16.882812 7.785156 17.53125 7.683594 18.175781 7.59375 C 19.121094 7.464844 20.066406 7.328125 21.015625 7.230469 C 22.046875 7.125 23.082031 7.039062 24.121094 6.976562 C 25.679688 6.886719 27.238281 6.816406 28.800781 6.761719 C 30.410156 6.703125 32.019531 6.707031 33.628906 6.789062 C 35.40625 6.882812 37.164062 7.125 38.90625 7.496094 C 40.128906 7.761719 41.355469 8.019531 42.582031 8.28125 C 42.664062 8.300781 42.742188 8.320312 42.855469 8.351562 C 42.996094 9.636719 43.234375 10.894531 43.246094 12.207031 Z M 15.464844 7.109375 C 16.371094 6.859375 17.285156 6.589844 18.210938 6.363281 C 19.527344 6.035156 20.871094 5.828125 22.21875 5.664062 C 23.796875 5.476562 25.382812 5.367188 26.972656 5.3125 C 28.613281 5.257812 30.25 5.273438 31.886719 5.351562 C 34.121094 5.453125 36.34375 5.675781 38.554688 6.019531 C 40.285156 6.289062 41.996094 6.644531 43.6875 7.089844 C 43.761719 7.109375 43.832031 7.132812 43.925781 7.160156 C 44.054688 8.046875 44.214844 8.929688 44.265625 9.824219 C 44.316406 10.710938 44.332031 11.59375 44.363281 12.523438 C 44.082031 12.441406 43.84375 12.371094 43.648438 12.3125 C 43.601562 11.660156 43.5625 11.042969 43.503906 10.433594 C 43.453125 9.910156 43.386719 9.390625 43.304688 8.871094 C 43.269531 8.640625 43.183594 8.421875 43.128906 8.195312 C 43.089844 8.039062 42.988281 7.960938 42.839844 7.925781 C 42.402344 7.816406 41.972656 7.691406 41.53125 7.601562 C 40.132812 7.316406 38.730469 7.03125 37.320312 6.773438 C 36.132812 6.558594 34.929688 6.445312 33.726562 6.382812 C 32.171875 6.300781 30.621094 6.261719 29.066406 6.335938 C 27.597656 6.402344 26.128906 6.441406 24.664062 6.527344 C 22.859375 6.632812 21.058594 6.777344 19.273438 7.070312 C 18.242188 7.238281 17.210938 7.414062 16.175781 7.578125 C 16.0625 7.597656 16.015625 7.667969 15.984375 7.753906 C 15.835938 8.160156 15.667969 8.558594 15.5625 8.972656 C 15.253906 10.1875 14.988281 11.414062 14.878906 12.699219 C 14.628906 12.796875 14.382812 12.894531 14.117188 12.996094 C 14.457031 11.007812 14.988281 9.082031 15.464844 7.109375 Z M 47.183594 27.128906 C 47.210938 25.851562 48.296875 24.832031 49.59375 24.863281 C 50.882812 24.890625 51.882812 25.925781 51.855469 27.203125 C 51.867188 28.40625 50.847656 29.585938 49.425781 29.535156 C 48.164062 29.488281 47.15625 28.425781 47.183594 27.128906 Z M 50.488281 20.761719 C 50.886719 20.742188 51.261719 20.785156 51.617188 20.945312 C 52.515625 21.355469 53.1875 22.015625 53.679688 22.863281 C 54.109375 23.609375 54.363281 24.421875 54.554688 25.253906 C 54.816406 26.390625 55.023438 27.535156 55.011719 28.703125 C 55.007812 29.28125 54.933594 29.859375 54.890625 30.4375 C 54.867188 30.75 54.667969 30.921875 54.390625 31.011719 C 54.277344 31.046875 54.152344 31.070312 54.035156 31.066406 C 51.378906 31.011719 48.71875 30.953125 46.0625 30.894531 C 45.867188 30.890625 45.671875 30.894531 45.476562 30.894531 C 45.460938 30.871094 45.445312 30.847656 45.433594 30.828125 C 46.039062 30.132812 46.644531 29.4375 47.269531 28.71875 C 47.335938 28.800781 47.398438 28.875 47.460938 28.949219 C 48.625 30.367188 50.804688 30.261719 51.824219 28.738281 C 52.78125 27.308594 52.117188 25.289062 50.488281 24.695312 C 50.246094 24.605469 49.988281 24.554688 49.695312 24.476562 C 50.171875 23.300781 50.433594 22.066406 50.488281 20.761719 Z M 47.082031 45.503906 C 47.339844 45.460938 47.597656 45.410156 47.855469 45.363281 C 47.933594 45.347656 48.015625 45.339844 48.097656 45.332031 C 47.820312 45.613281 47.597656 45.898438 47.464844 46.246094 C 47.410156 46.382812 47.300781 46.382812 47.191406 46.398438 C 46.648438 46.476562 46.101562 46.546875 45.558594 46.628906 C 45.238281 46.675781 44.917969 46.730469 44.574219 46.785156 C 44.597656 46.457031 44.734375 46.1875 44.9375 45.957031 C 45 45.890625 45.117188 45.859375 45.210938 45.839844 C 45.835938 45.722656 46.460938 45.617188 47.082031 45.503906 Z M 49.929688 45.835938 C 50.179688 46.195312 50.261719 46.460938 50.28125 47.042969 C 50.328125 47.5 50.117188 47.925781 49.714844 48.253906 C 49.289062 48.597656 48.859375 48.644531 48.421875 48.277344 C 47.800781 47.757812 47.417969 46.730469 48.136719 45.789062 C 48.644531 45.128906 49.453125 45.152344 49.929688 45.835938 Z M 48.144531 48.695312 C 47.25 48.742188 46.351562 48.789062 45.457031 48.832031 C 45.445312 48.832031 45.4375 48.832031 45.425781 48.832031 C 44.996094 48.832031 44.921875 48.777344 44.765625 48.324219 C 45.714844 48.144531 46.679688 48.121094 47.605469 47.992188 C 47.824219 48.222656 48.027344 48.433594 48.242188 48.660156 C 48.207031 48.671875 48.175781 48.695312 48.144531 48.695312 Z M 44.628906 48.066406 C 44.457031 47.753906 44.4375 47.433594 44.503906 47.105469 C 45.453125 46.957031 46.390625 46.808594 47.308594 46.664062 C 47.367188 47.019531 47.425781 47.382812 47.488281 47.769531 C 46.542969 47.8125 45.582031 47.835938 44.628906 48.066406 Z M 38.011719 46.769531 C 38.078125 46.835938 38.144531 46.914062 38.226562 46.945312 C 38.289062 46.972656 38.394531 46.964844 38.453125 46.929688 C 38.53125 46.878906 38.523438 46.777344 38.46875 46.703125 C 38.398438 46.601562 38.320312 46.511719 38.242188 46.414062 C 38.113281 46.257812 37.988281 46.097656 37.84375 45.914062 C 37.980469 45.84375 38.09375 45.789062 38.210938 45.726562 C 38.40625 46.019531 38.582031 46.292969 38.777344 46.558594 C 38.96875 46.820312 39.179688 47.066406 39.394531 47.335938 C 38.996094 47.476562 38.691406 47.695312 38.472656 48.046875 C 38.015625 47.53125 37.582031 47.042969 37.132812 46.53125 C 37.234375 46.421875 37.339844 46.3125 37.460938 46.183594 C 37.65625 46.390625 37.832031 46.582031 38.011719 46.769531 Z M 38.890625 45.769531 C 39.25 46.1875 39.617188 46.601562 39.980469 47.015625 C 40.042969 47.085938 40.09375 47.15625 40.1875 47.273438 C 39.996094 47.273438 39.863281 47.273438 39.710938 47.273438 C 39.285156 46.761719 38.84375 46.230469 38.398438 45.695312 C 38.707031 45.554688 38.710938 45.5625 38.890625 45.769531 Z M 40.851562 49.117188 C 40.679688 49.386719 40.449219 49.582031 40.164062 49.71875 C 39.398438 50.082031 38.515625 49.382812 38.578125 48.679688 C 38.554688 48.449219 38.648438 48.25 38.777344 48.0625 C 39.070312 47.636719 39.507812 47.476562 39.992188 47.484375 C 40.722656 47.492188 41.300781 48.421875 40.851562 49.117188 Z M 38.265625 49 C 37.734375 48.339844 37.242188 47.734375 36.742188 47.113281 C 36.832031 46.964844 36.917969 46.824219 37.015625 46.660156 C 37.46875 47.210938 37.90625 47.742188 38.339844 48.269531 C 38.320312 48.484375 38.296875 48.710938 38.265625 49 Z M 32.566406 48.101562 C 32.835938 48.074219 33.039062 48.136719 33.214844 48.339844 C 33.351562 48.492188 33.472656 48.652344 33.550781 48.847656 C 32.96875 48.914062 32.402344 48.980469 31.839844 49.050781 C 31.515625 49.085938 31.191406 49.128906 30.867188 49.160156 C 30.792969 49.164062 30.683594 49.152344 30.640625 49.101562 C 30.398438 48.800781 30.109375 48.558594 29.757812 48.367188 C 29.855469 48.351562 29.957031 48.335938 30.054688 48.324219 C 30.894531 48.25 31.730469 48.1875 32.566406 48.101562 Z M 33.703125 49.144531 C 33.847656 49.429688 33.894531 49.742188 33.839844 50.101562 C 32.871094 50.140625 31.925781 50.339844 30.953125 50.574219 C 30.953125 50.375 30.96875 50.195312 30.949219 50.015625 C 30.929688 49.832031 30.882812 49.648438 30.84375 49.453125 C 31.78125 49.351562 32.722656 49.25 33.703125 49.144531 Z M 33.632812 50.875 C 33.59375 50.945312 33.488281 50.988281 33.402344 51.011719 C 33.03125 51.109375 32.660156 51.203125 32.289062 51.28125 C 31.75 51.398438 31.207031 51.5 30.667969 51.609375 C 30.605469 51.621094 30.542969 51.625 30.480469 51.632812 C 30.628906 51.359375 30.773438 51.097656 30.933594 50.808594 C 31.84375 50.667969 32.789062 50.519531 33.761719 50.367188 C 33.773438 50.578125 33.714844 50.734375 33.632812 50.875 Z M 30.191406 51.324219 C 29.894531 51.707031 29.535156 51.832031 29.078125 51.65625 C 28.597656 51.472656 28.253906 51.15625 28.113281 50.640625 C 27.988281 50.175781 27.957031 49.71875 28.148438 49.261719 C 28.269531 48.976562 28.457031 48.753906 28.746094 48.625 C 29.089844 48.476562 29.421875 48.546875 29.710938 48.730469 C 30.242188 49.066406 30.546875 49.550781 30.5625 50.183594 C 30.546875 50.609375 30.449219 50.988281 30.191406 51.324219 Z M 22.082031 47.035156 C 22.074219 47.050781 22.066406 47.0625 22.058594 47.078125 C 21.894531 47.015625 21.730469 46.953125 21.558594 46.890625 C 21.597656 46.804688 21.632812 46.730469 21.667969 46.65625 C 21.691406 46.605469 21.71875 46.558594 21.765625 46.472656 C 21.882812 46.679688 21.984375 46.855469 22.082031 47.035156 Z M 22.410156 48.515625 C 22.410156 49.308594 21.714844 50.070312 20.992188 50.046875 C 20.09375 50.019531 19.460938 49.273438 19.472656 48.578125 C 19.484375 47.90625 20.046875 47.132812 20.960938 47.136719 C 21.757812 47.140625 22.410156 47.761719 22.410156 48.515625 Z M 18.515625 45.59375 C 18.648438 45.503906 18.789062 45.40625 18.933594 45.300781 C 19.164062 46.019531 19.382812 46.710938 19.613281 47.441406 C 19.5 47.601562 19.371094 47.78125 19.226562 47.980469 C 18.988281 47.179688 18.757812 46.402344 18.515625 45.59375 Z M 19.996094 44.898438 C 20.183594 45.546875 20.367188 46.195312 20.558594 46.859375 C 20.324219 46.972656 20.085938 47.085938 19.84375 47.203125 C 19.621094 46.53125 19.398438 45.859375 19.171875 45.183594 C 19.414062 45.019531 19.679688 44.941406 19.996094 44.898438 Z M 21.046875 45.054688 C 21.078125 45.0625 21.105469 45.097656 21.125 45.125 C 21.144531 45.15625 21.15625 45.191406 21.167969 45.226562 C 21.261719 45.441406 21.417969 45.652344 21.425781 45.867188 C 21.4375 46.085938 21.304688 46.308594 21.234375 46.53125 C 21.203125 46.628906 21.175781 46.726562 21.140625 46.839844 C 21.054688 46.839844 20.964844 46.839844 20.90625 46.839844 C 20.671875 46.1875 20.441406 45.550781 20.210938 44.902344 C 20.519531 44.867188 20.78125 44.980469 21.046875 45.054688 Z M 16.128906 46.246094 C 16.390625 46.222656 16.597656 46.269531 16.78125 46.472656 C 16.917969 46.628906 17.035156 46.789062 17.125 46.988281 C 16.292969 47.085938 15.496094 47.183594 14.699219 47.277344 C 14.589844 47.289062 14.476562 47.308594 14.367188 47.308594 C 14.308594 47.304688 14.234375 47.277344 14.199219 47.238281 C 13.964844 46.929688 13.664062 46.699219 13.25 46.519531 C 13.425781 46.496094 13.535156 46.476562 13.644531 46.46875 C 14.472656 46.394531 15.300781 46.332031 16.128906 46.246094 Z M 17.269531 47.289062 C 17.425781 47.566406 17.449219 47.886719 17.40625 48.242188 C 16.429688 48.285156 15.480469 48.492188 14.554688 48.710938 C 14.515625 48.328125 14.480469 47.96875 14.441406 47.59375 C 15.355469 47.492188 16.304688 47.390625 17.269531 47.289062 Z M 17.339844 48.601562 C 17.3125 48.964844 17.125 49.15625 16.753906 49.226562 C 15.882812 49.390625 15.019531 49.589844 14.152344 49.773438 C 14.125 49.777344 14.097656 49.773438 14.050781 49.773438 C 14.199219 49.5 14.34375 49.238281 14.496094 48.953125 C 15.421875 48.835938 16.359375 48.609375 17.335938 48.535156 C 17.339844 48.582031 17.339844 48.59375 17.339844 48.601562 Z M 13.605469 49.648438 C 13.449219 49.804688 13.265625 49.871094 13.042969 49.863281 C 12.519531 49.84375 12.097656 49.605469 11.847656 49.152344 C 11.539062 48.601562 11.46875 48.003906 11.722656 47.394531 C 11.835938 47.125 12.011719 46.917969 12.277344 46.789062 C 12.636719 46.613281 12.984375 46.683594 13.292969 46.882812 C 14.375 47.578125 14.335938 48.894531 13.605469 49.648438 Z M 56.027344 33.03125 C 55.921875 32.480469 55.761719 31.941406 55.421875 31.476562 C 55.367188 31.398438 55.339844 31.328125 55.375 31.21875 C 55.65625 30.332031 55.71875 29.417969 55.691406 28.496094 C 55.660156 27.425781 55.492188 26.371094 55.257812 25.328125 C 55.0625 24.4375 54.804688 23.566406 54.363281 22.765625 C 53.851562 21.832031 53.160156 21.074219 52.222656 20.554688 C 51.710938 20.273438 51.179688 20.144531 50.601562 20.289062 C 50.574219 20.296875 50.546875 20.289062 50.488281 20.285156 C 50.488281 20.132812 50.492188 19.984375 50.484375 19.835938 C 50.480469 19.6875 50.464844 19.539062 50.453125 19.390625 C 50.292969 17.457031 49.457031 15.855469 48.054688 14.546875 C 47.179688 13.730469 46.148438 13.167969 45.027344 12.757812 C 44.933594 12.726562 44.839844 12.6875 44.761719 12.65625 C 44.777344 12.292969 44.808594 11.957031 44.8125 11.621094 C 44.820312 10.730469 44.75 9.84375 44.640625 8.960938 C 44.554688 8.273438 44.445312 7.589844 44.242188 6.925781 C 44.21875 6.847656 44.144531 6.773438 44.074219 6.722656 C 44.007812 6.679688 43.917969 6.667969 43.835938 6.644531 C 42.265625 6.25 40.679688 5.925781 39.085938 5.664062 C 37.292969 5.363281 35.492188 5.152344 33.679688 5.015625 C 31.578125 4.855469 29.472656 4.78125 27.367188 4.867188 C 26.328125 4.910156 25.292969 4.96875 24.257812 5.050781 C 23.398438 5.121094 22.546875 5.242188 21.691406 5.34375 C 20.371094 5.5 19.058594 5.683594 17.765625 6.007812 C 17.050781 6.191406 16.339844 6.390625 15.648438 6.652344 C 15.34375 6.769531 15.179688 6.960938 15.09375 7.257812 C 14.835938 8.1875 14.539062 9.105469 14.3125 10.042969 C 14.070312 11.042969 13.890625 12.054688 13.695312 13.066406 C 13.671875 13.191406 13.605469 13.234375 13.515625 13.289062 C 13.183594 13.484375 12.84375 13.667969 12.53125 13.890625 C 10.65625 15.230469 9.539062 17.023438 9.3125 19.34375 C 9.28125 19.65625 9.265625 19.972656 9.246094 20.300781 C 9.121094 20.28125 9.011719 20.261719 8.898438 20.246094 C 8.371094 20.171875 7.902344 20.34375 7.457031 20.601562 C 6.476562 21.167969 5.777344 21.992188 5.277344 22.996094 C 4.871094 23.808594 4.636719 24.675781 4.453125 25.554688 C 4.089844 27.273438 3.886719 28.996094 4.25 30.742188 C 4.277344 30.875 4.242188 30.96875 4.148438 31.066406 C 3.863281 31.351562 3.664062 31.691406 3.617188 32.097656 C 3.542969 32.765625 3.582031 33.4375 3.847656 34.058594 C 4.101562 34.664062 4.550781 35.070312 5.265625 35.070312 C 5.375 35.070312 5.484375 35.085938 5.613281 35.097656 C 5.613281 35.238281 5.605469 35.367188 5.613281 35.496094 C 5.671875 36.394531 5.714844 37.292969 5.800781 38.1875 C 5.851562 38.722656 5.949219 39.261719 6.066406 39.792969 C 6.222656 40.507812 6.632812 41.058594 7.316406 41.351562 C 7.695312 41.511719 8.089844 41.632812 8.488281 41.734375 C 9.089844 41.882812 9.710938 41.882812 10.328125 41.890625 C 11.277344 41.902344 12.214844 41.816406 13.136719 41.578125 C 13.828125 41.398438 14.246094 40.964844 14.441406 40.285156 C 14.726562 39.277344 14.824219 38.242188 14.867188 37.203125 C 14.894531 36.59375 14.871094 35.984375 14.871094 35.375 C 14.871094 35.296875 14.882812 35.214844 14.886719 35.148438 C 18.597656 35.148438 22.285156 35.148438 26.019531 35.148438 C 25.949219 35.246094 25.914062 35.300781 25.875 35.347656 C 25.234375 36.167969 24.597656 36.988281 23.953125 37.804688 C 23.371094 38.53125 22.730469 39.199219 22.0625 39.839844 C 21.023438 40.835938 19.878906 41.699219 18.726562 42.550781 C 17.578125 43.402344 16.503906 44.324219 15.632812 45.46875 C 15.507812 45.632812 15.394531 45.835938 15.226562 45.925781 C 15.058594 46.015625 14.828125 45.984375 14.625 46.019531 C 13.90625 46.140625 13.183594 46.25 12.472656 46.410156 C 11.914062 46.535156 11.554688 46.902344 11.386719 47.46875 C 11.222656 48.007812 11.296875 48.519531 11.449219 49.039062 C 11.625 49.664062 12.457031 50.273438 13.160156 50.222656 C 13.414062 50.203125 13.667969 50.1875 13.914062 50.140625 C 14.660156 50.007812 15.402344 49.863281 16.144531 49.714844 C 16.484375 49.644531 16.824219 49.574219 17.152344 49.476562 C 17.289062 49.4375 17.453125 49.351562 17.515625 49.238281 C 17.765625 48.769531 17.925781 48.265625 17.878906 47.730469 C 17.816406 47.035156 17.449219 46.5 16.914062 46.078125 C 16.714844 45.925781 16.480469 45.863281 16.226562 45.886719 C 16.121094 45.898438 16.011719 45.921875 15.894531 45.851562 C 16.101562 45.636719 16.292969 45.429688 16.492188 45.234375 C 16.960938 44.773438 17.402344 44.285156 17.90625 43.871094 C 18.699219 43.214844 19.539062 42.617188 20.359375 41.992188 C 21.820312 40.871094 23.167969 39.625 24.332031 38.199219 C 25.097656 37.261719 25.832031 36.300781 26.566406 35.339844 C 26.683594 35.1875 26.804688 35.132812 26.988281 35.140625 C 27.390625 35.148438 27.792969 35.140625 28.195312 35.144531 C 28.253906 35.144531 28.3125 35.160156 28.394531 35.175781 C 28.328125 35.28125 28.289062 35.363281 28.234375 35.441406 C 27.882812 35.957031 27.542969 36.488281 27.167969 36.988281 C 26.105469 38.417969 25.015625 39.828125 23.964844 41.261719 C 23.039062 42.527344 22.269531 43.886719 21.664062 45.339844 C 21.648438 45.375 21.621094 45.402344 21.574219 45.472656 C 21.503906 45.304688 21.457031 45.171875 21.390625 45.054688 C 21.335938 44.960938 21.269531 44.847656 21.179688 44.804688 C 20.363281 44.394531 19.21875 44.503906 18.507812 45.296875 C 18.332031 45.492188 18.265625 45.699219 18.34375 45.964844 C 18.503906 46.53125 18.640625 47.105469 18.792969 47.675781 C 18.921875 48.152344 19.050781 48.632812 19.191406 49.105469 C 19.488281 50.117188 20.527344 50.5625 21.253906 50.433594 C 22.207031 50.261719 22.929688 49.3125 22.785156 48.355469 C 22.703125 47.804688 22.59375 47.246094 22.308594 46.75 C 22.210938 46.578125 22.128906 46.398438 22.027344 46.230469 C 21.960938 46.113281 21.957031 46.011719 22.019531 45.890625 C 22.214844 45.488281 22.402344 45.078125 22.59375 44.671875 C 23.402344 42.960938 24.457031 41.402344 25.582031 39.890625 C 26.710938 38.371094 27.90625 36.898438 28.894531 35.28125 C 28.964844 35.167969 29.050781 35.144531 29.171875 35.144531 C 29.789062 35.148438 30.410156 35.148438 31.027344 35.148438 C 31.089844 35.148438 31.152344 35.160156 31.230469 35.167969 C 31.21875 35.242188 31.210938 35.308594 31.195312 35.371094 C 31.046875 35.96875 30.914062 36.574219 30.746094 37.167969 C 30.273438 38.804688 29.816406 40.445312 29.632812 42.148438 C 29.503906 43.316406 29.535156 44.464844 29.796875 45.609375 C 29.960938 46.328125 30.289062 46.984375 30.574219 47.65625 C 30.609375 47.734375 30.640625 47.816406 30.679688 47.914062 C 30.519531 47.941406 30.390625 47.953125 30.261719 47.980469 C 29.804688 48.070312 29.339844 48.148438 28.890625 48.265625 C 28.332031 48.410156 27.972656 48.773438 27.8125 49.339844 C 27.65625 49.875 27.726562 50.390625 27.882812 50.910156 C 28.0625 51.515625 28.878906 52.125 29.578125 52.078125 C 29.839844 52.058594 30.101562 52.042969 30.359375 51.996094 C 31.097656 51.863281 31.828125 51.71875 32.5625 51.574219 C 32.910156 51.503906 33.257812 51.417969 33.601562 51.332031 C 33.8125 51.277344 33.96875 51.152344 34.035156 50.933594 C 34.089844 50.746094 34.167969 50.5625 34.21875 50.375 C 34.46875 49.433594 34.136719 48.507812 33.355469 47.941406 C 33.160156 47.800781 32.945312 47.726562 32.699219 47.742188 C 32.371094 47.761719 32.046875 47.78125 31.71875 47.804688 C 31.503906 47.816406 31.292969 47.839844 31.074219 47.863281 C 30.910156 47.375 30.738281 46.898438 30.585938 46.417969 C 30.242188 45.308594 30.039062 44.183594 30.09375 43.015625 C 30.152344 41.8125 30.363281 40.632812 30.652344 39.46875 C 30.917969 38.386719 31.210938 37.3125 31.488281 36.234375 C 31.578125 35.882812 31.640625 35.523438 31.714844 35.175781 C 32.082031 35.121094 33.320312 35.140625 33.542969 35.207031 C 33.597656 36.027344 33.652344 36.859375 33.703125 37.691406 C 33.757812 38.609375 33.835938 39.523438 34.039062 40.421875 C 34.328125 41.703125 34.789062 42.921875 35.578125 43.980469 C 36.050781 44.617188 36.601562 45.199219 37.117188 45.804688 C 37.179688 45.878906 37.246094 45.953125 37.308594 46.019531 C 37.054688 46.3125 36.796875 46.558594 36.667969 46.902344 C 36.605469 47.0625 36.609375 47.195312 36.710938 47.347656 C 37.265625 48.164062 37.871094 48.9375 38.5625 49.640625 C 39.289062 50.378906 40.152344 50.277344 40.808594 49.742188 C 41.492188 49.179688 41.464844 48.359375 41.019531 47.8125 C 40.628906 47.335938 40.203125 46.882812 39.785156 46.429688 C 39.503906 46.117188 39.199219 45.824219 38.914062 45.519531 C 38.800781 45.398438 38.671875 45.367188 38.53125 45.410156 C 38.25 45.496094 37.972656 45.597656 37.675781 45.695312 C 37.433594 45.410156 37.167969 45.105469 36.917969 44.792969 C 36.519531 44.296875 36.097656 43.816406 35.746094 43.285156 C 34.800781 41.875 34.359375 40.289062 34.203125 38.613281 C 34.140625 37.933594 34.101562 37.25 34.050781 36.570312 C 34.015625 36.113281 33.972656 35.65625 33.929688 35.152344 C 34.042969 35.152344 34.136719 35.152344 34.226562 35.152344 C 34.761719 35.148438 35.292969 35.160156 35.828125 35.144531 C 36.046875 35.136719 36.171875 35.207031 36.261719 35.402344 C 36.660156 36.238281 37.074219 37.070312 37.46875 37.90625 C 37.832031 38.671875 38.222656 39.414062 38.710938 40.105469 C 39.542969 41.285156 40.589844 42.242188 41.75 43.078125 C 42.910156 43.910156 44.144531 44.609375 45.429688 45.230469 C 45.492188 45.257812 45.542969 45.300781 45.640625 45.359375 C 45.425781 45.410156 45.257812 45.433594 45.105469 45.492188 C 44.933594 45.558594 44.742188 45.628906 44.625 45.753906 C 44.140625 46.289062 43.929688 46.925781 44.019531 47.644531 C 44.070312 48.074219 44.3125 48.425781 44.535156 48.785156 C 44.730469 49.105469 45.003906 49.226562 45.359375 49.203125 C 45.40625 49.199219 45.453125 49.203125 45.5 49.199219 C 46.070312 49.171875 46.640625 49.15625 47.207031 49.105469 C 47.859375 49.046875 48.511719 48.984375 49.15625 48.875 C 49.886719 48.75 50.347656 48.261719 50.519531 47.574219 C 50.695312 46.867188 50.5625 46.171875 50.109375 45.574219 C 49.894531 45.296875 49.617188 45.078125 49.246094 45.054688 C 48.929688 45.03125 48.613281 45.007812 48.296875 45.027344 C 47.820312 45.054688 47.347656 45.105469 46.875 45.175781 C 46.617188 45.214844 46.394531 45.175781 46.175781 45.050781 C 46.113281 45.011719 46.042969 44.984375 45.980469 44.945312 C 45.074219 44.414062 44.164062 43.894531 43.273438 43.34375 C 42.71875 43 42.179688 42.625 41.65625 42.226562 C 40.179688 41.101562 39.027344 39.707031 38.21875 38.027344 C 37.785156 37.125 37.324219 36.234375 36.875 35.339844 C 36.847656 35.285156 36.828125 35.230469 36.804688 35.175781 C 39.554688 35.175781 42.28125 35.175781 45.023438 35.175781 C 45.03125 35.257812 45.039062 35.3125 45.035156 35.363281 C 45.027344 35.730469 44.996094 36.097656 45.011719 36.460938 C 45.054688 37.292969 45.097656 38.125 45.179688 38.953125 C 45.238281 39.511719 45.351562 40.066406 45.558594 40.59375 C 45.742188 41.054688 46.066406 41.375 46.539062 41.53125 C 46.796875 41.617188 47.0625 41.679688 47.324219 41.734375 C 48.285156 41.933594 49.261719 41.929688 50.234375 41.902344 C 50.976562 41.878906 51.703125 41.753906 52.398438 41.472656 C 53.222656 41.136719 53.699219 40.53125 53.871094 39.664062 C 54.089844 38.578125 54.183594 37.480469 54.25 36.375 C 54.269531 36.023438 54.28125 35.667969 54.300781 35.292969 C 54.429688 35.285156 54.539062 35.265625 54.648438 35.269531 C 55.167969 35.296875 55.53125 35.046875 55.765625 34.609375 C 56.027344 34.121094 56.136719 33.585938 56.027344 33.03125 " fill-opacity="1" fill-rule="nonzero"/></g><path fill="#dbbf97" d="M 37.820312 27.828125 C 37.640625 27.859375 37.453125 27.914062 37.234375 27.8125 C 37.234375 27.542969 37.226562 27.265625 37.238281 26.988281 C 37.25 26.699219 37.273438 26.410156 37.300781 26.121094 C 37.351562 25.566406 37.367188 25.015625 37.261719 24.464844 C 38.046875 24.089844 38.792969 23.6875 39.617188 23.457031 C 39.886719 23.382812 40.152344 23.292969 40.421875 23.210938 C 40.648438 23.136719 40.707031 23.054688 40.65625 22.816406 C 40.609375 22.617188 40.546875 22.417969 40.492188 22.21875 C 40.480469 22.179688 40.476562 22.132812 40.46875 22.078125 C 41.289062 22.1875 42.066406 22.023438 42.839844 21.855469 C 43.632812 21.679688 44.421875 21.476562 45.210938 21.28125 C 45.371094 21.242188 45.527344 21.1875 45.714844 21.179688 C 45.632812 21.277344 45.554688 21.378906 45.46875 21.472656 C 44.984375 22.007812 44.488281 22.53125 44.023438 23.082031 C 43.78125 23.363281 43.59375 23.691406 43.386719 24.003906 C 43.335938 24.078125 43.304688 24.171875 43.277344 24.261719 C 43.195312 24.539062 43.277344 24.761719 43.527344 24.910156 C 43.660156 24.992188 43.808594 25.058594 43.949219 25.128906 C 44.441406 25.359375 44.933594 25.585938 45.421875 25.820312 C 45.496094 25.855469 45.566406 25.894531 45.640625 25.933594 C 45.640625 25.957031 45.636719 25.976562 45.636719 25.996094 C 44.988281 26.199219 44.339844 26.40625 43.6875 26.601562 C 42.429688 26.976562 41.152344 27.246094 39.863281 27.476562 C 39.179688 27.597656 38.5 27.71875 37.820312 27.828125 Z M 35.6875 23.472656 C 34.632812 23.671875 33.5625 23.679688 32.5 23.53125 C 31.371094 23.371094 30.25 23.164062 29.125 22.96875 C 27.789062 22.742188 26.445312 22.550781 25.082031 22.570312 C 23.753906 22.59375 22.425781 22.6875 21.128906 23.003906 C 20.621094 23.125 20.128906 23.304688 19.605469 23.464844 C 19.652344 22.691406 19.730469 21.9375 19.898438 21.195312 C 20.160156 20.0625 20.570312 18.976562 20.914062 17.867188 C 21.027344 17.503906 21.21875 17.335938 21.566406 17.207031 C 22.941406 16.707031 24.359375 16.445312 25.796875 16.25 C 27.003906 16.085938 28.214844 15.972656 29.433594 16.023438 C 30.441406 16.066406 31.425781 16.242188 32.386719 16.519531 C 33.980469 16.972656 35.601562 17.128906 37.246094 16.972656 C 37.832031 16.917969 38.414062 16.8125 38.996094 16.730469 C 39.058594 16.71875 39.121094 16.714844 39.195312 16.707031 C 39.363281 18.742188 39.648438 20.738281 40.210938 22.707031 C 40.128906 22.714844 40.058594 22.730469 39.992188 22.726562 C 39.414062 22.710938 38.855469 22.800781 38.296875 22.925781 C 37.429688 23.121094 36.558594 23.304688 35.6875 23.472656 Z M 20.90625 27.125 C 19.371094 27.5625 15.976562 27.652344 15.136719 27.261719 C 15.210938 27.183594 15.28125 27.117188 15.347656 27.046875 C 15.691406 26.6875 16.046875 26.34375 16.371094 25.96875 C 16.511719 25.8125 16.609375 25.609375 16.683594 25.410156 C 16.789062 25.128906 16.710938 24.886719 16.460938 24.722656 C 16.265625 24.597656 16.050781 24.496094 15.835938 24.410156 C 15.226562 24.167969 14.585938 24.039062 13.929688 23.933594 C 15.78125 23.417969 17.566406 22.742188 19.316406 21.867188 C 19.289062 22.125 19.25 22.351562 19.234375 22.578125 C 19.214844 22.957031 19.183594 23.339844 19.199219 23.722656 C 19.210938 23.988281 19.25 23.96875 19.515625 23.992188 C 20.035156 24.035156 20.5625 23.960938 21.105469 24.105469 C 20.816406 25.101562 20.851562 26.117188 20.90625 27.125 Z M 45.773438 26.390625 C 45.941406 26.335938 46.105469 26.257812 46.257812 26.171875 C 46.425781 26.074219 46.449219 25.898438 46.3125 25.773438 C 46.230469 25.699219 46.128906 25.640625 46.027344 25.597656 C 45.355469 25.289062 44.683594 24.988281 44.007812 24.6875 C 43.59375 24.503906 43.574219 24.457031 43.785156 24.042969 C 43.996094 23.628906 44.304688 23.292969 44.613281 22.949219 C 45.015625 22.492188 45.410156 22.03125 45.800781 21.5625 C 45.902344 21.441406 45.984375 21.300781 46.058594 21.164062 C 46.183594 20.925781 46.113281 20.789062 45.839844 20.761719 C 45.703125 20.746094 45.558594 20.75 45.425781 20.78125 C 44.925781 20.902344 44.429688 21.046875 43.929688 21.160156 C 43.027344 21.367188 42.125 21.570312 41.214844 21.746094 C 40.957031 21.796875 40.679688 21.753906 40.390625 21.753906 C 40.367188 21.667969 40.339844 21.589844 40.324219 21.507812 C 40.101562 20.367188 39.890625 19.230469 39.808594 18.066406 C 39.777344 17.59375 39.691406 17.121094 39.601562 16.652344 C 39.542969 16.355469 39.449219 16.296875 39.152344 16.304688 C 38.703125 16.324219 38.25 16.335938 37.804688 16.382812 C 35.960938 16.589844 34.148438 16.46875 32.359375 15.960938 C 31.320312 15.664062 30.257812 15.484375 29.175781 15.464844 C 28.410156 15.449219 27.644531 15.488281 26.878906 15.574219 C 25.742188 15.695312 24.617188 15.867188 23.515625 16.175781 C 22.714844 16.398438 21.917969 16.644531 21.121094 16.882812 C 20.910156 16.945312 20.773438 17.082031 20.699219 17.296875 C 20.230469 18.609375 19.730469 19.914062 19.441406 21.28125 C 19.414062 21.414062 19.355469 21.472656 19.234375 21.511719 C 19.003906 21.589844 18.777344 21.675781 18.550781 21.765625 C 17.257812 22.28125 15.964844 22.796875 14.636719 23.222656 C 14.230469 23.355469 13.832031 23.519531 13.429688 23.679688 C 13.328125 23.71875 13.226562 23.773438 13.140625 23.847656 C 13.007812 23.960938 13.046875 24.144531 13.210938 24.199219 C 13.289062 24.226562 13.378906 24.226562 13.460938 24.238281 C 13.625 24.269531 13.792969 24.28125 13.953125 24.328125 C 14.421875 24.464844 14.886719 24.605469 15.347656 24.757812 C 15.613281 24.847656 15.875 24.949219 16.132812 25.0625 C 16.320312 25.140625 16.347656 25.210938 16.257812 25.390625 C 16.164062 25.570312 16.054688 25.75 15.917969 25.898438 C 15.578125 26.265625 15.222656 26.609375 14.875 26.964844 C 14.796875 27.042969 14.71875 27.128906 14.660156 27.222656 C 14.570312 27.371094 14.597656 27.492188 14.75 27.578125 C 14.859375 27.644531 14.984375 27.691406 15.109375 27.722656 C 15.636719 27.859375 16.171875 27.933594 16.714844 27.96875 C 18.230469 28.066406 19.722656 27.902344 21.210938 27.632812 C 21.476562 27.585938 21.472656 27.578125 21.464844 27.304688 C 21.453125 26.941406 21.421875 26.574219 21.445312 26.210938 C 21.503906 25.234375 21.695312 24.285156 22.074219 23.347656 C 23 23.183594 23.933594 23.121094 24.871094 23.128906 C 26.289062 23.140625 27.6875 23.332031 29.078125 23.59375 C 30.289062 23.820312 31.496094 24.089844 32.726562 24.210938 C 33.691406 24.304688 34.652344 24.300781 35.609375 24.148438 C 35.996094 24.089844 36.378906 24.011719 36.789062 23.933594 C 36.804688 24.066406 36.828125 24.195312 36.839844 24.324219 C 36.933594 25.269531 36.8125 26.214844 36.765625 27.15625 C 36.753906 27.40625 36.777344 27.664062 36.832031 27.90625 C 36.898438 28.183594 37.0625 28.289062 37.34375 28.289062 C 37.511719 28.292969 37.683594 28.277344 37.847656 28.25 C 38.429688 28.15625 39.007812 28.042969 39.589844 27.957031 C 40.933594 27.761719 42.265625 27.527344 43.5625 27.113281 C 44.300781 26.878906 45.039062 26.636719 45.773438 26.390625 " fill-opacity="1" fill-rule="nonzero"/><path fill="#dbbf97" d="M 10.039062 37.988281 C 10.007812 37.925781 9.921875 37.863281 9.855469 37.851562 C 9.8125 37.84375 9.722656 37.925781 9.703125 37.980469 C 9.535156 38.464844 9.582031 38.941406 9.804688 39.394531 C 9.832031 39.457031 9.933594 39.515625 10.003906 39.515625 C 10.109375 39.515625 10.15625 39.421875 10.160156 39.316406 C 10.160156 39.167969 10.160156 39.019531 10.160156 38.871094 C 10.1875 38.566406 10.160156 38.269531 10.039062 37.988281 " fill-opacity="1" fill-rule="nonzero"/><path fill="#dbbf97" d="M 12.304688 37.730469 C 12.234375 37.75 12.148438 37.816406 12.128906 37.878906 C 12.066406 38.070312 12.03125 38.273438 11.992188 38.449219 C 12.019531 38.636719 12.039062 38.796875 12.074219 38.949219 C 12.097656 39.0625 12.175781 39.132812 12.289062 39.140625 C 12.40625 39.148438 12.488281 39.082031 12.523438 38.976562 C 12.640625 38.609375 12.644531 38.242188 12.511719 37.878906 C 12.476562 37.78125 12.410156 37.699219 12.304688 37.730469 " fill-opacity="1" fill-rule="nonzero"/><path fill="#dbbf97" d="M 7.476562 37.644531 C 7.429688 37.640625 7.347656 37.71875 7.335938 37.777344 C 7.21875 38.207031 7.21875 38.640625 7.34375 39.074219 C 7.378906 39.179688 7.445312 39.261719 7.566406 39.246094 C 7.6875 39.230469 7.726562 39.128906 7.734375 39.019531 C 7.746094 38.898438 7.75 38.777344 7.753906 38.65625 C 7.765625 38.65625 7.777344 38.652344 7.789062 38.652344 C 7.738281 38.359375 7.691406 38.066406 7.628906 37.773438 C 7.617188 37.71875 7.53125 37.644531 7.476562 37.644531 " fill-opacity="1" fill-rule="nonzero"/><path fill="#dbbf97" d="M 50.15625 37.933594 C 50.09375 37.839844 49.988281 37.835938 49.917969 37.921875 C 49.875 37.976562 49.835938 38.050781 49.820312 38.121094 C 49.769531 38.386719 49.730469 38.652344 49.6875 38.917969 C 49.695312 38.921875 49.707031 38.921875 49.714844 38.925781 C 49.726562 39.082031 49.730469 39.242188 49.757812 39.398438 C 49.765625 39.449219 49.828125 39.527344 49.871094 39.53125 C 49.933594 39.542969 50.011719 39.503906 50.066406 39.464844 C 50.109375 39.4375 50.128906 39.375 50.152344 39.324219 C 50.296875 38.945312 50.320312 38.558594 50.25 38.164062 C 50.234375 38.082031 50.199219 38 50.15625 37.933594 " fill-opacity="1" fill-rule="nonzero"/><path fill="#dbbf97" d="M 47.578125 37.753906 C 47.503906 37.777344 47.410156 37.851562 47.386719 37.921875 C 47.328125 38.097656 47.304688 38.285156 47.269531 38.457031 C 47.300781 38.640625 47.324219 38.808594 47.363281 38.96875 C 47.390625 39.089844 47.472656 39.167969 47.605469 39.164062 C 47.722656 39.160156 47.800781 39.089844 47.828125 38.980469 C 47.921875 38.621094 47.914062 38.261719 47.78125 37.90625 C 47.746094 37.816406 47.683594 37.71875 47.578125 37.753906 " fill-opacity="1" fill-rule="nonzero"/><path fill="#dbbf97" d="M 52.421875 37.664062 C 52.363281 37.71875 52.304688 37.769531 52.253906 37.828125 C 52.234375 37.855469 52.238281 37.898438 52.226562 37.9375 C 52.136719 38.300781 52.113281 38.667969 52.167969 39.042969 C 52.183594 39.152344 52.203125 39.25 52.332031 39.265625 C 52.46875 39.285156 52.539062 39.195312 52.5625 39.074219 C 52.601562 38.867188 52.628906 38.652344 52.660156 38.449219 C 52.632812 38.234375 52.613281 38.03125 52.570312 37.832031 C 52.558594 37.769531 52.472656 37.71875 52.421875 37.664062 " fill-opacity="1" fill-rule="nonzero"/><path fill="#dbbf97" d="M 10.097656 25.496094 C 11.042969 25.496094 11.792969 26.265625 11.789062 27.230469 C 11.785156 28.171875 11.035156 28.921875 10.089844 28.917969 C 9.152344 28.914062 8.378906 28.128906 8.390625 27.1875 C 8.402344 26.257812 9.171875 25.496094 10.097656 25.496094 Z M 10.128906 29.214844 C 11.214844 29.21875 12.113281 28.328125 12.125 27.238281 C 12.136719 26.164062 11.226562 25.253906 10.136719 25.253906 C 9.042969 25.253906 8.148438 26.140625 8.148438 27.230469 C 8.148438 28.335938 9.019531 29.210938 10.128906 29.214844 " fill-opacity="1" fill-rule="nonzero"/><path fill="#dbbf97" d="M 49.484375 25.496094 C 50.429688 25.503906 51.171875 26.273438 51.167969 27.238281 C 51.164062 28.179688 50.40625 28.925781 49.460938 28.917969 C 48.53125 28.910156 47.773438 28.144531 47.769531 27.210938 C 47.761719 26.273438 48.550781 25.488281 49.484375 25.496094 Z M 49.507812 29.214844 C 50.59375 29.214844 51.492188 28.328125 51.503906 27.238281 C 51.515625 26.160156 50.605469 25.253906 49.515625 25.253906 C 48.417969 25.253906 47.527344 26.140625 47.527344 27.234375 C 47.527344 28.335938 48.398438 29.210938 49.507812 29.214844 " fill-opacity="1" fill-rule="nonzero"/><path fill="#dbbf97" d="M 29.625 50.71875 C 29.429688 50.914062 29.148438 50.90625 28.960938 50.699219 C 28.636719 50.34375 28.65625 49.734375 29.003906 49.40625 C 29.273438 49.144531 29.597656 49.210938 29.738281 49.558594 C 29.769531 49.632812 29.796875 49.714844 29.8125 49.796875 C 29.832031 49.886719 29.839844 49.980469 29.84375 50.035156 C 29.851562 50.316406 29.804688 50.539062 29.625 50.71875 Z M 29.972656 49.277344 C 29.671875 48.875 29.121094 48.867188 28.796875 49.246094 C 28.40625 49.707031 28.375 50.210938 28.59375 50.742188 C 28.816406 51.292969 29.453125 51.414062 29.882812 51.003906 C 30.132812 50.761719 30.234375 50.460938 30.234375 50.117188 C 30.234375 49.8125 30.15625 49.523438 29.972656 49.277344 " fill-opacity="1" fill-rule="nonzero"/><path fill="#dbbf97" d="M 13.210938 48.84375 C 13.011719 49.058594 12.714844 49.054688 12.523438 48.839844 C 12.199219 48.472656 12.226562 47.871094 12.578125 47.542969 C 12.851562 47.285156 13.167969 47.355469 13.308594 47.707031 C 13.347656 47.804688 13.378906 47.902344 13.398438 48.003906 C 13.414062 48.085938 13.414062 48.167969 13.417969 48.207031 C 13.421875 48.476562 13.363281 48.679688 13.210938 48.84375 Z M 13.527344 47.398438 C 13.226562 47.015625 12.679688 47.019531 12.367188 47.390625 C 11.992188 47.835938 11.9375 48.328125 12.148438 48.859375 C 12.378906 49.445312 13.054688 49.570312 13.492188 49.109375 C 13.714844 48.871094 13.800781 48.582031 13.8125 48.234375 C 13.796875 47.949219 13.722656 47.652344 13.527344 47.398438 " fill-opacity="1" fill-rule="nonzero"/><path fill="#dbbf97" d="M 48.4375 46.445312 C 48.492188 46.101562 48.769531 45.96875 49.082031 46.125 C 49.410156 46.289062 49.554688 46.539062 49.566406 46.945312 C 49.546875 47.066406 49.546875 47.191406 49.507812 47.304688 C 49.402344 47.632812 49.070312 47.742188 48.796875 47.53125 C 48.695312 47.457031 48.605469 47.347656 48.546875 47.238281 C 48.421875 46.992188 48.390625 46.71875 48.4375 46.445312 Z M 48.136719 47.277344 C 48.246094 47.566406 48.429688 47.796875 48.714844 47.933594 C 49.195312 48.164062 49.699219 47.929688 49.828125 47.410156 C 49.851562 47.3125 49.859375 47.207031 49.875 47.105469 C 49.890625 46.550781 49.621094 46.15625 49.167969 45.878906 C 49.0625 45.8125 48.921875 45.769531 48.804688 45.777344 C 48.441406 45.800781 48.164062 46.0625 48.085938 46.421875 C 48.019531 46.710938 48.03125 46.996094 48.136719 47.277344 " fill-opacity="1" fill-rule="nonzero"/><path fill="#dbbf97" d="M 21.089844 49.410156 C 20.582031 49.5 20.164062 49.140625 20.167969 48.570312 C 20.222656 48.28125 20.234375 47.933594 20.5625 47.707031 C 21.019531 47.382812 21.636719 47.578125 21.804688 48.117188 C 21.992188 48.707031 21.660156 49.308594 21.089844 49.410156 Z M 20.921875 47.3125 C 20.789062 47.324219 20.648438 47.378906 20.535156 47.449219 C 20.195312 47.675781 20.046875 48.019531 19.972656 48.414062 C 19.894531 48.839844 20.046875 49.316406 20.390625 49.527344 C 20.761719 49.757812 21.160156 49.730469 21.53125 49.519531 C 21.953125 49.285156 22.074219 48.878906 22.085938 48.328125 C 22.132812 47.671875 21.527344 47.25 20.921875 47.3125 " fill-opacity="1" fill-rule="nonzero"/><path fill="#dbbf97" d="M 40.21875 47.914062 C 40.429688 48.023438 40.503906 48.222656 40.5 48.453125 C 40.5 48.789062 40.074219 49.253906 39.738281 49.273438 C 39.644531 49.277344 39.527344 49.246094 39.457031 49.1875 C 39.023438 48.816406 39.074219 48.242188 39.523438 47.925781 C 39.722656 47.785156 39.988281 47.796875 40.21875 47.914062 Z M 38.933594 48.621094 C 38.992188 48.804688 39.027344 49 39.117188 49.171875 C 39.242188 49.421875 39.460938 49.566406 39.753906 49.539062 C 40.15625 49.503906 40.59375 49.113281 40.695312 48.722656 C 40.816406 48.261719 40.578125 47.789062 40.160156 47.703125 C 40.023438 47.675781 39.867188 47.703125 39.722656 47.726562 C 39.234375 47.808594 38.972656 48.121094 38.933594 48.621094 " fill-opacity="1" fill-rule="nonzero"/><path fill="#dbbf97" d="M 25.582031 19.195312 C 25.4375 19.132812 25.304688 19.183594 25.199219 19.289062 C 25.019531 19.464844 24.847656 19.648438 24.675781 19.835938 C 24.597656 19.917969 24.53125 20.015625 24.433594 20.140625 C 24.382812 19.972656 24.355469 19.855469 24.316406 19.742188 C 24.265625 19.585938 24.222656 19.417969 24.144531 19.269531 C 24.019531 19.027344 23.753906 19.03125 23.617188 19.269531 C 23.582031 19.332031 23.558594 19.40625 23.53125 19.476562 C 23.285156 20.152344 23.042969 20.828125 22.796875 21.503906 C 22.777344 21.566406 22.746094 21.628906 22.746094 21.691406 C 22.746094 21.847656 22.886719 21.925781 23.019531 21.835938 C 23.054688 21.8125 23.085938 21.773438 23.117188 21.738281 C 23.390625 21.449219 23.566406 21.101562 23.710938 20.730469 C 23.761719 20.605469 23.816406 20.480469 23.886719 20.324219 C 23.949219 20.5 23.984375 20.636719 24.046875 20.761719 C 24.167969 21 24.394531 21.023438 24.566406 20.820312 C 24.625 20.75 24.667969 20.664062 24.722656 20.589844 C 24.859375 20.402344 25 20.222656 25.136719 20.039062 C 25.152344 20.050781 25.167969 20.0625 25.183594 20.074219 C 25.140625 20.425781 25.085938 20.777344 25.066406 21.132812 C 25.054688 21.304688 25.097656 21.480469 25.140625 21.652344 C 25.167969 21.753906 25.253906 21.824219 25.371094 21.820312 C 25.492188 21.816406 25.5625 21.738281 25.59375 21.636719 C 25.628906 21.511719 25.652344 21.382812 25.664062 21.25 C 25.691406 20.851562 25.710938 20.449219 25.734375 20.046875 C 25.746094 19.890625 25.761719 19.730469 25.769531 19.570312 C 25.777344 19.414062 25.742188 19.265625 25.582031 19.195312 " fill-opacity="1" fill-rule="nonzero"/><path fill="#dbbf97" d="M 37.679688 20.914062 C 37.609375 21.488281 37.289062 21.773438 36.652344 21.796875 C 36.667969 21.242188 36.6875 20.6875 36.703125 20.144531 C 37.300781 19.96875 37.753906 20.347656 37.679688 20.914062 Z M 36.859375 19.632812 C 36.738281 19.644531 36.617188 19.644531 36.449219 19.652344 C 36.425781 19.714844 36.363281 19.8125 36.351562 19.917969 C 36.289062 20.605469 36.238281 21.292969 36.183594 21.980469 C 36.179688 22.035156 36.175781 22.09375 36.1875 22.148438 C 36.226562 22.308594 36.386719 22.386719 36.503906 22.273438 C 36.605469 22.167969 36.695312 22.199219 36.804688 22.210938 C 36.90625 22.21875 37.011719 22.226562 37.109375 22.207031 C 37.609375 22.113281 37.957031 21.839844 38.105469 21.335938 C 38.261719 20.804688 38.148438 20.339844 37.75 19.953125 C 37.507812 19.714844 37.210938 19.597656 36.859375 19.632812 " fill-opacity="1" fill-rule="nonzero"/><path fill="#dbbf97" d="M 31.316406 20.207031 C 31.179688 20.300781 31.027344 20.371094 30.847656 20.351562 C 30.847656 20.113281 30.847656 19.882812 30.847656 19.605469 C 31.027344 19.660156 31.164062 19.683594 31.285156 19.742188 C 31.5 19.851562 31.511719 20.074219 31.316406 20.207031 Z M 31.648438 19.515625 C 31.40625 19.308594 31.125 19.242188 30.808594 19.320312 C 30.527344 19.390625 30.523438 19.382812 30.488281 19.660156 C 30.40625 20.253906 30.320312 20.847656 30.253906 21.441406 C 30.234375 21.613281 30.257812 21.796875 30.292969 21.964844 C 30.304688 22.027344 30.402344 22.09375 30.46875 22.109375 C 30.507812 22.117188 30.59375 22.027344 30.609375 21.96875 C 30.660156 21.789062 30.683594 21.605469 30.71875 21.421875 C 30.734375 21.347656 30.75 21.273438 30.773438 21.148438 C 30.96875 21.433594 31.125 21.667969 31.285156 21.894531 C 31.34375 21.980469 31.40625 22.0625 31.476562 22.132812 C 31.558594 22.210938 31.65625 22.234375 31.757812 22.167969 C 31.859375 22.101562 31.886719 22 31.851562 21.898438 C 31.8125 21.792969 31.753906 21.695312 31.6875 21.605469 C 31.472656 21.328125 31.246094 21.054688 31.011719 20.765625 C 31.195312 20.699219 31.371094 20.65625 31.527344 20.578125 C 31.972656 20.351562 32.027344 19.835938 31.648438 19.515625 " fill-opacity="1" fill-rule="nonzero"/><path fill="#dbbf97" d="M 29.3125 20.078125 C 29.175781 20.160156 29.011719 20.203125 28.808594 20.28125 C 28.835938 20.03125 28.855469 19.84375 28.878906 19.601562 C 29.039062 19.632812 29.175781 19.636719 29.285156 19.6875 C 29.476562 19.777344 29.492188 19.96875 29.3125 20.078125 Z M 29.71875 20.1875 C 30.003906 19.804688 29.808594 19.296875 29.335938 19.226562 C 29.183594 19.203125 29.023438 19.261719 28.867188 19.25 C 28.640625 19.230469 28.566406 19.359375 28.523438 19.539062 C 28.394531 20.09375 28.261719 20.644531 28.148438 21.203125 C 28.113281 21.367188 28.128906 21.539062 28.128906 21.707031 C 28.128906 21.820312 28.171875 21.914062 28.296875 21.929688 C 28.421875 21.949219 28.480469 21.859375 28.519531 21.757812 C 28.539062 21.707031 28.558594 21.652344 28.570312 21.597656 C 28.621094 21.382812 28.667969 21.167969 28.722656 20.910156 C 28.785156 21 28.828125 21.058594 28.867188 21.113281 C 29.058594 21.390625 29.25 21.667969 29.445312 21.941406 C 29.488281 22 29.546875 22.0625 29.609375 22.085938 C 29.671875 22.109375 29.761719 22.101562 29.8125 22.070312 C 29.84375 22.050781 29.851562 21.949219 29.835938 21.898438 C 29.808594 21.808594 29.761719 21.726562 29.710938 21.648438 C 29.492188 21.316406 29.265625 20.984375 29.023438 20.628906 C 29.296875 20.519531 29.546875 20.414062 29.71875 20.1875 " fill-opacity="1" fill-rule="nonzero"/><path fill="#dbbf97" d="M 27.179688 20.292969 C 27.082031 20.292969 27 20.292969 26.902344 20.292969 C 26.933594 20.09375 27.019531 19.953125 27.179688 19.820312 C 27.179688 20 27.179688 20.144531 27.179688 20.292969 Z M 27.617188 19.714844 C 27.605469 19.589844 27.550781 19.460938 27.492188 19.347656 C 27.367188 19.109375 27.152344 19.082031 26.964844 19.265625 C 26.882812 19.34375 26.808594 19.429688 26.753906 19.527344 C 26.398438 20.148438 26.128906 20.800781 25.976562 21.5 C 25.960938 21.578125 25.960938 21.671875 25.980469 21.746094 C 25.996094 21.800781 26.058594 21.871094 26.105469 21.875 C 26.164062 21.878906 26.257812 21.839844 26.285156 21.789062 C 26.34375 21.695312 26.363281 21.582031 26.402344 21.476562 C 26.496094 21.195312 26.59375 20.914062 26.691406 20.628906 C 26.875 20.652344 27.019531 20.671875 27.1875 20.695312 C 27.1875 20.957031 27.1875 21.191406 27.1875 21.421875 C 27.191406 21.507812 27.195312 21.589844 27.21875 21.671875 C 27.246094 21.78125 27.328125 21.851562 27.4375 21.855469 C 27.5625 21.863281 27.652344 21.789062 27.6875 21.667969 C 27.710938 21.582031 27.730469 21.484375 27.726562 21.394531 C 27.695312 20.835938 27.664062 20.273438 27.617188 19.714844 " fill-opacity="1" fill-rule="nonzero"/><path fill="#dbbf97" d="M 35.46875 19.632812 C 35.171875 19.609375 34.875 19.582031 34.578125 19.578125 C 34.441406 19.574219 34.332031 19.652344 34.300781 19.804688 C 34.269531 19.960938 34.222656 20.113281 34.203125 20.269531 C 34.164062 20.59375 34.136719 20.917969 34.101562 21.246094 C 34.074219 21.523438 34.035156 21.800781 34.023438 22.082031 C 34.011719 22.332031 34.125 22.433594 34.375 22.445312 C 34.507812 22.453125 34.636719 22.480469 34.765625 22.46875 C 34.929688 22.460938 35.097656 22.4375 35.257812 22.394531 C 35.375 22.363281 35.449219 22.269531 35.429688 22.136719 C 35.410156 22.003906 35.304688 21.960938 35.183594 21.957031 C 35.136719 21.953125 35.089844 21.964844 35.042969 21.964844 C 34.878906 21.960938 34.71875 21.957031 34.542969 21.953125 C 34.566406 21.644531 34.585938 21.378906 34.609375 21.097656 C 34.828125 21.097656 35.03125 21.097656 35.234375 21.09375 C 35.363281 21.09375 35.480469 21.066406 35.507812 20.914062 C 35.53125 20.792969 35.441406 20.691406 35.277344 20.648438 C 35.222656 20.636719 35.164062 20.636719 35.109375 20.628906 C 34.945312 20.601562 34.785156 20.574219 34.617188 20.546875 C 34.632812 20.347656 34.644531 20.171875 34.65625 19.988281 C 34.722656 19.984375 34.773438 19.976562 34.828125 19.972656 C 35.035156 19.96875 35.242188 19.96875 35.445312 19.964844 C 35.550781 19.960938 35.628906 19.914062 35.628906 19.796875 C 35.625 19.699219 35.566406 19.640625 35.46875 19.632812 " fill-opacity="1" fill-rule="nonzero"/><path fill="#dbbf97" d="M 28.523438 16.652344 C 28.523438 16.652344 28.527344 16.648438 28.53125 16.644531 C 28.527344 16.644531 28.523438 16.644531 28.523438 16.644531 C 28.523438 16.648438 28.523438 16.652344 28.523438 16.652344 " fill-opacity="1" fill-rule="nonzero"/><path fill="#dbbf97" d="M 28.472656 17.84375 C 28.46875 17.960938 28.5 18.085938 28.539062 18.199219 C 28.652344 18.523438 28.945312 18.617188 29.199219 18.390625 C 29.335938 18.273438 29.464844 18.117188 29.527344 17.949219 C 29.636719 17.664062 29.695312 17.359375 29.765625 17.058594 C 29.792969 16.953125 29.8125 16.835938 29.800781 16.726562 C 29.792969 16.65625 29.738281 16.566406 29.675781 16.535156 C 29.589844 16.488281 29.515625 16.558594 29.480469 16.644531 C 29.4375 16.765625 29.402344 16.890625 29.367188 17.015625 C 29.296875 17.257812 29.230469 17.5 29.152344 17.738281 C 29.121094 17.828125 29.101562 17.96875 28.964844 17.945312 C 28.820312 17.921875 28.835938 17.777344 28.832031 17.671875 C 28.820312 17.511719 28.832031 17.355469 28.839844 17.195312 C 28.847656 17.054688 28.871094 16.914062 28.871094 16.777344 C 28.875 16.660156 28.925781 16.515625 28.765625 16.464844 C 28.617188 16.421875 28.601562 16.578125 28.53125 16.644531 C 28.527344 16.691406 28.527344 16.738281 28.527344 16.785156 C 28.507812 17.136719 28.480469 17.488281 28.472656 17.84375 " fill-opacity="1" fill-rule="nonzero"/><path fill="#dbbf97" d="M 29.710938 18.066406 C 29.703125 18.144531 29.714844 18.242188 29.757812 18.300781 C 29.890625 18.484375 30.066406 18.597656 30.304688 18.578125 C 30.585938 18.558594 30.832031 18.453125 31.027344 18.25 C 31.257812 18.019531 31.261719 17.679688 31.023438 17.453125 C 30.914062 17.355469 30.777344 17.285156 30.652344 17.210938 C 30.570312 17.160156 30.480469 17.117188 30.351562 17.050781 C 30.472656 16.960938 30.546875 16.902344 30.636719 16.832031 C 30.726562 16.9375 30.789062 17.03125 30.875 17.097656 C 30.921875 17.136719 31.023438 17.160156 31.070312 17.136719 C 31.121094 17.109375 31.164062 17.007812 31.152344 16.953125 C 31.132812 16.859375 31.082031 16.753906 31.011719 16.6875 C 30.75 16.433594 30.449219 16.457031 30.207031 16.730469 C 29.957031 17.019531 30 17.28125 30.335938 17.460938 C 30.433594 17.515625 30.542969 17.550781 30.632812 17.617188 C 30.8125 17.742188 30.8125 17.9375 30.628906 18.050781 C 30.515625 18.125 30.375 18.191406 30.246094 18.195312 C 30.160156 18.195312 30.074219 18.078125 29.988281 18.011719 C 29.976562 18 29.960938 17.984375 29.945312 17.976562 C 29.84375 17.910156 29.730469 17.945312 29.710938 18.066406 " fill-opacity="1" fill-rule="nonzero"/><path fill="#dbbf97" d="M 33.273438 21.597656 C 33.167969 21.667969 33.0625 21.742188 32.914062 21.847656 C 32.886719 21.65625 32.84375 21.511719 32.851562 21.371094 C 32.871094 21.054688 32.917969 20.742188 32.945312 20.425781 C 32.960938 20.289062 32.976562 20.144531 32.964844 20.007812 C 32.960938 19.953125 32.890625 19.878906 32.832031 19.855469 C 32.75 19.820312 32.664062 19.863281 32.628906 19.953125 C 32.585938 20.054688 32.539062 20.164062 32.523438 20.273438 C 32.464844 20.695312 32.410156 21.121094 32.363281 21.546875 C 32.351562 21.65625 32.355469 21.773438 32.375 21.882812 C 32.453125 22.28125 32.75 22.425781 33.101562 22.234375 C 33.253906 22.152344 33.394531 22.035156 33.527344 21.917969 C 33.667969 21.796875 33.691406 21.671875 33.617188 21.578125 C 33.539062 21.480469 33.429688 21.484375 33.273438 21.597656 " fill-opacity="1" fill-rule="nonzero"/><path fill="#dbbf97" d="M 28.308594 16.414062 C 27.890625 16.445312 27.472656 16.492188 27.054688 16.539062 C 27.011719 16.542969 26.964844 16.566406 26.929688 16.59375 C 26.855469 16.652344 26.867188 16.761719 26.957031 16.796875 C 27.015625 16.816406 27.085938 16.816406 27.148438 16.816406 C 27.304688 16.820312 27.457031 16.816406 27.644531 16.816406 C 27.566406 17.132812 27.519531 17.410156 27.429688 17.671875 C 27.324219 17.992188 27.199219 18.035156 26.886719 17.894531 C 26.871094 17.886719 26.851562 17.871094 26.835938 17.875 C 26.78125 17.878906 26.710938 17.871094 26.683594 17.902344 C 26.648438 17.945312 26.625 18.03125 26.644531 18.074219 C 26.710938 18.222656 26.804688 18.34375 26.972656 18.394531 C 27.25 18.480469 27.566406 18.371094 27.714844 18.089844 C 27.8125 17.90625 27.871094 17.691406 27.910156 17.484375 C 27.957031 17.257812 27.964844 17.027344 27.984375 16.816406 C 28.175781 16.753906 28.351562 16.699219 28.523438 16.644531 C 28.496094 16.4375 28.476562 16.398438 28.308594 16.414062 " fill-opacity="1" fill-rule="nonzero"/><path fill="#dbbf97" d="M 32.40625 18.078125 C 32.425781 17.753906 32.445312 17.429688 32.460938 17.097656 C 32.644531 17.078125 32.800781 17.058594 32.957031 17.042969 C 33.054688 17.035156 33.132812 16.992188 33.125 16.898438 C 33.117188 16.839844 33.042969 16.789062 32.996094 16.738281 C 32.984375 16.726562 32.960938 16.71875 32.945312 16.714844 C 32.527344 16.621094 32.109375 16.632812 31.691406 16.691406 C 31.589844 16.707031 31.511719 16.78125 31.53125 16.882812 C 31.546875 16.945312 31.628906 17.015625 31.695312 17.039062 C 31.800781 17.078125 31.914062 17.078125 32.058594 17.097656 C 32.050781 17.171875 32.042969 17.226562 32.039062 17.28125 C 32.011719 17.652344 31.984375 18.023438 31.964844 18.398438 C 31.957031 18.554688 32.042969 18.65625 32.160156 18.65625 C 32.292969 18.652344 32.359375 18.5625 32.375 18.441406 C 32.394531 18.320312 32.402344 18.199219 32.40625 18.078125 " fill-opacity="1" fill-rule="nonzero"/><path fill="#dbbf97" d="M 32.542969 19.457031 C 32.539062 19.597656 32.664062 19.730469 32.804688 19.726562 C 32.945312 19.726562 33.074219 19.597656 33.078125 19.460938 C 33.085938 19.316406 32.960938 19.191406 32.816406 19.191406 C 32.675781 19.1875 32.542969 19.316406 32.542969 19.457031 " fill-opacity="1" fill-rule="nonzero"/><path fill="#dbbf97" d="M 20.171875 22.289062 C 20.035156 22.296875 19.929688 22.417969 19.9375 22.554688 C 19.949219 22.691406 20.070312 22.792969 20.207031 22.777344 C 20.332031 22.765625 20.429688 22.652344 20.429688 22.53125 C 20.425781 22.398438 20.300781 22.28125 20.171875 22.289062 " fill-opacity="1" fill-rule="nonzero"/><path fill="#dbbf97" d="M 39.375 22.308594 C 39.503906 22.3125 39.628906 22.199219 39.632812 22.066406 C 39.632812 21.933594 39.519531 21.820312 39.382812 21.820312 C 39.253906 21.824219 39.152344 21.917969 39.144531 22.046875 C 39.132812 22.183594 39.238281 22.300781 39.375 22.308594 " fill-opacity="1" fill-rule="nonzero"/><path fill="#dbbf97" d="M 38.632812 17.589844 C 38.765625 17.589844 38.878906 17.476562 38.875 17.339844 C 38.875 17.214844 38.777344 17.109375 38.652344 17.109375 C 38.519531 17.105469 38.40625 17.21875 38.40625 17.355469 C 38.410156 17.480469 38.511719 17.585938 38.632812 17.589844 " fill-opacity="1" fill-rule="nonzero"/><path fill="#dbbf97" d="M 21.398438 17.621094 C 21.304688 17.597656 21.214844 17.710938 21.222656 17.820312 C 21.230469 17.929688 21.292969 17.988281 21.398438 17.992188 C 21.503906 17.996094 21.585938 17.898438 21.578125 17.738281 C 21.535156 17.710938 21.472656 17.640625 21.398438 17.621094 " fill-opacity="1" fill-rule="nonzero"/></svg>