<svg xmlns="http://www.w3.org/2000/svg" xmlns:xlink="http://www.w3.org/1999/xlink" width="100" zoomAndPan="magnify" viewBox="0 0 75 74.999997" height="100" preserveAspectRatio="xMidYMid meet" version="1.0"><defs><clipPath id="347c49bf20"><path d="M 20 25 L 54 25 L 54 71.273438 L 20 71.273438 Z M 20 25 " clip-rule="nonzero"/></clipPath><clipPath id="bf1064748e"><path d="M 19.246094 5 L 55.246094 5 L 55.246094 52 L 19.246094 52 Z M 19.246094 5 " clip-rule="nonzero"/></clipPath><clipPath id="f826d70c0f"><path d="M 37 2.273438 L 38 2.273438 L 38 7 L 37 7 Z M 37 2.273438 " clip-rule="nonzero"/></clipPath></defs><g clip-path="url(#347c49bf20)"><path fill="#f7f3f0" d="M 42.742188 42.007812 L 42.742188 28.070312 L 43.175781 28.070312 L 43.175781 25.167969 L 31.320312 25.167969 L 31.320312 28.070312 L 31.753906 28.070312 L 31.753906 42.007812 L 20.949219 51.785156 L 20.949219 70.371094 L 31.738281 70.371094 L 31.738281 70.355469 L 31.753906 70.355469 L 31.753906 70.371094 L 31.738281 70.371094 L 31.738281 71.277344 L 42.753906 71.277344 L 42.753906 70.371094 L 42.742188 70.371094 L 42.742188 70.355469 L 42.753906 70.355469 L 42.753906 70.371094 L 53.542969 70.371094 L 53.542969 51.785156 Z M 36.863281 64.457031 L 36.507812 64.457031 L 36.507812 63.394531 L 36.863281 63.394531 Z M 38.199219 64.457031 L 37.84375 64.457031 L 37.84375 63.394531 L 38.199219 63.394531 Z M 38.199219 64.457031 " fill-opacity="1" fill-rule="evenodd"/></g><path fill="#abdbf7" d="M 35.636719 29.519531 L 37.238281 28.898438 L 38.804688 29.445312 L 39.28125 30.714844 L 39.28125 37.382812 L 35.210938 37.382812 L 35.210938 30.691406 Z M 35.210938 46.25 L 35.210938 52.9375 L 39.28125 52.9375 L 39.28125 46.269531 L 38.804688 45 L 37.238281 44.453125 L 35.636719 45.074219 Z M 23.59375 54.183594 L 23.59375 63.796875 L 29.441406 63.796875 L 29.441406 54.214844 L 28.753906 52.390625 L 26.503906 51.601562 L 24.199219 52.496094 Z M 45.054688 54.183594 L 45.054688 63.796875 L 50.902344 63.796875 L 50.902344 54.214844 L 50.214844 52.390625 L 47.960938 51.601562 L 45.660156 52.496094 Z M 45.054688 54.183594 " fill-opacity="1" fill-rule="evenodd"/><path fill="#f7ece1" d="M 34.941406 37.535156 L 39.550781 37.535156 L 39.550781 38.453125 L 34.941406 38.453125 Z M 34.941406 54.007812 L 39.550781 54.007812 L 39.550781 53.09375 L 34.941406 53.09375 Z M 23.203125 65.339844 L 29.832031 65.339844 L 29.832031 64.019531 L 23.203125 64.019531 Z M 44.664062 65.339844 L 51.289062 65.339844 L 51.289062 64.019531 L 44.664062 64.019531 Z M 44.664062 65.339844 " fill-opacity="1" fill-rule="evenodd"/><path fill="#8aaeb7" d="M 34.09375 69.625 L 34.09375 61.425781 C 34.09375 56.628906 40.398438 56.628906 40.398438 61.425781 L 40.398438 69.625 Z M 39.117188 30.84375 L 39.117188 30.929688 L 39.121094 30.929688 L 39.121094 30.914062 C 39.121094 30.890625 39.121094 30.867188 39.117188 30.84375 Z M 37.25 28.695312 C 36.054688 28.699219 35.089844 29.65625 35.085938 30.84375 L 35.085938 37.546875 L 39.410156 37.546875 L 39.410156 30.84375 C 39.40625 29.65625 38.441406 28.699219 37.25 28.695312 Z M 37.109375 37.21875 L 35.386719 37.21875 L 35.386719 35.296875 L 37.109375 35.296875 Z M 37.109375 35.148438 L 35.386719 35.148438 L 35.386719 33.277344 L 37.109375 33.277344 Z M 37.109375 33 L 35.386719 33 L 35.386719 31.082031 L 37.109375 31.082031 Z M 37.109375 30.929688 L 35.386719 30.929688 L 35.386719 30.847656 L 35.378906 30.847656 C 35.414062 29.902344 36.160156 29.132812 37.109375 29.0625 Z M 39.117188 37.21875 L 37.386719 37.21875 L 37.386719 35.296875 L 39.117188 35.296875 Z M 39.117188 35.148438 L 37.386719 35.148438 L 37.386719 33.277344 L 39.117188 33.277344 Z M 39.117188 33 L 37.386719 33 L 37.386719 31.082031 L 39.117188 31.082031 Z M 39.121094 30.929688 L 37.386719 30.929688 L 37.386719 29.0625 C 38.335938 29.136719 39.078125 29.902344 39.117188 30.84375 C 39.121094 30.867188 39.121094 30.890625 39.121094 30.914062 Z M 39.121094 46.472656 L 39.121094 46.484375 L 39.117188 46.484375 L 39.117188 46.398438 C 39.121094 46.421875 39.121094 46.449219 39.121094 46.472656 Z M 35.386719 46.402344 L 35.386719 46.484375 L 35.375 46.484375 L 35.375 46.472656 C 35.375 46.449219 35.375 46.425781 35.378906 46.402344 Z M 37.25 44.25 C 36.054688 44.253906 35.089844 45.210938 35.085938 46.398438 L 35.085938 53.101562 L 39.410156 53.101562 L 39.410156 46.398438 C 39.40625 45.214844 38.441406 44.253906 37.25 44.25 Z M 37.109375 52.777344 L 35.386719 52.777344 L 35.386719 50.855469 L 37.109375 50.855469 Z M 37.109375 50.703125 L 35.386719 50.703125 L 35.386719 48.832031 L 37.109375 48.832031 Z M 37.109375 48.554688 L 35.386719 48.554688 L 35.386719 46.636719 L 37.109375 46.636719 Z M 37.109375 46.484375 L 35.375 46.484375 L 35.375 46.472656 C 35.375 46.449219 35.375 46.425781 35.378906 46.402344 C 35.414062 45.457031 36.160156 44.6875 37.109375 44.617188 Z M 39.117188 52.773438 L 37.386719 52.777344 L 37.386719 50.855469 L 39.117188 50.855469 Z M 39.117188 50.703125 L 37.386719 50.703125 L 37.386719 48.832031 L 39.117188 48.832031 Z M 39.117188 48.554688 L 37.386719 48.554688 L 37.386719 46.636719 L 39.117188 46.636719 Z M 39.121094 46.484375 L 37.386719 46.484375 L 37.386719 44.617188 C 38.335938 44.691406 39.078125 45.457031 39.117188 46.398438 C 39.121094 46.421875 39.121094 46.445312 39.121094 46.46875 Z M 37.386719 44.414062 L 37.386719 44.617188 C 37.339844 44.613281 37.292969 44.613281 37.25 44.613281 C 37.203125 44.613281 37.15625 44.613281 37.109375 44.617188 L 37.109375 44.414062 Z M 37.386719 44.414062 L 37.386719 44.617188 C 37.339844 44.613281 37.292969 44.613281 37.25 44.613281 C 37.203125 44.613281 37.15625 44.613281 37.109375 44.617188 L 37.109375 44.414062 Z M 23.84375 54.40625 L 23.84375 54.523438 L 23.828125 54.523438 L 23.828125 54.5 C 23.828125 54.46875 23.828125 54.4375 23.828125 54.40625 Z M 26.519531 51.3125 C 24.804688 51.316406 23.414062 52.695312 23.410156 54.398438 L 23.410156 64.035156 L 29.625 64.035156 L 29.625 54.398438 C 29.621094 52.695312 28.230469 51.316406 26.515625 51.3125 Z M 26.316406 57.898438 L 26.316406 60.585938 L 23.839844 60.585938 L 23.839844 57.898438 Z M 23.84375 57.5 L 23.84375 54.742188 L 26.316406 54.742188 L 26.316406 57.5 Z M 23.828125 54.5 C 23.828125 54.46875 23.828125 54.4375 23.832031 54.40625 C 23.882812 53.046875 24.953125 51.945312 26.316406 51.84375 L 26.316406 54.523438 L 23.828125 54.523438 Z M 23.84375 60.800781 L 26.316406 60.800781 L 26.316406 63.566406 L 23.839844 63.566406 Z M 29.207031 63.5625 L 26.71875 63.566406 L 26.71875 60.800781 L 29.207031 60.800781 Z M 29.207031 60.585938 L 26.71875 60.585938 L 26.71875 57.898438 L 29.207031 57.898438 Z M 29.207031 57.5 L 26.71875 57.5 L 26.71875 54.742188 L 29.207031 54.742188 Z M 29.207031 54.523438 L 26.71875 54.523438 L 26.71875 51.84375 C 28.117188 51.949219 29.203125 53.105469 29.207031 54.5 Z M 47.976562 51.3125 C 46.265625 51.316406 44.875 52.695312 44.871094 54.398438 L 44.871094 64.035156 L 51.085938 64.035156 L 51.085938 54.398438 C 51.082031 52.695312 49.691406 51.316406 47.976562 51.3125 Z M 47.777344 63.566406 L 45.300781 63.566406 L 45.300781 60.800781 L 47.777344 60.800781 Z M 47.777344 60.585938 L 45.300781 60.585938 L 45.300781 57.898438 L 47.777344 57.898438 Z M 47.777344 57.5 L 45.300781 57.5 L 45.300781 54.742188 L 47.777344 54.742188 Z M 47.777344 54.523438 L 45.300781 54.523438 L 45.300781 54.40625 L 45.289062 54.40625 C 45.34375 53.046875 46.410156 51.945312 47.777344 51.84375 Z M 50.667969 63.5625 L 48.179688 63.566406 L 48.179688 60.800781 L 50.667969 60.800781 Z M 50.667969 60.585938 L 48.179688 60.585938 L 48.179688 57.898438 L 50.667969 57.898438 Z M 50.667969 57.5 L 48.179688 57.5 L 48.179688 54.742188 L 50.667969 54.742188 Z M 50.667969 54.523438 L 48.179688 54.523438 L 48.179688 51.84375 C 49.578125 51.949219 50.664062 53.105469 50.667969 54.5 Z M 50.667969 54.523438 " fill-opacity="1" fill-rule="nonzero"/><g clip-path="url(#bf1064748e)"><path fill="#dbbf97" d="M 55.25 51.785156 L 53.542969 51.785156 L 42.492188 41.78125 L 32.003906 41.78125 L 20.949219 51.785156 L 19.246094 51.785156 L 31.046875 41.1875 L 31.03125 41.1875 L 31.753906 39.574219 L 42.742188 39.574219 L 43.460938 41.1875 L 43.445312 41.1875 Z M 41.332031 25.34375 L 37.246094 5.644531 L 33.164062 25.34375 Z M 41.332031 25.34375 " fill-opacity="1" fill-rule="evenodd"/></g><path fill="#f7ece1" d="M 36.863281 64.457031 L 36.507812 64.457031 L 36.507812 63.394531 L 36.863281 63.394531 Z M 38.199219 63.394531 L 37.84375 63.394531 L 37.84375 64.457031 L 38.199219 64.457031 Z M 38.199219 63.394531 " fill-opacity="1" fill-rule="evenodd"/><path fill="#f7ece1" d="M 31.753906 25.46875 L 33.585938 25.46875 L 33.585938 70.367188 L 31.753906 70.367188 Z M 40.910156 25.46875 L 42.742188 25.46875 L 42.742188 70.367188 L 40.910156 70.367188 Z M 40.910156 25.46875 " fill-opacity="1" fill-rule="evenodd"/><path fill="#f7ece1" d="M 31.320312 25.167969 L 43.175781 25.167969 L 43.175781 28.070312 L 31.320312 28.070312 Z M 31.320312 25.167969 " fill-opacity="1" fill-rule="nonzero"/><g clip-path="url(#f826d70c0f)"><path fill="#f7ece1" d="M 37.003906 2.277344 L 37.492188 2.277344 L 37.492188 6.84375 L 37.003906 6.84375 Z M 37.003906 2.277344 " fill-opacity="1" fill-rule="nonzero"/></g><path fill="#f7ece1" d="M 35.351562 3.339844 L 39.152344 3.339844 L 39.152344 3.824219 L 35.351562 3.824219 Z M 35.351562 3.339844 " fill-opacity="1" fill-rule="nonzero"/></svg>