<svg xmlns="http://www.w3.org/2000/svg" xmlns:xlink="http://www.w3.org/1999/xlink" width="100" zoomAndPan="magnify" viewBox="0 0 75 74.999997" height="100" preserveAspectRatio="xMidYMid meet" version="1.0"><defs><clipPath id="afff10a0ca"><path d="M 36 9 L 60.273438 9 L 60.273438 66 L 36 66 Z M 36 9 " clip-rule="nonzero"/></clipPath><clipPath id="87fa58fc4e"><path d="M 13.773438 15 L 38 15 L 38 71.433594 L 13.773438 71.433594 Z M 13.773438 15 " clip-rule="nonzero"/></clipPath><clipPath id="502e5cc90c"><path d="M 31 1.683594 L 42 1.683594 L 42 13 L 31 13 Z M 31 1.683594 " clip-rule="nonzero"/></clipPath></defs><g clip-path="url(#afff10a0ca)"><path fill="#f4eadc" d="M 55.054688 61.222656 C 54.339844 61.160156 53.460938 60.652344 53.21875 59.308594 L 50.191406 43.363281 C 51.191406 42.445312 52.683594 40.921875 53.574219 39.273438 C 54.054688 38.488281 54.324219 37.640625 54.332031 36.785156 C 54.335938 36.636719 54.328125 36.488281 54.3125 36.34375 C 54.304688 36.25 54.292969 36.15625 54.277344 36.066406 C 53.835938 33.421875 46.988281 12.214844 46.324219 10.160156 C 46.359375 10.121094 46.378906 10.097656 46.386719 10.085938 C 46.433594 10.027344 46.425781 9.9375 46.363281 9.890625 C 46.304688 9.84375 46.214844 9.851562 46.164062 9.910156 C 46.164062 9.914062 46.121094 9.964844 46.046875 10.050781 L 41.566406 11.0625 L 41.433594 11.09375 L 36.960938 12.101562 C 36.855469 12.058594 36.796875 12.03125 36.792969 12.027344 C 36.722656 11.996094 36.636719 12.023438 36.605469 12.09375 C 36.570312 12.164062 36.601562 12.246094 36.671875 12.28125 C 36.679688 12.285156 36.707031 12.296875 36.75 12.316406 C 37.039062 14.425781 40.085938 36.523438 40.835938 39.101562 C 40.863281 39.191406 40.894531 39.277344 40.925781 39.363281 C 40.972656 39.503906 41.035156 39.640625 41.101562 39.773438 C 41.480469 40.539062 42.09375 41.191406 42.863281 41.691406 C 44.398438 42.804688 46.421875 43.539062 47.722656 43.9375 L 51.917969 59.601562 C 52.210938 60.648438 51.90625 61.390625 51.460938 61.832031 C 49.6875 62.800781 46.746094 64.609375 46.851562 65.863281 L 60.269531 62.835938 C 59.871094 61.78125 57.085938 61.378906 55.054688 61.222656 Z M 55.054688 61.222656 " fill-opacity="1" fill-rule="nonzero"/></g><g clip-path="url(#87fa58fc4e)"><path fill="#f4eadc" d="M 37.4375 17.660156 C 37.402344 17.589844 37.320312 17.5625 37.25 17.59375 C 37.246094 17.597656 37.1875 17.625 37.082031 17.667969 L 32.605469 16.660156 L 32.476562 16.628906 L 27.996094 15.617188 C 27.953125 15.566406 27.878906 15.480469 27.875 15.476562 C 27.828125 15.417969 27.738281 15.410156 27.679688 15.457031 C 27.617188 15.503906 27.605469 15.59375 27.65625 15.652344 C 27.664062 15.660156 27.683594 15.6875 27.71875 15.726562 C 27.703125 15.769531 27.683594 15.828125 27.664062 15.890625 C 26.757812 18.695312 20.199219 39.046875 19.765625 41.632812 C 19.75 41.722656 19.738281 41.816406 19.726562 41.910156 C 19.710938 42.054688 19.707031 42.203125 19.710938 42.351562 C 19.71875 43.207031 19.988281 44.054688 20.464844 44.839844 C 21.359375 46.488281 22.851562 48.011719 23.851562 48.929688 L 20.820312 64.875 C 20.582031 66.21875 19.703125 66.726562 18.988281 66.789062 C 16.957031 66.945312 14.171875 67.347656 13.773438 68.402344 L 27.1875 71.429688 C 27.296875 70.175781 24.355469 68.367188 22.582031 67.398438 C 22.136719 66.957031 21.832031 66.214844 22.125 65.167969 L 26.320312 49.503906 C 27.621094 49.105469 29.644531 48.371094 31.179688 47.257812 C 31.949219 46.757812 32.5625 46.105469 32.941406 45.339844 C 33.007812 45.207031 33.066406 45.070312 33.117188 44.929688 C 33.148438 44.84375 33.179688 44.757812 33.203125 44.667969 C 33.921875 42.195312 36.753906 21.78125 37.242188 18.246094 L 37.242188 18.242188 C 37.265625 18.09375 37.28125 17.96875 37.292969 17.882812 C 37.335938 17.863281 37.363281 17.851562 37.371094 17.847656 C 37.441406 17.8125 37.472656 17.730469 37.4375 17.660156 Z M 37.4375 17.660156 " fill-opacity="1" fill-rule="nonzero"/></g><path fill="#dbbf97" d="M 32.347656 26.105469 C 29.75 26.171875 26.160156 24.042969 25.859375 23.863281 C 22.59375 34.128906 20.683594 40.476562 20.46875 41.75 C 20.457031 41.824219 20.445312 41.898438 20.4375 41.992188 C 20.425781 42.105469 20.421875 42.222656 20.421875 42.355469 C 20.429688 43.066406 20.65625 43.808594 21.082031 44.503906 L 21.097656 44.535156 C 21.933594 46.074219 23.328125 47.515625 24.355469 48.457031 C 24.582031 48.671875 24.890625 48.832031 25.222656 48.90625 C 25.542969 48.980469 25.875 48.96875 26.167969 48.875 C 27.503906 48.46875 29.394531 47.765625 30.828125 46.730469 L 30.839844 46.71875 L 30.855469 46.710938 C 31.539062 46.265625 32.066406 45.695312 32.386719 45.050781 C 32.441406 44.9375 32.488281 44.828125 32.53125 44.714844 C 32.558594 44.636719 32.582031 44.5625 32.605469 44.492188 C 32.964844 43.253906 34.316406 34.5625 35.832031 23.925781 C 35.632812 24.300781 34.585938 26.046875 32.347656 26.105469 Z M 23.644531 39.414062 C 23.234375 39.414062 23.238281 38.785156 23.644531 38.785156 C 24.054688 38.785156 24.050781 39.414062 23.644531 39.414062 Z M 24.023438 38 C 23.613281 38 23.613281 37.367188 24.023438 37.367188 C 24.429688 37.367188 24.429688 38 24.023438 38 Z M 24.753906 34.917969 C 24.347656 34.917969 24.347656 34.285156 24.753906 34.285156 C 25.164062 34.285156 25.164062 34.917969 24.753906 34.917969 Z M 25.710938 43.8125 C 25.304688 43.8125 25.304688 43.183594 25.710938 43.183594 C 26.121094 43.183594 26.121094 43.8125 25.710938 43.8125 Z M 26.039062 42.664062 C 25.628906 42.664062 25.632812 42.03125 26.039062 42.03125 C 26.449219 42.03125 26.445312 42.664062 26.039062 42.664062 Z M 32.71875 31.847656 L 29.726562 45.121094 C 29.710938 45.1875 29.652344 45.230469 29.585938 45.230469 C 29.578125 45.230469 29.566406 45.230469 29.558594 45.226562 C 29.480469 45.210938 29.433594 45.136719 29.449219 45.0625 L 32.441406 31.785156 C 32.460938 31.710938 32.535156 31.664062 32.609375 31.679688 C 32.6875 31.699219 32.734375 31.773438 32.71875 31.847656 Z M 35.84375 23.851562 C 35.84375 23.851562 35.84375 23.855469 35.84375 23.855469 L 30.84375 23.851562 Z M 52.941406 38.96875 L 52.949219 38.953125 L 52.960938 38.9375 C 53.382812 38.242188 53.613281 37.5 53.617188 36.789062 C 53.621094 36.65625 53.617188 36.535156 53.605469 36.425781 C 53.59375 36.332031 53.585938 36.257812 53.574219 36.183594 C 53.359375 34.910156 51.445312 28.5625 48.179688 18.296875 C 47.878906 18.476562 44.292969 20.605469 41.695312 20.539062 C 39.457031 20.480469 38.40625 18.734375 38.210938 18.359375 C 39.722656 28.996094 41.078125 37.683594 41.4375 38.925781 C 41.457031 38.996094 41.480469 39.066406 41.511719 39.148438 C 41.550781 39.261719 41.597656 39.371094 41.65625 39.484375 C 41.976562 40.128906 42.503906 40.699219 43.1875 41.144531 L 43.199219 41.152344 L 43.214844 41.164062 C 44.644531 42.199219 46.539062 42.902344 47.875 43.308594 C 48.167969 43.402344 48.496094 43.414062 48.816406 43.339844 C 49.148438 43.265625 49.457031 43.105469 49.683594 42.890625 C 50.714844 41.949219 52.109375 40.507812 52.941406 38.96875 Z M 41.921875 29.136719 C 41.515625 29.136719 41.515625 28.503906 41.921875 28.503906 C 42.332031 28.503906 42.332031 29.136719 41.921875 29.136719 Z M 42.628906 31.691406 C 43.035156 31.691406 43.035156 32.320312 42.628906 32.320312 C 42.21875 32.320312 42.21875 31.691406 42.628906 31.691406 Z M 42.914062 33.804688 C 42.507812 33.804688 42.507812 33.171875 42.914062 33.171875 C 43.324219 33.171875 43.324219 33.804688 42.914062 33.804688 Z M 46.582031 35.132812 C 46.992188 35.132812 46.992188 35.761719 46.582031 35.761719 C 46.175781 35.761719 46.175781 35.132812 46.582031 35.132812 Z M 46.796875 36.976562 C 46.390625 36.976562 46.390625 36.347656 46.796875 36.347656 C 47.207031 36.347656 47.207031 36.976562 46.796875 36.976562 Z M 47.765625 22.816406 C 47.746094 22.742188 47.792969 22.664062 47.867188 22.648438 C 47.945312 22.632812 48.019531 22.675781 48.039062 22.753906 L 51.230469 36.402344 C 51.25 36.476562 51.203125 36.550781 51.125 36.570312 C 51.113281 36.570312 51.105469 36.574219 51.09375 36.574219 C 51.03125 36.574219 50.972656 36.527344 50.957031 36.464844 Z M 43.199219 18.285156 L 38.199219 18.289062 C 38.199219 18.289062 38.199219 18.285156 38.199219 18.285156 Z M 43.199219 18.285156 " fill-opacity="1" fill-rule="nonzero"/><path fill="#8aaeb7" d="M 30.84375 23.851562 L 35.84375 23.855469 L 35.867188 23.855469 C 35.867188 23.855469 35.855469 23.882812 35.832031 23.925781 C 35.632812 24.300781 34.585938 26.046875 32.347656 26.105469 C 29.75 26.171875 26.160156 24.042969 25.859375 23.863281 C 25.847656 23.855469 25.835938 23.847656 25.835938 23.847656 Z M 37.25 17.59375 C 37.246094 17.597656 37.1875 17.625 37.082031 17.667969 C 36.449219 17.9375 34.140625 18.828125 32.140625 18.378906 C 30.144531 17.925781 28.449219 16.132812 27.996094 15.617188 C 27.921875 15.53125 27.878906 15.480469 27.875 15.476562 C 27.828125 15.417969 27.738281 15.410156 27.679688 15.457031 C 27.617188 15.503906 27.605469 15.59375 27.65625 15.652344 C 27.664062 15.660156 27.683594 15.6875 27.71875 15.726562 C 28.070312 16.144531 29.863281 18.152344 32.078125 18.652344 C 32.5 18.746094 32.929688 18.785156 33.355469 18.785156 C 35.179688 18.785156 36.902344 18.058594 37.292969 17.882812 C 37.335938 17.863281 37.363281 17.851562 37.371094 17.847656 C 37.441406 17.8125 37.472656 17.730469 37.4375 17.660156 C 37.402344 17.589844 37.320312 17.5625 37.25 17.59375 Z M 41.695312 20.539062 C 44.292969 20.605469 47.882812 18.476562 48.183594 18.296875 C 48.195312 18.289062 48.203125 18.28125 48.203125 18.28125 L 43.199219 18.285156 L 38.199219 18.289062 L 38.171875 18.289062 C 38.171875 18.289062 38.1875 18.316406 38.210938 18.359375 C 38.410156 18.734375 39.457031 20.480469 41.695312 20.539062 Z M 41.960938 13.085938 C 44.179688 12.585938 45.972656 10.578125 46.324219 10.160156 C 46.359375 10.121094 46.378906 10.097656 46.386719 10.085938 C 46.433594 10.027344 46.425781 9.9375 46.363281 9.890625 C 46.304688 9.84375 46.214844 9.851562 46.164062 9.910156 C 46.164062 9.914062 46.121094 9.964844 46.046875 10.050781 C 45.59375 10.566406 43.898438 12.359375 41.898438 12.8125 C 39.902344 13.261719 37.59375 12.371094 36.960938 12.101562 C 36.855469 12.058594 36.796875 12.03125 36.792969 12.027344 C 36.722656 11.996094 36.636719 12.023438 36.605469 12.09375 C 36.570312 12.164062 36.601562 12.246094 36.671875 12.28125 C 36.679688 12.285156 36.707031 12.296875 36.75 12.316406 C 37.140625 12.492188 38.859375 13.21875 40.683594 13.21875 C 41.109375 13.21875 41.542969 13.179688 41.960938 13.085938 Z M 41.960938 13.085938 " fill-opacity="1" fill-rule="nonzero"/><g clip-path="url(#502e5cc90c)"><path fill="#e2b96a" d="M 33.191406 10.363281 L 31.242188 10 L 33.191406 9.636719 L 33.554688 7.703125 L 33.921875 9.636719 L 35.867188 10 L 33.921875 10.363281 L 33.554688 12.296875 Z M 37.609375 8.875 L 38.179688 5.847656 L 41.222656 5.28125 L 38.179688 4.714844 L 37.609375 1.691406 L 37.042969 4.714844 L 33.996094 5.28125 L 37.042969 5.847656 Z M 37.609375 8.875 " fill-opacity="1" fill-rule="nonzero"/></g></svg>