<svg xmlns="http://www.w3.org/2000/svg" xmlns:xlink="http://www.w3.org/1999/xlink" width="200" zoomAndPan="magnify" viewBox="0 0 150 30.000001" height="40" preserveAspectRatio="xMidYMid meet" version="1.0"><defs><clipPath id="0755bd1f27"><path d="M 119 17 L 139 17 L 139 27 L 119 27 Z M 119 17 " clip-rule="nonzero"/></clipPath><clipPath id="b34c6e799e"><path d="M 135.46875 34.03125 L 69.664062 16.75 L 74.875 -3.082031 L 140.675781 14.199219 Z M 135.46875 34.03125 " clip-rule="nonzero"/></clipPath><clipPath id="9622f0bd4c"><path d="M 135.46875 34.03125 L 69.664062 16.75 L 74.875 -3.082031 L 140.675781 14.199219 Z M 135.46875 34.03125 " clip-rule="nonzero"/></clipPath><clipPath id="e14abd4604"><path d="M 132 19 L 138 19 L 138 21 L 132 21 Z M 132 19 " clip-rule="nonzero"/></clipPath><clipPath id="a035752e94"><path d="M 135.46875 34.03125 L 69.664062 16.75 L 74.875 -3.082031 L 140.675781 14.199219 Z M 135.46875 34.03125 " clip-rule="nonzero"/></clipPath><clipPath id="153a45b954"><path d="M 135.46875 34.03125 L 69.664062 16.75 L 74.875 -3.082031 L 140.675781 14.199219 Z M 135.46875 34.03125 " clip-rule="nonzero"/></clipPath><clipPath id="b3d0a1dbf2"><path d="M 124 16 L 137 16 L 137 21 L 124 21 Z M 124 16 " clip-rule="nonzero"/></clipPath><clipPath id="bd436cf379"><path d="M 135.46875 34.03125 L 69.664062 16.75 L 74.875 -3.082031 L 140.675781 14.199219 Z M 135.46875 34.03125 " clip-rule="nonzero"/></clipPath><clipPath id="ea293402bc"><path d="M 135.46875 34.03125 L 69.664062 16.75 L 74.875 -3.082031 L 140.675781 14.199219 Z M 135.46875 34.03125 " clip-rule="nonzero"/></clipPath><clipPath id="b9abae4376"><path d="M 70 6 L 127 6 L 127 28 L 70 28 Z M 70 6 " clip-rule="nonzero"/></clipPath><clipPath id="b0d3124a38"><path d="M 135.46875 34.03125 L 69.664062 16.75 L 74.875 -3.082031 L 140.675781 14.199219 Z M 135.46875 34.03125 " clip-rule="nonzero"/></clipPath><clipPath id="afb468d6b4"><path d="M 135.46875 34.03125 L 69.664062 16.75 L 74.875 -3.082031 L 140.675781 14.199219 Z M 135.46875 34.03125 " clip-rule="nonzero"/></clipPath><clipPath id="f90c6a6657"><path d="M 107 15 L 109 15 L 109 17 L 107 17 Z M 107 15 " clip-rule="nonzero"/></clipPath><clipPath id="525d929f32"><path d="M 135.46875 34.03125 L 69.664062 16.75 L 74.875 -3.082031 L 140.675781 14.199219 Z M 135.46875 34.03125 " clip-rule="nonzero"/></clipPath><clipPath id="7a81cf0c80"><path d="M 135.46875 34.03125 L 69.664062 16.75 L 74.875 -3.082031 L 140.675781 14.199219 Z M 135.46875 34.03125 " clip-rule="nonzero"/></clipPath><clipPath id="d123104f00"><path d="M 96 15 L 98 15 L 98 17 L 96 17 Z M 96 15 " clip-rule="nonzero"/></clipPath><clipPath id="547882a20e"><path d="M 135.46875 34.03125 L 69.664062 16.75 L 74.875 -3.082031 L 140.675781 14.199219 Z M 135.46875 34.03125 " clip-rule="nonzero"/></clipPath><clipPath id="c12aa0b2ac"><path d="M 135.46875 34.03125 L 69.664062 16.75 L 74.875 -3.082031 L 140.675781 14.199219 Z M 135.46875 34.03125 " clip-rule="nonzero"/></clipPath><clipPath id="69865e6b36"><path d="M 123 17 L 125 17 L 125 18 L 123 18 Z M 123 17 " clip-rule="nonzero"/></clipPath><clipPath id="8dee21a982"><path d="M 135.46875 34.03125 L 69.664062 16.75 L 74.875 -3.082031 L 140.675781 14.199219 Z M 135.46875 34.03125 " clip-rule="nonzero"/></clipPath><clipPath id="1189a30fe3"><path d="M 135.46875 34.03125 L 69.664062 16.75 L 74.875 -3.082031 L 140.675781 14.199219 Z M 135.46875 34.03125 " clip-rule="nonzero"/></clipPath><clipPath id="4b18470b1f"><path d="M 7 5 L 28 5 L 28 15 L 7 15 Z M 7 5 " clip-rule="nonzero"/></clipPath><clipPath id="b2271592d8"><path d="M 10.777344 -2.78125 L 78.382812 14.976562 L 72.9375 35.707031 L 5.332031 17.953125 Z M 10.777344 -2.78125 " clip-rule="nonzero"/></clipPath><clipPath id="ede5eccb8e"><path d="M 10.777344 -2.78125 L 78.382812 14.976562 L 72.9375 35.707031 L 5.332031 17.953125 Z M 10.777344 -2.78125 " clip-rule="nonzero"/></clipPath><clipPath id="af8089d4e0"><path d="M 8 10 L 14 10 L 14 13 L 8 13 Z M 8 10 " clip-rule="nonzero"/></clipPath><clipPath id="024fcbc265"><path d="M 10.777344 -2.78125 L 78.382812 14.976562 L 72.9375 35.707031 L 5.332031 17.953125 Z M 10.777344 -2.78125 " clip-rule="nonzero"/></clipPath><clipPath id="9c1d2d0f4b"><path d="M 10.777344 -2.78125 L 78.382812 14.976562 L 72.9375 35.707031 L 5.332031 17.953125 Z M 10.777344 -2.78125 " clip-rule="nonzero"/></clipPath><clipPath id="54a3d01947"><path d="M 9 11 L 23 11 L 23 16 L 9 16 Z M 9 11 " clip-rule="nonzero"/></clipPath><clipPath id="3632f6e392"><path d="M 10.777344 -2.78125 L 78.382812 14.976562 L 72.9375 35.707031 L 5.332031 17.953125 Z M 10.777344 -2.78125 " clip-rule="nonzero"/></clipPath><clipPath id="fd655e87f5"><path d="M 10.777344 -2.78125 L 78.382812 14.976562 L 72.9375 35.707031 L 5.332031 17.953125 Z M 10.777344 -2.78125 " clip-rule="nonzero"/></clipPath><clipPath id="6a2c9dcf0a"><path d="M 19 3 L 78 3 L 78 26 L 19 26 Z M 19 3 " clip-rule="nonzero"/></clipPath><clipPath id="b356a9bf39"><path d="M 10.777344 -2.78125 L 78.382812 14.976562 L 72.9375 35.707031 L 5.332031 17.953125 Z M 10.777344 -2.78125 " clip-rule="nonzero"/></clipPath><clipPath id="06e380fe8b"><path d="M 10.777344 -2.78125 L 78.382812 14.976562 L 72.9375 35.707031 L 5.332031 17.953125 Z M 10.777344 -2.78125 " clip-rule="nonzero"/></clipPath><clipPath id="47c91cf9c7"><path d="M 38 15 L 40 15 L 40 17 L 38 17 Z M 38 15 " clip-rule="nonzero"/></clipPath><clipPath id="ad62a38ddb"><path d="M 10.777344 -2.78125 L 78.382812 14.976562 L 72.9375 35.707031 L 5.332031 17.953125 Z M 10.777344 -2.78125 " clip-rule="nonzero"/></clipPath><clipPath id="51780f6ff2"><path d="M 10.777344 -2.78125 L 78.382812 14.976562 L 72.9375 35.707031 L 5.332031 17.953125 Z M 10.777344 -2.78125 " clip-rule="nonzero"/></clipPath><clipPath id="b45170fce5"><path d="M 49 14 L 51 14 L 51 16 L 49 16 Z M 49 14 " clip-rule="nonzero"/></clipPath><clipPath id="8a7df8c242"><path d="M 10.777344 -2.78125 L 78.382812 14.976562 L 72.9375 35.707031 L 5.332031 17.953125 Z M 10.777344 -2.78125 " clip-rule="nonzero"/></clipPath><clipPath id="d4c1a3869e"><path d="M 10.777344 -2.78125 L 78.382812 14.976562 L 72.9375 35.707031 L 5.332031 17.953125 Z M 10.777344 -2.78125 " clip-rule="nonzero"/></clipPath><clipPath id="4c0ebc33b6"><path d="M 22 13 L 23 13 L 23 15 L 22 15 Z M 22 13 " clip-rule="nonzero"/></clipPath><clipPath id="ab21377431"><path d="M 10.777344 -2.78125 L 78.382812 14.976562 L 72.9375 35.707031 L 5.332031 17.953125 Z M 10.777344 -2.78125 " clip-rule="nonzero"/></clipPath><clipPath id="8a77f03e45"><path d="M 10.777344 -2.78125 L 78.382812 14.976562 L 72.9375 35.707031 L 5.332031 17.953125 Z M 10.777344 -2.78125 " clip-rule="nonzero"/></clipPath></defs><g clip-path="url(#0755bd1f27)"><g clip-path="url(#b34c6e799e)"><g clip-path="url(#9622f0bd4c)"><path fill="#dbbf97" d="M 130.632812 21.390625 C 129.273438 21.296875 127.921875 20.972656 126.773438 20.222656 C 126.230469 19.863281 125.734375 19.445312 125.199219 19.082031 C 124.671875 18.730469 124.121094 18.433594 123.539062 18.183594 C 122.222656 17.617188 120.847656 17.332031 119.414062 17.332031 C 119.402344 17.328125 119.296875 17.335938 119.320312 17.378906 C 119.546875 17.785156 119.824219 18.160156 120.152344 18.503906 C 120.191406 18.542969 120.234375 18.582031 120.277344 18.617188 C 120.539062 18.855469 120.820312 19.066406 121.125 19.25 C 121.488281 19.46875 121.871094 19.664062 122.238281 19.878906 C 122.675781 20.128906 123.097656 20.410156 123.507812 20.703125 C 125.140625 21.859375 126.597656 23.238281 128.199219 24.4375 C 129.105469 25.113281 130.089844 25.84375 131.214844 26.105469 C 131.234375 26.113281 131.417969 26.097656 131.351562 26.054688 C 129.757812 24.992188 128.878906 23.273438 127.683594 21.835938 C 127.382812 21.460938 127.039062 21.132812 126.644531 20.851562 C 126.21875 20.578125 125.765625 20.363281 125.28125 20.203125 C 124.265625 19.84375 123.214844 19.539062 122.164062 19.273438 C 121.597656 19.125 120.996094 19.015625 120.523438 18.636719 C 120.492188 18.613281 120.464844 18.585938 120.433594 18.5625 C 120.148438 18.296875 119.945312 17.980469 119.828125 17.609375 C 119.816406 17.570312 119.714844 17.566406 119.660156 17.585938 L 119.550781 17.410156 C 120.230469 17.421875 120.90625 17.5 121.574219 17.648438 C 121.492188 17.664062 121.414062 17.695312 121.347656 17.742188 C 121.28125 17.789062 121.226562 17.851562 121.1875 17.925781 C 121.148438 17.996094 121.128906 18.074219 121.128906 18.15625 C 121.125 18.238281 121.140625 18.320312 121.175781 18.394531 C 121.210938 18.46875 121.261719 18.535156 121.324219 18.585938 C 121.390625 18.640625 121.464844 18.675781 121.546875 18.695312 C 121.625 18.714844 121.707031 18.71875 121.789062 18.699219 C 121.871094 18.683594 121.945312 18.648438 122.011719 18.597656 C 122.078125 18.546875 122.128906 18.484375 122.164062 18.410156 C 122.199219 18.335938 122.21875 18.257812 122.214844 18.175781 C 122.214844 18.089844 122.195312 18.011719 122.15625 17.9375 C 122.121094 17.867188 122.066406 17.804688 122 17.753906 C 122.429688 17.867188 122.851562 18.007812 123.265625 18.179688 C 123.867188 18.425781 124.433594 18.730469 124.976562 19.085938 C 125.523438 19.449219 126.019531 19.875 126.574219 20.242188 C 128.757812 21.6875 131.5 21.570312 133.996094 21.371094 C 135.488281 21.25 136.988281 21.109375 138.492188 21.289062 C 138.519531 21.296875 138.679688 21.265625 138.585938 21.226562 L 137.640625 20.964844 C 137.832031 21.035156 138.019531 21.109375 138.210938 21.183594 C 135.679688 20.964844 133.164062 21.5625 130.632812 21.390625 Z M 121.371094 19.160156 C 121.886719 19.304688 122.402344 19.417969 122.914062 19.5625 C 123.46875 19.71875 124.019531 19.886719 124.5625 20.066406 C 125.074219 20.21875 125.566406 20.410156 126.046875 20.644531 C 126.515625 20.890625 126.929688 21.214844 127.28125 21.609375 C 127.925781 22.328125 128.441406 23.132812 129.011719 23.894531 C 129.585938 24.660156 130.203125 25.382812 130.976562 25.949219 C 130.101562 25.65625 129.308594 25.082031 128.574219 24.542969 C 127.78125 23.960938 127.027344 23.335938 126.273438 22.710938 C 125.519531 22.085938 124.78125 21.46875 124.003906 20.886719 C 123.253906 20.347656 122.476562 19.859375 121.667969 19.414062 C 121.472656 19.304688 121.273438 19.1875 121.082031 19.0625 C 121.171875 19.097656 121.269531 19.128906 121.371094 19.160156 Z M 121.371094 19.160156 " fill-opacity="1" fill-rule="nonzero"/></g></g></g><g clip-path="url(#e14abd4604)"><g clip-path="url(#a035752e94)"><g clip-path="url(#153a45b954)"><path fill="#dbbf97" d="M 135.492188 20.234375 C 134.515625 19.953125 133.527344 19.726562 132.527344 19.554688 L 137.640625 20.964844 C 136.929688 20.699219 136.214844 20.453125 135.492188 20.234375 Z M 135.492188 20.234375 " fill-opacity="1" fill-rule="nonzero"/></g></g></g><g clip-path="url(#b3d0a1dbf2)"><g clip-path="url(#bd436cf379)"><g clip-path="url(#ea293402bc)"><path fill="#dbbf97" d="M 124.640625 18.589844 C 124.597656 18.578125 124.402344 18.609375 124.5 18.640625 L 128.789062 19.980469 C 129.460938 20.1875 130.128906 20.421875 130.816406 20.570312 C 131.445312 20.699219 132.078125 20.722656 132.710938 20.644531 C 133.460938 20.570312 134.207031 20.402344 134.96875 20.417969 C 135.085938 20.421875 135.085938 20.347656 134.964844 20.347656 C 133.65625 20.320312 132.386719 20.78125 131.078125 20.535156 C 130.378906 20.40625 129.703125 20.167969 129.027344 19.957031 L 126.980469 19.316406 L 125.378906 18.816406 C 125.980469 18.875 126.605469 18.832031 127.199219 18.855469 C 128.125 18.886719 129.0625 18.882812 129.972656 19.074219 C 130.800781 19.246094 131.664062 19.390625 132.527344 19.550781 L 131.230469 19.195312 C 131.316406 19.203125 131.402344 19.191406 131.484375 19.167969 C 131.550781 19.15625 131.613281 19.140625 131.679688 19.117188 C 132.484375 18.917969 133.183594 18.433594 133.929688 18.09375 C 134.835938 17.699219 135.761719 17.355469 136.707031 17.058594 C 136.835938 17.015625 136.671875 16.953125 136.605469 16.96875 C 135.351562 17.253906 134.09375 17.519531 132.847656 17.835938 C 132.261719 17.980469 131.6875 18.164062 131.125 18.378906 C 130.597656 18.585938 130.074219 18.847656 129.492188 18.847656 C 129.402344 18.847656 129.378906 18.90625 129.425781 18.933594 C 128.902344 18.878906 128.382812 18.839844 127.863281 18.808594 C 127.363281 18.78125 126.867188 18.761719 126.367188 18.757812 C 125.789062 18.753906 125.199219 18.78125 124.640625 18.589844 Z M 132.832031 17.960938 C 133.753906 17.71875 134.691406 17.511719 135.621094 17.300781 C 135.058594 17.5 134.5 17.707031 133.953125 17.945312 C 133.535156 18.128906 133.136719 18.339844 132.734375 18.550781 C 132.460938 18.703125 132.175781 18.832031 131.878906 18.9375 L 131.871094 18.925781 C 131.894531 18.917969 131.917969 18.910156 131.9375 18.902344 C 131.996094 18.878906 131.957031 18.832031 131.917969 18.820312 C 131.898438 18.8125 131.875 18.808594 131.851562 18.804688 L 131.988281 18.757812 C 132.0625 18.730469 132.039062 18.699219 131.992188 18.679688 C 132.015625 18.640625 131.90625 18.597656 131.847656 18.621094 L 131.839844 18.625 L 131.828125 18.621094 L 131.675781 18.667969 C 131.679688 18.652344 131.683594 18.644531 131.664062 18.636719 C 131.699219 18.601562 131.625 18.554688 131.566406 18.554688 L 131.59375 18.546875 C 131.65625 18.527344 131.652344 18.503906 131.621094 18.480469 C 131.667969 18.46875 131.675781 18.449219 131.664062 18.433594 L 131.707031 18.414062 C 131.796875 18.367188 131.660156 18.328125 131.585938 18.335938 C 132 18.199219 132.414062 18.070312 132.832031 17.960938 Z M 131.492188 18.375 L 131.335938 18.4375 Z M 130.597656 18.722656 Z M 130.417969 18.785156 C 130.398438 18.800781 130.410156 18.816406 130.421875 18.828125 L 130.261719 18.867188 L 130.246094 18.871094 L 130.199219 18.859375 C 130.183594 18.859375 130.164062 18.859375 130.148438 18.863281 L 130.136719 18.859375 C 130.234375 18.847656 130.324219 18.816406 130.417969 18.785156 Z M 130.417969 18.785156 " fill-opacity="1" fill-rule="nonzero"/></g></g></g><g clip-path="url(#b9abae4376)"><g clip-path="url(#b0d3124a38)"><g clip-path="url(#afb468d6b4)"><path fill="#dbbf97" d="M 70.179688 16.296875 C 72.671875 16.277344 75.148438 16.082031 77.605469 15.707031 C 77.75 15.683594 77.730469 15.578125 77.628906 15.546875 C 78.183594 15.609375 78.699219 15.792969 79.164062 16.097656 C 79.792969 16.5 80.300781 17.046875 80.828125 17.558594 C 81.894531 18.59375 83.050781 19.570312 84.359375 20.292969 C 85.007812 20.660156 85.691406 20.941406 86.40625 21.144531 C 86.570312 21.1875 86.730469 21.230469 86.898438 21.265625 C 87.027344 21.292969 87.195312 21.34375 87.324219 21.289062 C 87.566406 21.179688 87.386719 20.765625 87.320312 20.589844 C 86.820312 19.246094 85.402344 18.601562 84.269531 17.859375 C 83.929688 17.609375 83.574219 17.386719 83.203125 17.1875 C 82.8125 17 82.410156 16.964844 81.988281 16.914062 C 81.109375 16.804688 80.394531 16.222656 79.523438 16.082031 C 79.496094 16.082031 79.472656 16.085938 79.449219 16.09375 C 79.316406 16 79.175781 15.914062 79.03125 15.835938 C 78.457031 15.53125 77.847656 15.382812 77.199219 15.390625 L 77.324219 15.363281 L 78.117188 15.21875 L 81.117188 14.929688 C 81.152344 14.929688 81.183594 14.917969 81.210938 14.894531 L 83.375 14.597656 C 83.992188 14.722656 84.707031 14.871094 84.835938 14.9375 C 84.832031 14.949219 84.828125 14.960938 84.863281 14.980469 L 84.921875 15.003906 C 84.925781 15.011719 84.933594 15.015625 84.9375 15.019531 C 85.269531 15.210938 85.582031 15.425781 85.886719 15.65625 L 85.898438 15.671875 C 86.171875 15.945312 86.476562 16.175781 86.8125 16.367188 L 86.890625 16.40625 C 86.964844 16.457031 87.039062 16.507812 87.113281 16.558594 C 87.898438 17.074219 88.785156 17.339844 89.65625 17.664062 C 90.59375 18.015625 91.515625 18.417969 92.429688 18.832031 C 92.875 19.03125 93.3125 19.246094 93.769531 19.425781 C 94.214844 19.589844 94.667969 19.714844 95.132812 19.804688 C 96.222656 20.03125 97.238281 20.503906 98.328125 20.730469 C 98.363281 20.738281 98.503906 20.707031 98.441406 20.648438 C 97.636719 19.914062 96.84375 19.15625 96.019531 18.445312 C 95.25 17.78125 94.429688 17.253906 93.445312 16.972656 C 92.941406 16.832031 92.425781 16.730469 91.917969 16.621094 C 91.375 16.503906 90.832031 16.390625 90.289062 16.292969 C 89.238281 16.085938 88.179688 15.96875 87.109375 15.929688 C 86.941406 15.9375 86.773438 15.917969 86.609375 15.878906 C 86.453125 15.820312 86.320312 15.734375 86.203125 15.617188 C 86.019531 15.429688 85.824219 15.257812 85.617188 15.09375 C 85.195312 14.796875 84.726562 14.617188 84.210938 14.558594 L 83.878906 14.523438 L 84.3125 14.464844 L 84.96875 14.417969 C 84.984375 14.425781 85.003906 14.425781 85.023438 14.425781 C 86.039062 14.4375 87.050781 14.386719 88.058594 14.28125 C 88.164062 14.269531 88.183594 14.21875 88.15625 14.179688 L 88.527344 14.175781 C 89.386719 14.339844 90.25 14.417969 91.121094 14.40625 C 92.25 14.5 93.375 14.558594 94.507812 14.578125 C 95.601562 14.691406 96.617188 15.027344 97.5625 15.589844 C 98.03125 15.859375 98.457031 16.183594 98.835938 16.5625 C 99.199219 16.953125 99.214844 17.445312 99.261719 17.941406 C 99.328125 18.449219 99.453125 18.941406 99.636719 19.417969 C 99.785156 19.90625 100 20.363281 100.277344 20.789062 C 100.863281 21.605469 101.832031 22 102.65625 22.53125 C 103.695312 23.195312 104.492188 24.144531 105.277344 25.078125 C 105.320312 25.132812 105.496094 25.117188 105.460938 25.023438 C 104.914062 23.652344 104.683594 22.199219 104.320312 20.78125 C 104.152344 20.132812 103.984375 19.449219 103.625 18.875 C 103.480469 18.632812 103.292969 18.421875 103.0625 18.253906 C 102.765625 18.0625 102.445312 17.929688 102.101562 17.855469 C 101.207031 17.621094 100.3125 17.386719 99.417969 17.152344 C 99.40625 17.148438 99.390625 17.148438 99.375 17.152344 C 99.324219 16.929688 99.226562 16.730469 99.078125 16.550781 C 98.71875 16.164062 98.304688 15.835938 97.84375 15.566406 C 97.101562 15.101562 96.300781 14.777344 95.441406 14.585938 C 95.691406 14.585938 95.941406 14.582031 96.1875 14.585938 L 96.34375 14.582031 C 96.585938 14.597656 96.828125 14.609375 97.074219 14.621094 C 97.875 14.695312 99.679688 14.730469 99.671875 14.71875 L 100.121094 14.742188 C 100.148438 14.761719 100.179688 14.769531 100.210938 14.765625 L 101.625 14.875 C 101.660156 14.894531 101.695312 14.902344 101.734375 14.902344 L 102.007812 14.921875 C 102.203125 14.972656 102.398438 15.023438 102.585938 15.09375 C 102.949219 15.222656 103.296875 15.375 103.636719 15.550781 C 105.34375 17.101562 107.078125 18.617188 108.882812 20.050781 C 109.355469 20.425781 109.832031 20.792969 110.308594 21.152344 C 110.773438 21.503906 111.261719 21.832031 111.691406 22.222656 C 112.503906 22.976562 112.960938 23.984375 113.628906 24.839844 C 114.132812 25.488281 114.730469 26.152344 114.976562 26.9375 L 115.089844 27.515625 C 115.101562 27.582031 115.292969 27.585938 115.289062 27.515625 C 115.273438 27.320312 115.238281 27.125 115.179688 26.9375 C 115.0625 26.332031 114.941406 25.722656 114.824219 25.113281 C 114.6875 24.410156 114.5625 23.691406 114.25 23.035156 C 113.730469 21.945312 112.804688 21.113281 111.894531 20.34375 C 111.425781 19.945312 110.949219 19.554688 110.496094 19.136719 C 110.402344 18.992188 110.300781 18.851562 110.191406 18.71875 C 109.496094 17.867188 108.542969 17.277344 107.511719 16.894531 C 106.878906 16.664062 106.226562 16.496094 105.554688 16.398438 C 105.527344 16.390625 105.421875 16.410156 105.429688 16.449219 C 105.144531 16.273438 104.855469 16.101562 104.566406 15.933594 C 104.3125 15.785156 104.058594 15.640625 103.796875 15.507812 L 103.574219 15.300781 C 103.511719 15.269531 103.453125 15.273438 103.394531 15.308594 C 103.300781 15.265625 103.203125 15.222656 103.105469 15.183594 C 102.917969 15.105469 102.726562 15.039062 102.527344 14.972656 L 104.140625 15.082031 C 104.363281 15.105469 104.585938 15.125 104.8125 15.148438 C 104.816406 15.175781 104.84375 15.199219 104.917969 15.207031 L 107.429688 15.527344 C 107.472656 15.601562 107.53125 15.660156 107.601562 15.707031 C 107.671875 15.753906 107.746094 15.78125 107.832031 15.792969 C 107.914062 15.800781 107.996094 15.792969 108.078125 15.765625 C 108.15625 15.738281 108.222656 15.695312 108.28125 15.636719 L 109.375 15.773438 C 109.414062 15.78125 109.457031 15.773438 109.492188 15.753906 L 109.570312 15.761719 C 109.558594 15.765625 109.550781 15.769531 109.542969 15.777344 L 109.519531 15.78125 C 109.398438 15.804688 109.554688 15.847656 109.597656 15.84375 L 109.757812 15.839844 C 110.277344 15.964844 110.71875 16.277344 111.1875 16.519531 C 111.589844 16.722656 112.011719 16.859375 112.453125 16.933594 C 112.855469 17 113.257812 17.007812 113.660156 16.964844 C 114.269531 17.507812 115.988281 17.878906 116.808594 17.929688 C 117.210938 17.957031 117.609375 17.921875 118 17.816406 C 118.40625 17.691406 118.808594 17.546875 119.199219 17.382812 C 119.636719 17.222656 120.085938 17.125 120.550781 17.097656 C 120.949219 17.066406 121.34375 16.988281 121.722656 16.867188 C 122.484375 16.621094 123.1875 16.238281 123.917969 15.925781 C 124.355469 15.738281 124.804688 15.589844 125.269531 15.480469 C 125.742188 15.371094 126.21875 15.261719 126.644531 15.015625 C 126.722656 14.96875 126.617188 14.929688 126.570312 14.925781 C 125.011719 14.816406 123.46875 15.078125 121.917969 15.1875 C 121.113281 15.246094 120.3125 15.238281 119.507812 15.171875 C 119.128906 15.128906 118.75 15.121094 118.371094 15.148438 C 118.28125 15.152344 118.191406 15.167969 118.101562 15.179688 C 118.496094 15.082031 118.882812 14.964844 119.261719 14.828125 C 119.722656 14.648438 120.167969 14.4375 120.597656 14.195312 C 121.609375 13.644531 122.542969 12.945312 123.464844 12.253906 C 123.523438 12.210938 123.371094 12.203125 123.351562 12.203125 C 122.894531 12.246094 122.449219 12.34375 122.015625 12.492188 C 121.558594 12.625 121.089844 12.722656 120.617188 12.789062 C 119.675781 12.929688 118.71875 12.972656 117.773438 13.078125 C 116.851562 13.179688 115.957031 13.386719 115.085938 13.695312 C 114.625 13.863281 114.160156 14.039062 113.703125 14.191406 C 113.246094 14.339844 112.777344 14.460938 112.316406 14.617188 C 111.847656 14.785156 111.390625 14.992188 110.953125 15.226562 C 110.585938 15.429688 110.203125 15.589844 109.800781 15.714844 L 109.699219 15.707031 L 109.5625 15.691406 C 109.574219 15.65625 109.550781 15.621094 109.460938 15.609375 L 108.394531 15.476562 C 108.410156 15.449219 108.417969 15.421875 108.425781 15.394531 C 108.46875 15.234375 108.441406 15.085938 108.34375 14.945312 C 108.246094 14.808594 108.109375 14.734375 107.941406 14.71875 C 107.769531 14.703125 107.625 14.757812 107.507812 14.875 C 107.386719 14.996094 107.339844 15.140625 107.355469 15.304688 C 106.6875 15.203125 106.023438 15.113281 105.355469 15.039062 C 105.328125 15.003906 105.296875 14.988281 105.253906 14.992188 L 102.035156 14.75 C 102 14.703125 101.953125 14.679688 101.894531 14.683594 L 101.183594 14.644531 C 100.210938 14.445312 99.234375 14.316406 98.246094 14.257812 L 98.035156 14.25 C 99.289062 14.046875 100.703125 13.820312 101.167969 13.824219 C 101.683594 13.847656 102.1875 13.800781 102.6875 13.679688 C 103.214844 13.53125 103.707031 13.289062 104.21875 13.101562 C 105.226562 12.734375 106.222656 12.328125 106.988281 11.558594 C 107.378906 11.167969 107.621094 10.691406 107.855469 10.195312 C 108.066406 9.71875 108.328125 9.277344 108.640625 8.859375 C 109.375 7.929688 110.351562 7.226562 111.308594 6.539062 C 111.363281 6.5 111.171875 6.484375 111.132812 6.503906 C 110.28125 7 109.371094 7.386719 108.5 7.84375 C 107.695312 8.273438 106.949219 8.785156 106.261719 9.382812 C 105.589844 9.957031 104.949219 10.570312 104.21875 11.074219 C 103.867188 11.324219 103.492188 11.53125 103.09375 11.707031 C 102.679688 11.878906 102.246094 11.992188 101.824219 12.140625 C 101.386719 12.277344 100.996094 12.496094 100.65625 12.800781 C 100.339844 13.101562 100.089844 13.425781 99.683594 13.621094 C 99.539062 13.683594 99.398438 13.753906 99.261719 13.835938 C 99.074219 13.863281 98.21875 14.0625 97.457031 14.242188 C 97.027344 14.246094 96.597656 14.265625 96.164062 14.277344 C 96.246094 14.25 96.316406 14.203125 96.375 14.140625 C 96.433594 14.078125 96.476562 14.003906 96.5 13.921875 C 96.519531 13.839844 96.523438 13.753906 96.507812 13.671875 C 96.488281 13.585938 96.453125 13.511719 96.398438 13.445312 C 96.34375 13.375 96.277344 13.324219 96.199219 13.289062 C 96.121094 13.25 96.035156 13.234375 95.949219 13.238281 C 95.863281 13.242188 95.78125 13.261719 95.703125 13.304688 C 95.628906 13.34375 95.566406 13.402344 95.519531 13.472656 C 95.46875 13.542969 95.441406 13.621094 95.429688 13.707031 C 95.417969 13.789062 95.429688 13.875 95.460938 13.953125 C 95.488281 14.035156 95.535156 14.105469 95.601562 14.164062 C 95.664062 14.222656 95.738281 14.265625 95.820312 14.289062 C 95.609375 14.292969 95.402344 14.300781 95.1875 14.300781 L 95.128906 14.292969 C 95.148438 14.253906 94.960938 14.152344 94.90625 14.148438 L 92.019531 14.039062 C 91.753906 13.996094 91.050781 13.96875 91.183594 13.996094 C 91.339844 14.027344 91.496094 14.050781 91.648438 14.078125 C 91.648438 14.082031 91.648438 14.085938 91.648438 14.089844 C 91.558594 14.085938 90.476562 13.988281 90.167969 13.976562 L 89.8125 13.945312 C 89.765625 13.941406 89.714844 13.945312 89.671875 13.957031 L 89.660156 13.953125 C 90.585938 13.480469 91.53125 13.03125 92.5625 12.789062 C 93.59375 12.542969 94.664062 12.4375 95.703125 12.191406 C 96.617188 11.972656 97.53125 11.640625 98.265625 11.042969 C 99.019531 10.433594 99.53125 9.601562 100.191406 8.902344 C 100.585938 8.503906 101.023438 8.164062 101.511719 7.882812 C 101.988281 7.613281 102.429688 7.296875 102.839844 6.933594 C 102.914062 6.863281 102.753906 6.808594 102.703125 6.832031 C 101.527344 7.390625 100.328125 7.882812 99.097656 8.304688 C 98.476562 8.519531 97.847656 8.714844 97.214844 8.890625 C 96.832031 8.996094 96.3125 9.144531 96.195312 9.558594 C 95.757812 9.421875 95.292969 9.585938 94.890625 9.761719 C 94.390625 9.980469 93.90625 10.234375 93.441406 10.515625 C 92.972656 10.800781 92.570312 11.15625 92.230469 11.578125 C 91.894531 12.035156 91.59375 12.515625 91.335938 13.019531 C 90.699219 13.269531 90.078125 13.554688 89.476562 13.871094 C 89.433594 13.894531 89.425781 13.921875 89.433594 13.945312 L 89.097656 13.9375 C 89.050781 13.929688 89.011719 13.941406 88.976562 13.96875 L 88.285156 13.902344 C 88.257812 13.898438 88.230469 13.898438 88.207031 13.90625 L 88 13.878906 C 87.910156 13.863281 87.738281 13.957031 87.828125 14.015625 L 86.289062 14.03125 C 86.214844 14.03125 86.171875 14.054688 86.152344 14.085938 L 85.929688 14.105469 L 85.78125 14.113281 C 84.941406 14.085938 84.101562 14.101562 83.265625 14.160156 C 83.222656 14.164062 83.109375 14.167969 83.074219 14.167969 C 82.300781 14.136719 81.542969 14.238281 80.804688 14.464844 C 80.796875 14.464844 80.785156 14.472656 80.777344 14.476562 L 80.464844 14.519531 C 81 14.183594 81.546875 13.855469 82.152344 13.691406 C 82.199219 13.699219 82.242188 13.703125 82.285156 13.691406 C 82.335938 13.667969 82.386719 13.644531 82.441406 13.625 C 82.582031 13.601562 82.722656 13.585938 82.863281 13.578125 C 83.621094 13.554688 84.4375 13.699219 85.117188 13.289062 C 85.464844 13.082031 85.726562 12.777344 86.019531 12.511719 C 86.320312 12.246094 86.644531 12.007812 86.992188 11.800781 C 87.679688 11.40625 88.398438 11.066406 89.140625 10.785156 C 89.980469 10.445312 90.828125 10.121094 91.625 9.6875 C 91.722656 9.632812 91.542969 9.601562 91.503906 9.613281 L 87.175781 10.699219 C 86.523438 10.863281 85.851562 11.007812 85.234375 11.273438 C 84.671875 11.523438 84.152344 11.839844 83.675781 12.226562 C 83.15625 12.652344 82.65625 13.101562 82.183594 13.582031 C 81.488281 13.746094 80.863281 14.121094 80.253906 14.503906 C 80.21875 14.523438 80.242188 14.539062 80.292969 14.554688 L 78.234375 14.839844 C 78.210938 14.835938 78.1875 14.832031 78.164062 14.835938 L 77.992188 14.875 L 76.9375 15.019531 C 76.894531 14.945312 76.828125 14.917969 76.746094 14.945312 L 74.101562 15.46875 C 73.941406 15.496094 73.5 15.640625 73.535156 15.679688 C 73.101562 15.742188 72.667969 15.800781 72.234375 15.859375 C 71.539062 15.949219 70.839844 16.039062 70.140625 16.128906 C 69.957031 16.148438 70.03125 16.296875 70.179688 16.296875 Z M 81.53125 16.972656 C 81.898438 17.070312 82.289062 17.054688 82.660156 17.140625 C 83.039062 17.253906 83.382812 17.425781 83.699219 17.664062 C 84.300781 18.070312 84.933594 18.433594 85.535156 18.84375 C 86.085938 19.214844 86.609375 19.660156 86.941406 20.242188 C 87.019531 20.375 87.082031 20.511719 87.136719 20.65625 C 87.171875 20.757812 87.308594 21.0625 87.234375 21.160156 C 87.160156 21.253906 86.8125 21.117188 86.714844 21.09375 C 86.53125 21.046875 86.347656 20.996094 86.164062 20.9375 C 85.472656 20.710938 84.8125 20.40625 84.1875 20.03125 C 82.9375 19.292969 81.839844 18.324219 80.808594 17.308594 L 80.429688 16.933594 C 80.988281 17.300781 81.578125 17.613281 82.199219 17.875 C 82.71875 18.097656 83.265625 18.261719 83.765625 18.519531 C 84.234375 18.765625 84.65625 19.074219 85.03125 19.441406 C 85.449219 19.847656 85.828125 20.289062 86.171875 20.757812 C 86.21875 20.824219 86.410156 20.78125 86.34375 20.695312 C 85.746094 19.886719 85.0625 19.109375 84.1875 18.582031 C 83.722656 18.324219 83.238281 18.109375 82.738281 17.9375 C 82.199219 17.734375 81.679688 17.492188 81.179688 17.210938 C 80.699219 16.9375 80.242188 16.628906 79.808594 16.289062 C 80.394531 16.464844 80.929688 16.816406 81.53125 16.96875 Z M 86.585938 15.996094 C 86.804688 16.035156 87.027344 16.054688 87.246094 16.046875 C 87.539062 16.058594 87.832031 16.074219 88.125 16.101562 C 88.667969 16.148438 89.207031 16.222656 89.738281 16.3125 C 90.796875 16.488281 91.851562 16.707031 92.890625 16.953125 C 93.402344 17.066406 93.894531 17.234375 94.363281 17.460938 C 94.824219 17.703125 95.25 17.996094 95.644531 18.332031 C 96.503906 19.039062 97.304688 19.816406 98.121094 20.570312 C 97.257812 20.355469 96.441406 19.992188 95.574219 19.792969 C 95.085938 19.699219 94.601562 19.578125 94.125 19.433594 C 93.65625 19.265625 93.207031 19.054688 92.757812 18.84375 C 91.886719 18.449219 91.011719 18.066406 90.128906 17.71875 C 89.28125 17.390625 88.382812 17.144531 87.589844 16.691406 C 88.121094 16.84375 88.664062 16.9375 89.210938 16.980469 C 90.132812 17.0625 91.074219 17.074219 91.964844 17.339844 C 92.855469 17.609375 93.507812 18.183594 94.230469 18.714844 C 95.042969 19.320312 95.957031 19.667969 96.917969 19.988281 C 96.996094 20.007812 97.144531 19.9375 97.019531 19.894531 C 96.128906 19.597656 95.261719 19.285156 94.496094 18.730469 C 93.824219 18.246094 93.207031 17.683594 92.425781 17.367188 C 90.742188 16.703125 88.824219 17.152344 87.171875 16.398438 C 87.128906 16.378906 87.085938 16.359375 87.046875 16.335938 C 86.886719 16.226562 86.730469 16.109375 86.574219 15.992188 Z M 104.140625 22.761719 C 103.707031 22.488281 103.394531 22.113281 103.207031 21.636719 C 103.027344 21.167969 103.082031 20.648438 102.8125 20.210938 C 102.34375 19.449219 101.390625 19.140625 100.710938 18.609375 C 100.257812 18.25 99.878906 17.828125 99.574219 17.34375 L 101.667969 17.894531 C 102.035156 17.992188 102.421875 18.0625 102.757812 18.246094 C 103.046875 18.414062 103.273438 18.640625 103.445312 18.921875 C 103.789062 19.46875 103.953125 20.121094 104.113281 20.734375 C 104.289062 21.414062 104.429688 22.097656 104.59375 22.773438 C 104.730469 23.382812 104.898438 23.988281 105.101562 24.582031 C 104.511719 23.890625 103.898438 23.21875 103.164062 22.675781 C 102.332031 22.0625 101.277344 21.699219 100.601562 20.894531 C 100.242188 20.46875 100.042969 19.949219 99.859375 19.4375 C 99.660156 18.921875 99.527344 18.390625 99.460938 17.84375 C 99.449219 17.714844 99.4375 17.582031 99.425781 17.453125 C 99.664062 17.828125 99.945312 18.164062 100.273438 18.46875 C 100.652344 18.792969 101.058594 19.074219 101.496094 19.320312 C 101.886719 19.558594 102.292969 19.804688 102.5625 20.179688 C 102.882812 20.621094 102.816406 21.167969 103.007812 21.660156 C 103.203125 22.167969 103.535156 22.566406 104 22.859375 C 104.078125 22.910156 104.246094 22.828125 104.140625 22.761719 Z M 106.070312 17.007812 C 106.457031 17.296875 106.863281 17.550781 107.292969 17.769531 C 107.347656 17.796875 107.535156 17.757812 107.433594 17.699219 L 106.277344 16.984375 C 106.089844 16.84375 105.910156 16.695312 105.734375 16.542969 C 107.414062 16.84375 109.101562 17.574219 110.117188 18.921875 C 110.082031 18.929688 110.058594 18.945312 110.078125 18.96875 C 110.636719 19.691406 110.941406 20.503906 110.996094 21.40625 C 111 21.476562 111.199219 21.476562 111.199219 21.40625 C 111.191406 20.761719 111.039062 20.152344 110.738281 19.578125 C 111.441406 20.1875 112.183594 20.757812 112.839844 21.421875 C 113.273438 21.847656 113.640625 22.324219 113.9375 22.851562 C 114.28125 23.488281 114.429688 24.167969 114.566406 24.863281 C 114.652344 25.304688 114.738281 25.746094 114.824219 26.183594 C 114.597656 25.824219 114.351562 25.480469 114.078125 25.152344 C 113.765625 24.761719 113.46875 24.359375 113.195312 23.9375 C 112.917969 23.46875 112.609375 23.023438 112.265625 22.601562 C 111.863281 22.175781 111.421875 21.796875 110.9375 21.46875 C 110.445312 21.105469 109.960938 20.734375 109.480469 20.359375 C 108.515625 19.605469 107.570312 18.832031 106.648438 18.035156 C 105.824219 17.328125 105.011719 16.609375 104.207031 15.882812 C 104.835938 16.242188 105.453125 16.625 106.074219 17.011719 Z M 110.152344 15.875 L 110.074219 15.855469 L 110.242188 15.863281 C 110.214844 15.855469 110.183594 15.863281 110.152344 15.875 Z M 118.46875 15.25 C 118.871094 15.234375 119.269531 15.25 119.671875 15.292969 C 121.125 15.417969 122.558594 15.234375 124.003906 15.105469 C 124.777344 15.023438 125.554688 14.996094 126.335938 15.023438 C 125.667969 15.363281 124.878906 15.425781 124.179688 15.6875 C 123.457031 15.960938 122.777344 16.335938 122.054688 16.617188 C 121.691406 16.765625 121.320312 16.875 120.933594 16.949219 C 120.535156 17.015625 120.125 17.003906 119.730469 17.09375 C 118.9375 17.28125 118.230469 17.730469 117.410156 17.820312 C 116.484375 17.917969 114.789062 17.507812 114.03125 16.90625 C 114.363281 16.839844 114.683594 16.726562 114.984375 16.574219 C 115.113281 16.507812 115.242188 16.433594 115.363281 16.351562 C 115.394531 16.367188 115.421875 16.375 115.457031 16.375 C 116.574219 16.40625 117.691406 16.371094 118.800781 16.265625 C 119.355469 16.214844 119.902344 16.121094 120.457031 16.066406 C 120.757812 16.042969 121.054688 16.058594 121.351562 16.109375 C 121.578125 16.144531 121.800781 16.136719 122.023438 16.082031 C 122.304688 15.992188 122.582031 15.886719 122.851562 15.761719 L 123.8125 15.367188 C 123.855469 15.347656 123.835938 15.316406 123.808594 15.292969 C 123.761719 15.269531 123.714844 15.269531 123.671875 15.292969 C 123.144531 15.507812 122.621094 15.746094 122.085938 15.933594 C 121.816406 16.027344 121.539062 16.046875 121.253906 15.988281 C 121.011719 15.949219 120.769531 15.9375 120.527344 15.957031 C 119.996094 15.996094 119.46875 16.09375 118.945312 16.152344 C 118.417969 16.207031 117.847656 16.246094 117.296875 16.265625 C 116.75 16.285156 116.167969 16.292969 115.605469 16.28125 C 115.667969 16.191406 115.742188 16.113281 115.828125 16.046875 C 115.90625 15.992188 115.992188 15.941406 116.074219 15.890625 C 116.164062 15.84375 116.253906 15.804688 116.347656 15.769531 C 116.667969 15.648438 117.003906 15.554688 117.339844 15.464844 C 117.707031 15.355469 118.085938 15.28125 118.46875 15.246094 Z M 112.011719 14.835938 C 112.460938 14.660156 112.917969 14.507812 113.382812 14.378906 C 113.851562 14.242188 114.3125 14.085938 114.773438 13.914062 C 115.230469 13.746094 115.695312 13.574219 116.164062 13.445312 C 116.617188 13.328125 117.078125 13.238281 117.542969 13.179688 C 118.46875 13.058594 119.402344 13.015625 120.324219 12.902344 C 120.824219 12.847656 121.3125 12.761719 121.796875 12.640625 C 122.265625 12.523438 122.726562 12.347656 123.207031 12.289062 C 121.664062 13.441406 120.078125 14.578125 118.171875 15.082031 C 117.710938 15.203125 117.242188 15.304688 116.789062 15.457031 C 116.605469 15.519531 116.425781 15.589844 116.25 15.675781 C 116.214844 15.691406 116.175781 15.703125 116.144531 15.714844 C 115.921875 15.800781 115.722656 15.921875 115.550781 16.078125 L 115.5 16.109375 C 115.105469 16.40625 114.675781 16.628906 114.207031 16.785156 C 114.125 16.808594 114.039062 16.832031 113.953125 16.855469 C 113.917969 16.828125 113.785156 16.859375 113.707031 16.898438 C 113.410156 16.941406 113.109375 16.949219 112.808594 16.917969 C 112.265625 16.863281 111.753906 16.707031 111.273438 16.449219 C 110.949219 16.277344 110.636719 16.082031 110.300781 15.9375 L 110.746094 15.894531 C 111.019531 15.921875 111.289062 15.953125 111.566406 15.960938 C 112.113281 15.984375 112.652344 15.929688 113.183594 15.800781 C 114.285156 15.546875 115.308594 15.035156 116.308594 14.527344 C 116.371094 14.496094 116.179688 14.484375 116.152344 14.488281 C 115.195312 14.761719 114.234375 15.007812 113.265625 15.230469 C 113.214844 15.214844 113.160156 15.210938 113.109375 15.214844 C 113.101562 15.21875 113.097656 15.222656 113.09375 15.222656 C 113.023438 15.25 112.953125 15.28125 112.886719 15.316406 C 112.160156 15.480469 111.433594 15.628906 110.699219 15.765625 C 110.476562 15.761719 110.25 15.75 110.027344 15.726562 C 110.722656 15.515625 111.339844 15.113281 112.011719 14.832031 Z M 113.300781 15.394531 C 113.34375 15.371094 113.382812 15.351562 113.425781 15.328125 C 113.464844 15.304688 113.425781 15.300781 113.382812 15.292969 C 114.183594 15.109375 114.976562 14.90625 115.769531 14.691406 C 114.890625 15.128906 113.992188 15.550781 113.03125 15.765625 C 112.839844 15.808594 112.644531 15.84375 112.449219 15.863281 C 112.75 15.75 113.035156 15.601562 113.300781 15.417969 C 113.3125 15.402344 113.3125 15.394531 113.304688 15.390625 Z M 112.589844 15.503906 C 112.570312 15.5 112.546875 15.5 112.527344 15.503906 L 112.398438 15.542969 L 112.371094 15.546875 C 112.351562 15.542969 112.328125 15.542969 112.304688 15.546875 L 111.585938 15.730469 C 111.578125 15.730469 111.570312 15.734375 111.5625 15.742188 C 111.417969 15.757812 111.269531 15.765625 111.121094 15.769531 C 111.636719 15.671875 112.148438 15.566406 112.660156 15.457031 C 112.636719 15.464844 112.605469 15.480469 112.589844 15.5 Z M 112.273438 15.746094 Z M 112.132812 15.890625 C 111.851562 15.910156 111.566406 15.90625 111.285156 15.882812 L 111.136719 15.871094 L 111.324219 15.855469 C 111.351562 15.863281 111.375 15.867188 111.398438 15.867188 L 111.582031 15.851562 C 111.625 15.875 111.671875 15.882812 111.722656 15.878906 L 111.855469 15.855469 C 111.882812 15.867188 111.910156 15.875 111.941406 15.878906 C 112 15.875 112.054688 15.875 112.113281 15.867188 C 112.125 15.875 112.136719 15.878906 112.152344 15.878906 C 112.136719 15.878906 112.136719 15.882812 112.136719 15.886719 Z M 100.230469 14.59375 L 99.597656 14.554688 C 99.609375 14.535156 99.609375 14.515625 99.597656 14.5 C 99.8125 14.523438 100.023438 14.554688 100.234375 14.585938 Z M 99.195312 14.445312 L 98.695312 14.453125 C 98.703125 14.4375 98.703125 14.421875 98.695312 14.402344 C 98.867188 14.414062 99.035156 14.421875 99.199219 14.441406 Z M 100.210938 13.644531 C 100.558594 13.574219 100.898438 13.492188 101.230469 13.40625 C 101.894531 13.226562 102.542969 13.007812 103.175781 12.742188 C 104.277344 12.285156 105.453125 11.746094 106.210938 10.808594 C 106.667969 10.238281 107.117188 9.683594 107.6875 9.21875 C 107.707031 9.203125 107.539062 9.164062 107.492188 9.203125 C 107.015625 9.597656 106.589844 10.042969 106.214844 10.535156 C 106.035156 10.78125 105.835938 11.015625 105.617188 11.230469 C 105.386719 11.441406 105.136719 11.625 104.867188 11.78125 C 103.84375 12.386719 102.757812 12.863281 101.613281 13.210938 C 101.078125 13.375 100.535156 13.507812 99.984375 13.613281 C 100.222656 13.457031 100.429688 13.273438 100.613281 13.0625 C 100.914062 12.726562 101.269531 12.46875 101.6875 12.285156 C 102.09375 12.121094 102.523438 12.007812 102.941406 11.863281 C 103.335938 11.71875 103.714844 11.535156 104.074219 11.3125 C 104.8125 10.855469 105.460938 10.273438 106.101562 9.703125 C 106.78125 9.082031 107.519531 8.535156 108.316406 8.066406 C 109.015625 7.671875 109.757812 7.34375 110.472656 6.980469 C 109.875 7.410156 109.320312 7.894531 108.808594 8.425781 C 108.460938 8.792969 108.164062 9.199219 107.921875 9.640625 C 107.667969 10.121094 107.484375 10.621094 107.179688 11.070312 C 106.570312 11.976562 105.523438 12.527344 104.515625 12.898438 C 104.003906 13.085938 103.5 13.292969 102.988281 13.484375 C 102.441406 13.683594 101.875 13.777344 101.289062 13.765625 C 100.703125 13.765625 100.117188 13.761719 99.535156 13.804688 C 99.761719 13.746094 99.988281 13.6875 100.214844 13.640625 Z M 97.597656 14.339844 C 97.796875 14.339844 97.992188 14.347656 98.191406 14.359375 L 97.957031 14.371094 C 97.691406 14.378906 97.425781 14.386719 97.160156 14.386719 L 97.4375 14.34375 Z M 96.820312 14.390625 C 96.628906 14.390625 96.4375 14.390625 96.246094 14.386719 L 96.101562 14.375 C 96.394531 14.367188 96.6875 14.355469 96.980469 14.351562 Z M 93.089844 14.347656 C 93.09375 14.355469 93.097656 14.359375 93.101562 14.367188 L 92.617188 14.34375 C 92.597656 14.335938 92.578125 14.328125 92.558594 14.328125 L 92.4375 14.3125 C 92.664062 14.324219 92.878906 14.339844 93.097656 14.347656 Z M 92.34375 11.726562 C 92.648438 11.324219 93.011719 10.984375 93.433594 10.707031 C 93.847656 10.441406 94.277344 10.207031 94.730469 10.003906 C 95.175781 9.792969 95.722656 9.492188 96.222656 9.726562 C 96.273438 9.75 96.367188 9.730469 96.375 9.664062 C 96.398438 9.382812 96.65625 9.234375 96.898438 9.140625 C 97.167969 9.03125 97.460938 8.96875 97.742188 8.886719 C 98.308594 8.71875 98.871094 8.539062 99.429688 8.339844 C 100.375 8.011719 101.304688 7.632812 102.214844 7.222656 C 101.582031 7.683594 100.859375 8.023438 100.285156 8.558594 C 99.589844 9.203125 99.09375 10.019531 98.414062 10.679688 C 96.914062 12.132812 94.683594 12.171875 92.742188 12.59375 C 92.4375 12.660156 92.136719 12.742188 91.835938 12.839844 C 92.246094 12.546875 92.675781 12.296875 93.136719 12.089844 C 93.691406 11.835938 94.28125 11.679688 94.855469 11.472656 C 95.125 11.378906 95.386719 11.265625 95.632812 11.132812 C 95.894531 10.972656 96.136719 10.789062 96.363281 10.582031 C 96.84375 10.171875 97.449219 10.035156 98.027344 9.808594 C 98.671875 9.558594 99.253906 9.207031 99.777344 8.757812 C 99.871094 8.679688 99.707031 8.59375 99.632812 8.65625 C 99.152344 9.070312 98.621094 9.398438 98.03125 9.644531 C 97.484375 9.867188 96.882812 9.988281 96.398438 10.335938 C 96.148438 10.519531 95.9375 10.746094 95.675781 10.917969 C 95.414062 11.082031 95.140625 11.214844 94.851562 11.316406 C 94.285156 11.53125 93.695312 11.679688 93.136719 11.921875 C 92.632812 12.144531 92.15625 12.417969 91.710938 12.738281 C 91.902344 12.386719 92.113281 12.046875 92.351562 11.726562 Z M 85.160156 11.425781 C 85.777344 11.132812 86.445312 10.984375 87.105469 10.820312 L 89.21875 10.285156 L 91.070312 9.8125 C 89.761719 10.460938 88.335938 10.871094 87.0625 11.589844 C 86.730469 11.777344 86.414062 11.988281 86.113281 12.222656 C 85.796875 12.476562 85.527344 12.78125 85.214844 13.039062 C 84.859375 13.324219 84.449219 13.472656 83.984375 13.480469 C 83.609375 13.496094 83.238281 13.464844 82.863281 13.476562 C 83.136719 13.402344 83.421875 13.34375 83.703125 13.289062 C 84.164062 13.199219 84.605469 13.050781 85.027344 12.851562 C 85.875 12.433594 86.578125 11.796875 87.394531 11.328125 C 87.492188 11.273438 87.308594 11.226562 87.253906 11.257812 C 86.433594 11.726562 85.738281 12.363281 84.894531 12.789062 C 84.144531 13.164062 83.292969 13.21875 82.507812 13.488281 C 83.304688 12.699219 84.140625 11.910156 85.167969 11.429688 Z M 75.792969 15.609375 C 75.824219 15.621094 75.859375 15.621094 75.890625 15.617188 L 76.363281 15.535156 C 76.386719 15.539062 76.40625 15.539062 76.429688 15.535156 C 76.535156 15.523438 76.636719 15.503906 76.742188 15.480469 C 76.769531 15.523438 76.808594 15.539062 76.855469 15.535156 C 77.089844 15.507812 77.320312 15.507812 77.554688 15.53125 L 75.574219 15.648438 C 75.648438 15.640625 75.722656 15.628906 75.800781 15.613281 Z M 75.199219 15.617188 C 75.222656 15.644531 75.25 15.660156 75.285156 15.667969 L 74.535156 15.714844 C 74.761719 15.679688 74.988281 15.648438 75.207031 15.621094 Z M 72.679688 15.96875 C 72.710938 15.984375 72.742188 15.992188 72.777344 15.988281 L 75.003906 15.855469 C 73.957031 15.964844 72.902344 16.039062 71.84375 16.082031 Z M 72.679688 15.96875 " fill-opacity="1" fill-rule="nonzero"/></g></g></g><g clip-path="url(#f90c6a6657)"><g clip-path="url(#525d929f32)"><g clip-path="url(#7a81cf0c80)"><path fill="#dbbf97" d="M 107.65625 16.175781 C 107.617188 16.316406 107.636719 16.453125 107.714844 16.582031 C 107.792969 16.710938 107.902344 16.792969 108.046875 16.832031 C 108.195312 16.871094 108.332031 16.851562 108.460938 16.777344 C 108.589844 16.703125 108.675781 16.597656 108.714844 16.453125 C 108.75 16.308594 108.730469 16.171875 108.65625 16.046875 C 108.578125 15.917969 108.464844 15.832031 108.320312 15.796875 C 108.175781 15.757812 108.035156 15.773438 107.90625 15.847656 C 107.777344 15.921875 107.691406 16.03125 107.65625 16.175781 Z M 107.65625 16.175781 " fill-opacity="1" fill-rule="nonzero"/></g></g></g><g clip-path="url(#d123104f00)"><g clip-path="url(#547882a20e)"><g clip-path="url(#c12aa0b2ac)"><path fill="#dbbf97" d="M 97.027344 15.921875 C 96.882812 15.882812 96.742188 15.902344 96.613281 15.976562 C 96.484375 16.050781 96.398438 16.160156 96.363281 16.300781 C 96.324219 16.445312 96.34375 16.582031 96.421875 16.710938 C 96.496094 16.835938 96.609375 16.921875 96.753906 16.960938 C 96.902344 16.996094 97.039062 16.980469 97.167969 16.90625 C 97.296875 16.832031 97.382812 16.722656 97.417969 16.578125 C 97.457031 16.4375 97.4375 16.300781 97.359375 16.171875 C 97.285156 16.042969 97.171875 15.960938 97.027344 15.921875 Z M 97.027344 15.921875 " fill-opacity="1" fill-rule="nonzero"/></g></g></g><g clip-path="url(#69865e6b36)"><g clip-path="url(#8dee21a982)"><g clip-path="url(#1189a30fe3)"><path fill="#dbbf97" d="M 123.886719 17.910156 C 123.960938 17.929688 124.027344 17.921875 124.089844 17.882812 C 124.15625 17.847656 124.195312 17.792969 124.214844 17.722656 C 124.234375 17.652344 124.222656 17.585938 124.1875 17.523438 C 124.148438 17.460938 124.09375 17.417969 124.019531 17.398438 C 123.949219 17.382812 123.882812 17.390625 123.816406 17.425781 C 123.753906 17.464844 123.710938 17.515625 123.695312 17.585938 C 123.675781 17.65625 123.683594 17.726562 123.722656 17.789062 C 123.761719 17.851562 123.816406 17.890625 123.886719 17.910156 Z M 123.886719 17.910156 " fill-opacity="1" fill-rule="nonzero"/></g></g></g><g clip-path="url(#4b18470b1f)"><g clip-path="url(#b2271592d8)"><g clip-path="url(#ede5eccb8e)"><path fill="#dbbf97" d="M 15.703125 10.402344 C 17.101562 10.492188 18.488281 10.824219 19.667969 11.605469 C 20.222656 11.972656 20.730469 12.410156 21.28125 12.785156 C 21.816406 13.148438 22.386719 13.460938 22.980469 13.71875 C 24.332031 14.300781 25.746094 14.59375 27.21875 14.589844 C 27.230469 14.59375 27.34375 14.582031 27.316406 14.539062 C 27.082031 14.113281 26.800781 13.722656 26.46875 13.371094 C 26.425781 13.328125 26.382812 13.289062 26.335938 13.25 C 26.070312 13 25.78125 12.78125 25.46875 12.59375 C 25.097656 12.367188 24.703125 12.164062 24.328125 11.941406 C 23.878906 11.679688 23.449219 11.390625 23.027344 11.085938 C 21.351562 9.886719 19.863281 8.453125 18.21875 7.207031 C 17.289062 6.503906 16.28125 5.746094 15.128906 5.480469 C 15.105469 5.472656 14.917969 5.488281 14.984375 5.53125 C 16.621094 6.632812 17.511719 8.425781 18.738281 9.921875 C 19.042969 10.3125 19.398438 10.652344 19.800781 10.945312 C 20.238281 11.226562 20.703125 11.453125 21.199219 11.613281 C 22.242188 11.988281 23.320312 12.300781 24.398438 12.574219 C 24.984375 12.726562 25.597656 12.839844 26.085938 13.230469 C 26.117188 13.253906 26.144531 13.285156 26.175781 13.308594 C 26.46875 13.585938 26.675781 13.914062 26.796875 14.296875 C 26.808594 14.34375 26.914062 14.34375 26.96875 14.324219 L 27.082031 14.507812 C 26.378906 14.5 25.6875 14.417969 25 14.265625 C 25.085938 14.253906 25.164062 14.21875 25.234375 14.167969 C 25.300781 14.117188 25.359375 14.054688 25.398438 13.976562 C 25.4375 13.902344 25.460938 13.820312 25.460938 13.734375 C 25.464844 13.648438 25.449219 13.566406 25.414062 13.488281 C 25.378906 13.410156 25.328125 13.339844 25.261719 13.285156 C 25.195312 13.230469 25.117188 13.195312 25.035156 13.171875 C 24.949219 13.152344 24.867188 13.152344 24.78125 13.171875 C 24.699219 13.1875 24.621094 13.226562 24.554688 13.277344 C 24.488281 13.332031 24.433594 13.398438 24.398438 13.476562 C 24.359375 13.554688 24.34375 13.636719 24.34375 13.722656 C 24.34375 13.808594 24.363281 13.890625 24.402344 13.964844 C 24.441406 14.042969 24.496094 14.109375 24.5625 14.160156 C 24.121094 14.042969 23.6875 13.898438 23.261719 13.722656 C 22.648438 13.464844 22.0625 13.152344 21.507812 12.78125 C 20.945312 12.40625 20.4375 11.960938 19.871094 11.582031 C 17.628906 10.082031 14.8125 10.214844 12.246094 10.4375 C 10.707031 10.566406 9.167969 10.722656 7.621094 10.542969 C 7.59375 10.535156 7.425781 10.570312 7.523438 10.609375 L 8.496094 10.878906 C 8.300781 10.804688 8.105469 10.726562 7.910156 10.648438 C 10.511719 10.867188 13.101562 10.234375 15.703125 10.402344 Z M 25.214844 12.691406 C 24.683594 12.539062 24.15625 12.421875 23.628906 12.273438 C 23.058594 12.113281 22.496094 11.941406 21.9375 11.757812 C 21.414062 11.601562 20.90625 11.402344 20.414062 11.160156 C 19.933594 10.902344 19.511719 10.566406 19.152344 10.15625 C 18.488281 9.410156 17.964844 8.570312 17.378906 7.777344 C 16.796875 6.984375 16.164062 6.230469 15.367188 5.644531 C 16.269531 5.941406 17.082031 6.539062 17.832031 7.097656 C 18.644531 7.703125 19.417969 8.355469 20.191406 9.003906 C 20.964844 9.652344 21.71875 10.292969 22.519531 10.898438 C 23.285156 11.453125 24.082031 11.964844 24.910156 12.421875 C 25.109375 12.535156 25.316406 12.65625 25.511719 12.789062 C 25.421875 12.753906 25.320312 12.71875 25.214844 12.691406 Z M 25.214844 12.691406 " fill-opacity="1" fill-rule="nonzero"/></g></g></g><g clip-path="url(#af8089d4e0)"><g clip-path="url(#024fcbc265)"><g clip-path="url(#9c1d2d0f4b)"><path fill="#dbbf97" d="M 10.703125 11.628906 C 11.703125 11.917969 12.71875 12.152344 13.746094 12.328125 L 8.496094 10.875 C 9.222656 11.152344 9.957031 11.402344 10.703125 11.628906 Z M 10.703125 11.628906 " fill-opacity="1" fill-rule="nonzero"/></g></g></g><g clip-path="url(#54a3d01947)"><g clip-path="url(#3632f6e392)"><g clip-path="url(#fd655e87f5)"><path fill="#dbbf97" d="M 21.851562 13.300781 C 21.894531 13.3125 22.097656 13.277344 21.996094 13.246094 L 17.589844 11.867188 C 16.902344 11.652344 16.214844 11.410156 15.507812 11.257812 C 14.863281 11.128906 14.214844 11.105469 13.5625 11.1875 C 12.789062 11.269531 12.023438 11.445312 11.242188 11.433594 C 11.117188 11.433594 11.121094 11.507812 11.242188 11.511719 C 12.585938 11.535156 13.894531 11.046875 15.242188 11.292969 C 15.957031 11.425781 16.652344 11.675781 17.347656 11.890625 L 19.449219 12.550781 L 21.09375 13.0625 C 20.476562 13.007812 19.835938 13.054688 19.222656 13.035156 C 18.269531 13.003906 17.304688 13.011719 16.371094 12.816406 C 15.519531 12.640625 14.632812 12.492188 13.746094 12.328125 L 15.078125 12.699219 C 14.992188 12.691406 14.902344 12.699219 14.816406 12.722656 C 14.75 12.734375 14.683594 12.753906 14.617188 12.777344 C 13.789062 12.988281 13.066406 13.5 12.296875 13.859375 C 11.363281 14.273438 10.410156 14.640625 9.4375 14.953125 C 9.304688 15 9.472656 15.0625 9.542969 15.046875 C 10.832031 14.742188 12.125 14.460938 13.40625 14.121094 C 14.011719 13.96875 14.605469 13.777344 15.183594 13.546875 C 15.726562 13.328125 16.265625 13.054688 16.863281 13.050781 C 16.957031 13.050781 16.980469 12.992188 16.933594 12.960938 C 17.46875 13.015625 18.003906 13.054688 18.539062 13.082031 C 19.050781 13.113281 19.5625 13.128906 20.078125 13.128906 C 20.671875 13.132812 21.277344 13.101562 21.851562 13.300781 Z M 13.425781 13.992188 C 12.476562 14.25 11.511719 14.472656 10.554688 14.691406 C 11.132812 14.484375 11.710938 14.265625 12.273438 14.011719 C 12.703125 13.820312 13.117188 13.597656 13.527344 13.375 C 13.8125 13.214844 14.105469 13.082031 14.410156 12.96875 L 14.417969 12.980469 C 14.394531 12.988281 14.371094 12.996094 14.347656 13.007812 C 14.292969 13.03125 14.328125 13.078125 14.367188 13.089844 C 14.390625 13.097656 14.414062 13.105469 14.4375 13.109375 L 14.296875 13.15625 C 14.21875 13.183594 14.242188 13.21875 14.292969 13.238281 C 14.269531 13.28125 14.378906 13.320312 14.4375 13.300781 L 14.449219 13.296875 L 14.460938 13.296875 L 14.617188 13.25 C 14.613281 13.261719 14.609375 13.273438 14.628906 13.28125 C 14.59375 13.316406 14.671875 13.363281 14.730469 13.363281 L 14.699219 13.375 C 14.636719 13.394531 14.640625 13.421875 14.671875 13.441406 C 14.625 13.457031 14.617188 13.476562 14.628906 13.492188 L 14.585938 13.515625 C 14.492188 13.5625 14.632812 13.601562 14.707031 13.597656 C 14.28125 13.738281 13.855469 13.875 13.425781 13.992188 Z M 14.804688 13.554688 L 14.964844 13.488281 Z M 15.726562 13.1875 Z M 15.914062 13.121094 C 15.929688 13.105469 15.921875 13.085938 15.90625 13.074219 L 16.074219 13.035156 L 16.085938 13.027344 L 16.136719 13.042969 C 16.152344 13.042969 16.171875 13.042969 16.1875 13.039062 L 16.199219 13.039062 C 16.101562 13.054688 16.007812 13.085938 15.910156 13.117188 Z M 15.914062 13.121094 " fill-opacity="1" fill-rule="nonzero"/></g></g></g><g clip-path="url(#6a2c9dcf0a)"><g clip-path="url(#b356a9bf39)"><g clip-path="url(#06e380fe8b)"><path fill="#dbbf97" d="M 77.839844 15.445312 C 75.277344 15.476562 72.730469 15.695312 70.203125 16.097656 C 70.054688 16.121094 70.074219 16.230469 70.175781 16.261719 C 69.605469 16.199219 69.078125 16.011719 68.597656 15.695312 C 67.957031 15.28125 67.4375 14.710938 66.894531 14.175781 C 65.804688 13.101562 64.621094 12.085938 63.277344 11.335938 C 62.613281 10.957031 61.910156 10.664062 61.175781 10.457031 C 61.007812 10.410156 60.84375 10.367188 60.671875 10.332031 C 60.539062 10.304688 60.367188 10.253906 60.234375 10.3125 C 59.984375 10.425781 60.167969 10.859375 60.234375 11.039062 C 60.742188 12.441406 62.199219 13.105469 63.359375 13.878906 C 63.707031 14.136719 64.070312 14.367188 64.453125 14.574219 C 64.851562 14.769531 65.265625 14.804688 65.699219 14.855469 C 66.605469 14.964844 67.335938 15.570312 68.230469 15.710938 C 68.257812 15.714844 68.28125 15.710938 68.308594 15.699219 C 68.445312 15.796875 68.589844 15.886719 68.734375 15.96875 C 69.324219 16.285156 69.949219 16.4375 70.617188 16.425781 L 70.492188 16.457031 L 69.671875 16.609375 L 66.585938 16.921875 C 66.550781 16.921875 66.519531 16.9375 66.492188 16.960938 L 64.265625 17.28125 C 63.628906 17.152344 62.898438 17 62.765625 16.933594 C 62.769531 16.917969 62.773438 16.90625 62.734375 16.890625 L 62.675781 16.863281 C 62.671875 16.855469 62.664062 16.851562 62.660156 16.847656 C 62.320312 16.648438 61.996094 16.425781 61.6875 16.1875 L 61.671875 16.171875 C 61.394531 15.886719 61.082031 15.648438 60.734375 15.449219 L 60.65625 15.410156 C 60.582031 15.355469 60.507812 15.300781 60.429688 15.25 C 59.625 14.714844 58.714844 14.441406 57.820312 14.105469 C 56.855469 13.742188 55.910156 13.328125 54.972656 12.902344 C 54.519531 12.691406 54.066406 12.472656 53.597656 12.285156 C 53.144531 12.117188 52.675781 11.984375 52.199219 11.898438 C 51.078125 11.664062 50.035156 11.175781 48.917969 10.945312 C 48.878906 10.933594 48.738281 10.972656 48.800781 11.03125 C 49.625 11.796875 50.433594 12.578125 51.28125 13.320312 C 52.066406 14.007812 52.910156 14.558594 53.921875 14.84375 C 54.4375 14.992188 54.964844 15.09375 55.492188 15.207031 C 56.046875 15.324219 56.601562 15.441406 57.160156 15.542969 C 58.242188 15.75 59.332031 15.871094 60.429688 15.90625 C 60.605469 15.898438 60.777344 15.917969 60.945312 15.957031 C 61.105469 16.015625 61.242188 16.105469 61.363281 16.226562 C 61.550781 16.421875 61.75 16.605469 61.960938 16.773438 C 62.394531 17.082031 62.875 17.265625 63.40625 17.324219 L 63.746094 17.359375 L 63.300781 17.421875 L 62.625 17.472656 C 62.605469 17.46875 62.585938 17.46875 62.566406 17.46875 C 61.523438 17.460938 60.484375 17.515625 59.445312 17.632812 C 59.339844 17.644531 59.320312 17.695312 59.347656 17.738281 L 58.964844 17.746094 C 58.082031 17.578125 57.195312 17.5 56.296875 17.515625 C 55.140625 17.421875 53.980469 17.367188 52.820312 17.351562 C 51.695312 17.238281 50.648438 16.890625 49.683594 16.308594 C 49.199219 16.03125 48.765625 15.695312 48.375 15.296875 C 48.003906 14.894531 47.992188 14.378906 47.941406 13.863281 C 47.878906 13.332031 47.753906 12.816406 47.566406 12.320312 C 47.414062 11.8125 47.195312 11.335938 46.910156 10.890625 C 46.3125 10.039062 45.320312 9.632812 44.472656 9.085938 C 43.40625 8.394531 42.59375 7.40625 41.792969 6.4375 C 41.746094 6.378906 41.5625 6.394531 41.601562 6.492188 C 42.15625 7.921875 42.390625 9.4375 42.757812 10.917969 C 42.925781 11.59375 43.09375 12.304688 43.460938 12.90625 C 43.609375 13.160156 43.804688 13.375 44.039062 13.554688 C 44.339844 13.75 44.667969 13.886719 45.023438 13.960938 C 45.941406 14.203125 46.859375 14.445312 47.777344 14.6875 C 47.792969 14.6875 47.808594 14.6875 47.824219 14.6875 C 47.875 14.917969 47.976562 15.125 48.125 15.3125 C 48.496094 15.714844 48.917969 16.058594 49.390625 16.335938 C 50.152344 16.816406 50.976562 17.152344 51.855469 17.347656 C 51.601562 17.347656 51.34375 17.355469 51.089844 17.351562 L 50.925781 17.355469 C 50.679688 17.339844 50.429688 17.328125 50.179688 17.316406 C 49.359375 17.246094 47.5 17.214844 47.507812 17.230469 L 47.046875 17.203125 C 47.015625 17.1875 46.988281 17.179688 46.953125 17.179688 L 45.5 17.074219 C 45.464844 17.054688 45.425781 17.042969 45.386719 17.046875 L 45.105469 17.027344 C 44.90625 16.972656 44.703125 16.921875 44.511719 16.847656 C 44.140625 16.714844 43.785156 16.558594 43.433594 16.375 C 41.6875 14.765625 39.910156 13.191406 38.058594 11.699219 C 37.578125 11.3125 37.089844 10.929688 36.597656 10.554688 C 36.121094 10.195312 35.625 9.851562 35.179688 9.445312 C 34.351562 8.660156 33.886719 7.613281 33.203125 6.71875 C 32.6875 6.046875 32.078125 5.355469 31.824219 4.535156 L 31.714844 3.9375 C 31.699219 3.863281 31.503906 3.863281 31.507812 3.9375 C 31.519531 4.140625 31.558594 4.339844 31.617188 4.535156 C 31.734375 5.171875 31.855469 5.804688 31.976562 6.441406 C 32.113281 7.175781 32.238281 7.925781 32.554688 8.609375 C 33.085938 9.746094 34.03125 10.609375 34.964844 11.410156 C 35.445312 11.824219 35.933594 12.226562 36.398438 12.660156 C 36.492188 12.8125 36.597656 12.960938 36.710938 13.101562 C 37.421875 13.984375 38.398438 14.597656 39.457031 14.992188 C 40.109375 15.230469 40.777344 15.398438 41.464844 15.5 C 41.496094 15.507812 41.605469 15.488281 41.597656 15.445312 C 41.890625 15.628906 42.183594 15.808594 42.480469 15.984375 C 42.738281 16.136719 43 16.285156 43.269531 16.425781 L 43.5 16.636719 C 43.5625 16.671875 43.621094 16.667969 43.683594 16.628906 C 43.78125 16.671875 43.878906 16.71875 43.976562 16.757812 C 44.171875 16.839844 44.367188 16.910156 44.574219 16.972656 L 42.917969 16.867188 C 42.6875 16.847656 42.457031 16.824219 42.226562 16.804688 C 42.222656 16.773438 42.191406 16.75 42.117188 16.742188 L 39.535156 16.417969 C 39.492188 16.34375 39.433594 16.28125 39.359375 16.234375 C 39.289062 16.183594 39.207031 16.15625 39.121094 16.144531 C 39.035156 16.132812 38.953125 16.144531 38.871094 16.171875 C 38.789062 16.199219 38.71875 16.246094 38.65625 16.308594 L 37.535156 16.167969 C 37.492188 16.164062 37.453125 16.171875 37.414062 16.191406 L 37.335938 16.183594 C 37.347656 16.179688 37.355469 16.171875 37.363281 16.164062 L 37.386719 16.160156 C 37.511719 16.136719 37.351562 16.09375 37.304688 16.097656 L 37.140625 16.105469 C 36.609375 15.976562 36.15625 15.648438 35.675781 15.402344 C 35.265625 15.1875 34.832031 15.046875 34.375 14.972656 C 33.960938 14.90625 33.546875 14.898438 33.132812 14.945312 C 32.507812 14.378906 30.742188 14.003906 29.902344 13.953125 C 29.488281 13.925781 29.078125 13.964844 28.675781 14.074219 C 28.257812 14.207031 27.84375 14.359375 27.441406 14.535156 C 26.992188 14.707031 26.53125 14.808594 26.050781 14.839844 C 25.636719 14.871094 25.234375 14.953125 24.84375 15.085938 C 24.058594 15.34375 23.335938 15.746094 22.582031 16.078125 C 22.132812 16.273438 21.667969 16.429688 21.191406 16.546875 C 20.703125 16.664062 20.214844 16.78125 19.777344 17.039062 C 19.695312 17.089844 19.804688 17.128906 19.851562 17.132812 C 21.453125 17.238281 23.039062 16.960938 24.636719 16.839844 C 25.460938 16.773438 26.289062 16.777344 27.113281 16.84375 C 27.503906 16.886719 27.890625 16.894531 28.28125 16.867188 C 28.375 16.855469 28.46875 16.84375 28.558594 16.832031 C 28.15625 16.933594 27.757812 17.058594 27.367188 17.203125 C 26.890625 17.394531 26.429688 17.613281 25.988281 17.867188 C 24.945312 18.449219 23.984375 19.183594 23.03125 19.910156 C 22.972656 19.953125 23.128906 19.960938 23.148438 19.960938 C 23.617188 19.914062 24.074219 19.8125 24.523438 19.65625 C 24.996094 19.515625 25.476562 19.410156 25.960938 19.335938 C 26.929688 19.1875 27.914062 19.136719 28.890625 19.023438 C 29.835938 18.914062 30.757812 18.695312 31.652344 18.367188 C 32.128906 18.191406 32.605469 18.003906 33.078125 17.84375 C 33.546875 17.683594 34.03125 17.558594 34.503906 17.390625 C 34.988281 17.210938 35.457031 16.996094 35.910156 16.75 C 36.289062 16.535156 36.683594 16.363281 37.097656 16.230469 L 37.203125 16.242188 L 37.339844 16.253906 C 37.332031 16.292969 37.351562 16.328125 37.449219 16.339844 L 38.539062 16.476562 C 38.527344 16.503906 38.515625 16.53125 38.507812 16.558594 C 38.464844 16.730469 38.492188 16.886719 38.589844 17.027344 C 38.691406 17.171875 38.832031 17.25 39.003906 17.265625 C 39.179688 17.28125 39.328125 17.222656 39.453125 17.097656 C 39.574219 16.972656 39.625 16.824219 39.609375 16.648438 C 40.296875 16.753906 40.980469 16.84375 41.667969 16.921875 C 41.691406 16.953125 41.726562 16.96875 41.769531 16.96875 L 45.078125 17.207031 C 45.113281 17.253906 45.160156 17.277344 45.21875 17.273438 L 45.953125 17.3125 C 46.949219 17.515625 47.957031 17.644531 48.972656 17.703125 L 49.191406 17.710938 C 47.898438 17.929688 46.445312 18.171875 45.964844 18.167969 C 45.4375 18.144531 44.914062 18.199219 44.402344 18.328125 C 43.859375 18.484375 43.351562 18.738281 42.824219 18.9375 C 41.785156 19.324219 40.761719 19.753906 39.96875 20.558594 C 39.566406 20.972656 39.3125 21.472656 39.074219 21.988281 C 38.855469 22.484375 38.582031 22.949219 38.257812 23.386719 C 37.5 24.363281 36.496094 25.101562 35.503906 25.824219 C 35.449219 25.863281 35.644531 25.878906 35.683594 25.855469 C 36.5625 25.335938 37.5 24.925781 38.398438 24.445312 C 39.230469 23.996094 40 23.457031 40.707031 22.832031 C 41.398438 22.226562 42.0625 21.585938 42.816406 21.054688 C 43.179688 20.792969 43.566406 20.570312 43.976562 20.390625 C 44.402344 20.207031 44.851562 20.089844 45.285156 19.929688 C 45.734375 19.785156 46.136719 19.554688 46.484375 19.234375 C 46.8125 18.921875 47.070312 18.578125 47.488281 18.371094 C 47.640625 18.308594 47.785156 18.234375 47.925781 18.148438 C 48.121094 18.121094 49 17.90625 49.78125 17.714844 C 50.226562 17.710938 50.667969 17.6875 51.113281 17.671875 C 51.027344 17.703125 50.957031 17.753906 50.894531 17.816406 C 50.835938 17.882812 50.792969 17.960938 50.769531 18.046875 C 50.742188 18.132812 50.742188 18.21875 50.757812 18.308594 C 50.773438 18.394531 50.8125 18.472656 50.867188 18.542969 C 50.921875 18.613281 50.992188 18.667969 51.074219 18.707031 C 51.152344 18.742188 51.238281 18.761719 51.328125 18.757812 C 51.417969 18.753906 51.503906 18.730469 51.582031 18.6875 C 51.660156 18.644531 51.722656 18.585938 51.773438 18.511719 C 51.824219 18.4375 51.855469 18.355469 51.863281 18.265625 C 51.875 18.179688 51.867188 18.089844 51.835938 18.007812 C 51.804688 17.921875 51.757812 17.851562 51.691406 17.789062 C 51.628906 17.726562 51.550781 17.683594 51.464844 17.660156 C 51.683594 17.652344 51.898438 17.644531 52.117188 17.644531 L 52.175781 17.652344 C 52.15625 17.695312 52.347656 17.800781 52.40625 17.800781 L 55.371094 17.90625 C 55.644531 17.949219 56.371094 17.96875 56.234375 17.945312 C 56.074219 17.914062 55.914062 17.886719 55.753906 17.859375 C 55.753906 17.855469 55.757812 17.851562 55.757812 17.847656 C 55.847656 17.851562 56.960938 17.945312 57.277344 17.960938 L 57.644531 17.992188 C 57.691406 17.996094 57.742188 17.992188 57.789062 17.980469 L 57.800781 17.980469 C 56.84375 18.476562 55.871094 18.953125 54.808594 19.210938 C 53.75 19.472656 52.644531 19.585938 51.578125 19.851562 C 50.636719 20.082031 49.695312 20.433594 48.9375 21.058594 C 48.160156 21.699219 47.632812 22.570312 46.949219 23.304688 C 46.542969 23.722656 46.085938 24.078125 45.585938 24.375 C 45.09375 24.660156 44.636719 24.992188 44.214844 25.371094 C 44.140625 25.445312 44.304688 25.503906 44.355469 25.476562 C 45.566406 24.886719 46.804688 24.371094 48.070312 23.921875 C 48.710938 23.699219 49.355469 23.492188 50.007812 23.304688 C 50.402344 23.191406 50.9375 23.035156 51.058594 22.601562 C 51.507812 22.742188 51.988281 22.570312 52.402344 22.382812 C 52.917969 22.152344 53.417969 21.886719 53.898438 21.585938 C 54.378906 21.289062 54.792969 20.917969 55.144531 20.472656 C 55.492188 19.996094 55.804688 19.492188 56.070312 18.964844 C 56.726562 18.699219 57.367188 18.402344 57.988281 18.066406 C 58.03125 18.042969 58.042969 18.015625 58.03125 17.988281 L 58.378906 17.996094 C 58.425781 18.003906 58.464844 17.992188 58.503906 17.960938 L 59.214844 18.03125 C 59.242188 18.035156 59.265625 18.03125 59.292969 18.023438 L 59.503906 18.054688 C 59.601562 18.066406 59.777344 17.96875 59.683594 17.910156 L 61.265625 17.886719 C 61.339844 17.882812 61.386719 17.859375 61.40625 17.828125 L 61.632812 17.804688 L 61.789062 17.796875 C 62.652344 17.820312 63.515625 17.800781 64.375 17.738281 C 64.421875 17.734375 64.535156 17.726562 64.570312 17.726562 C 65.367188 17.757812 66.144531 17.648438 66.90625 17.410156 C 66.917969 17.40625 66.925781 17.402344 66.9375 17.394531 L 67.257812 17.347656 C 66.707031 17.699219 66.140625 18.046875 65.515625 18.222656 C 65.472656 18.210938 65.425781 18.210938 65.382812 18.222656 C 65.328125 18.246094 65.273438 18.269531 65.222656 18.292969 C 65.078125 18.320312 64.933594 18.335938 64.785156 18.339844 C 64.007812 18.371094 63.167969 18.222656 62.464844 18.652344 C 62.109375 18.871094 61.839844 19.191406 61.535156 19.472656 C 61.226562 19.75 60.890625 20 60.53125 20.21875 C 59.824219 20.632812 59.085938 20.992188 58.316406 21.289062 C 57.453125 21.644531 56.578125 21.988281 55.761719 22.445312 C 55.65625 22.503906 55.84375 22.535156 55.882812 22.523438 L 60.339844 21.367188 C 61.011719 21.195312 61.699219 21.042969 62.339844 20.761719 C 62.917969 20.5 63.453125 20.164062 63.941406 19.757812 C 64.480469 19.3125 64.996094 18.839844 65.484375 18.335938 C 66.203125 18.164062 66.847656 17.769531 67.476562 17.367188 C 67.507812 17.34375 67.484375 17.324219 67.433594 17.3125 L 69.550781 17.003906 C 69.574219 17.011719 69.597656 17.011719 69.621094 17.007812 L 69.800781 16.96875 L 70.886719 16.808594 C 70.929688 16.890625 70.996094 16.914062 71.082031 16.890625 L 73.804688 16.328125 C 73.96875 16.296875 74.421875 16.148438 74.386719 16.105469 C 74.832031 16.039062 75.28125 15.972656 75.726562 15.910156 C 76.441406 15.8125 77.160156 15.71875 77.882812 15.621094 C 78.070312 15.597656 77.992188 15.449219 77.839844 15.445312 Z M 66.171875 14.792969 C 65.792969 14.695312 65.394531 14.710938 65.011719 14.621094 C 64.625 14.507812 64.269531 14.328125 63.945312 14.082031 C 63.328125 13.65625 62.679688 13.28125 62.0625 12.859375 C 61.496094 12.472656 60.960938 12.007812 60.625 11.402344 C 60.542969 11.265625 60.480469 11.121094 60.425781 10.972656 C 60.390625 10.867188 60.25 10.546875 60.324219 10.445312 C 60.402344 10.34375 60.761719 10.488281 60.859375 10.511719 C 61.050781 10.5625 61.238281 10.609375 61.425781 10.671875 C 62.136719 10.90625 62.8125 11.21875 63.453125 11.609375 C 64.734375 12.375 65.859375 13.382812 66.914062 14.4375 L 67.304688 14.828125 C 66.730469 14.449219 66.125 14.121094 65.492188 13.851562 C 64.957031 13.625 64.394531 13.453125 63.878906 13.1875 C 63.402344 12.929688 62.96875 12.613281 62.582031 12.230469 C 62.15625 11.804688 61.765625 11.347656 61.417969 10.859375 C 61.367188 10.789062 61.171875 10.835938 61.238281 10.929688 C 61.851562 11.769531 62.550781 12.574219 63.449219 13.121094 C 63.925781 13.390625 64.417969 13.609375 64.933594 13.789062 C 65.488281 14 66.019531 14.25 66.53125 14.542969 C 67.027344 14.824219 67.496094 15.144531 67.941406 15.5 C 67.335938 15.316406 66.789062 14.953125 66.167969 14.796875 Z M 60.96875 15.835938 C 60.742188 15.792969 60.515625 15.777344 60.289062 15.78125 C 59.988281 15.773438 59.6875 15.757812 59.386719 15.730469 C 58.828125 15.683594 58.277344 15.609375 57.726562 15.519531 C 56.644531 15.339844 55.558594 15.113281 54.488281 14.863281 C 53.964844 14.75 53.460938 14.574219 52.976562 14.339844 C 52.503906 14.089844 52.066406 13.789062 51.664062 13.4375 C 50.785156 12.699219 49.964844 11.890625 49.128906 11.109375 C 50.015625 11.332031 50.851562 11.707031 51.742188 11.910156 C 52.246094 12.007812 52.742188 12.128906 53.234375 12.28125 C 53.714844 12.449219 54.175781 12.671875 54.636719 12.890625 C 55.527344 13.296875 56.425781 13.695312 57.332031 14.050781 C 58.203125 14.390625 59.125 14.644531 59.9375 15.113281 C 59.394531 14.957031 58.839844 14.859375 58.273438 14.820312 C 57.328125 14.734375 56.359375 14.730469 55.445312 14.453125 C 54.53125 14.179688 53.863281 13.582031 53.125 13.027344 C 52.289062 12.402344 51.347656 12.042969 50.363281 11.714844 C 50.285156 11.691406 50.132812 11.769531 50.257812 11.8125 C 51.171875 12.117188 52.0625 12.441406 52.847656 13.011719 C 53.535156 13.519531 54.167969 14.105469 54.972656 14.429688 C 56.699219 15.113281 58.671875 14.636719 60.371094 15.417969 C 60.414062 15.4375 60.457031 15.457031 60.496094 15.480469 C 60.660156 15.597656 60.820312 15.714844 60.980469 15.839844 Z M 42.949219 8.851562 C 43.394531 9.132812 43.714844 9.523438 43.902344 10.019531 C 44.085938 10.507812 44.027344 11.050781 44.304688 11.507812 C 44.785156 12.296875 45.761719 12.617188 46.457031 13.171875 C 46.921875 13.542969 47.308594 13.980469 47.621094 14.484375 L 45.46875 13.921875 C 45.09375 13.820312 44.695312 13.746094 44.351562 13.554688 C 44.054688 13.382812 43.820312 13.148438 43.648438 12.855469 C 43.296875 12.285156 43.132812 11.605469 42.96875 10.964844 C 42.792969 10.257812 42.648438 9.542969 42.484375 8.839844 C 42.34375 8.203125 42.171875 7.574219 41.972656 6.953125 C 42.570312 7.671875 43.199219 8.371094 43.953125 8.933594 C 44.804688 9.570312 45.886719 9.945312 46.582031 10.78125 C 46.945312 11.222656 47.152344 11.765625 47.335938 12.300781 C 47.539062 12.839844 47.675781 13.390625 47.738281 13.960938 C 47.75 14.097656 47.761719 14.238281 47.773438 14.371094 C 47.53125 13.980469 47.242188 13.628906 46.90625 13.316406 C 46.519531 12.980469 46.101562 12.683594 45.652344 12.429688 C 45.253906 12.183594 44.835938 11.929688 44.5625 11.539062 C 44.234375 11.078125 44.300781 10.503906 44.109375 9.992188 C 43.910156 9.464844 43.570312 9.046875 43.09375 8.746094 C 43.015625 8.695312 42.839844 8.777344 42.949219 8.851562 Z M 40.9375 14.867188 C 40.542969 14.566406 40.125 14.304688 39.683594 14.078125 C 39.628906 14.046875 39.433594 14.089844 39.539062 14.152344 L 40.726562 14.890625 C 40.917969 15.039062 41.105469 15.191406 41.28125 15.351562 C 39.558594 15.042969 37.824219 14.289062 36.785156 12.886719 C 36.820312 12.878906 36.847656 12.859375 36.828125 12.835938 C 36.257812 12.082031 35.945312 11.238281 35.894531 10.296875 C 35.890625 10.222656 35.6875 10.222656 35.6875 10.296875 C 35.691406 10.96875 35.84375 11.605469 36.152344 12.203125 C 35.429688 11.570312 34.671875 10.976562 34 10.289062 C 33.554688 9.84375 33.179688 9.347656 32.875 8.800781 C 32.527344 8.136719 32.378906 7.425781 32.238281 6.703125 C 32.152344 6.242188 32.066406 5.78125 31.980469 5.324219 C 32.210938 5.699219 32.464844 6.054688 32.742188 6.398438 C 33.0625 6.804688 33.363281 7.222656 33.644531 7.660156 C 33.925781 8.148438 34.242188 8.613281 34.59375 9.050781 C 35.003906 9.496094 35.457031 9.886719 35.953125 10.230469 C 36.457031 10.605469 36.957031 10.992188 37.449219 11.382812 C 38.4375 12.164062 39.402344 12.96875 40.347656 13.796875 C 41.191406 14.53125 42.023438 15.277344 42.847656 16.03125 C 42.207031 15.660156 41.570312 15.265625 40.9375 14.863281 Z M 36.738281 16.066406 L 36.816406 16.089844 L 36.644531 16.078125 C 36.671875 16.085938 36.707031 16.078125 36.738281 16.066406 Z M 28.183594 16.757812 C 27.769531 16.777344 27.359375 16.761719 26.945312 16.71875 C 25.453125 16.59375 23.976562 16.792969 22.492188 16.933594 C 21.695312 17.023438 20.894531 17.054688 20.089844 17.027344 C 20.78125 16.671875 21.59375 16.601562 22.3125 16.328125 C 23.058594 16.039062 23.757812 15.644531 24.5 15.347656 C 24.875 15.1875 25.257812 15.074219 25.65625 14.996094 C 26.066406 14.925781 26.484375 14.933594 26.890625 14.835938 C 27.710938 14.640625 28.4375 14.164062 29.285156 14.070312 C 30.234375 13.964844 31.976562 14.382812 32.753906 15.011719 C 32.410156 15.082031 32.082031 15.195312 31.773438 15.359375 C 31.636719 15.429688 31.507812 15.507812 31.378906 15.59375 C 31.351562 15.578125 31.320312 15.570312 31.285156 15.570312 C 30.136719 15.542969 28.988281 15.585938 27.84375 15.699219 C 27.273438 15.757812 26.710938 15.855469 26.144531 15.914062 C 25.832031 15.941406 25.527344 15.925781 25.222656 15.875 C 24.988281 15.835938 24.761719 15.847656 24.53125 15.90625 C 24.242188 16 23.957031 16.113281 23.679688 16.242188 L 22.691406 16.660156 C 22.644531 16.679688 22.664062 16.714844 22.691406 16.738281 C 22.738281 16.761719 22.785156 16.757812 22.835938 16.738281 C 23.375 16.511719 23.914062 16.257812 24.464844 16.058594 C 24.746094 15.960938 25.03125 15.941406 25.320312 16 C 25.570312 16.039062 25.820312 16.050781 26.070312 16.03125 C 26.617188 15.984375 27.15625 15.878906 27.699219 15.820312 C 28.238281 15.757812 28.824219 15.714844 29.390625 15.691406 C 29.957031 15.667969 30.550781 15.660156 31.132812 15.667969 C 31.066406 15.761719 30.992188 15.84375 30.902344 15.914062 C 30.820312 15.96875 30.730469 16.023438 30.648438 16.078125 C 30.554688 16.125 30.464844 16.167969 30.367188 16.207031 C 30.035156 16.332031 29.6875 16.433594 29.347656 16.53125 C 28.964844 16.644531 28.578125 16.722656 28.183594 16.761719 Z M 34.820312 17.160156 C 34.359375 17.347656 33.886719 17.507812 33.40625 17.644531 C 32.925781 17.789062 32.449219 17.953125 31.976562 18.132812 C 31.507812 18.316406 31.027344 18.496094 30.542969 18.632812 C 30.078125 18.757812 29.605469 18.851562 29.125 18.914062 C 28.171875 19.046875 27.214844 19.09375 26.261719 19.214844 C 25.75 19.277344 25.246094 19.371094 24.75 19.496094 C 24.265625 19.621094 23.792969 19.808594 23.296875 19.871094 C 24.890625 18.660156 26.523438 17.464844 28.488281 16.933594 C 28.964844 16.804688 29.445312 16.695312 29.910156 16.535156 C 30.101562 16.46875 30.285156 16.394531 30.464844 16.304688 C 30.503906 16.289062 30.539062 16.277344 30.574219 16.261719 C 30.804688 16.171875 31.007812 16.046875 31.1875 15.878906 L 31.238281 15.84375 C 31.644531 15.535156 32.085938 15.300781 32.570312 15.132812 C 32.65625 15.109375 32.742188 15.085938 32.835938 15.0625 C 32.867188 15.089844 33.003906 15.058594 33.085938 15.011719 C 33.394531 14.96875 33.703125 14.960938 34.011719 14.988281 C 34.566406 15.042969 35.09375 15.207031 35.585938 15.472656 C 35.917969 15.648438 36.238281 15.855469 36.582031 16.003906 L 36.125 16.050781 C 35.847656 16.023438 35.566406 15.992188 35.285156 15.984375 C 34.722656 15.964844 34.167969 16.023438 33.621094 16.15625 C 32.484375 16.429688 31.433594 16.96875 30.398438 17.5 C 30.335938 17.535156 30.53125 17.550781 30.5625 17.542969 C 31.546875 17.253906 32.535156 16.992188 33.535156 16.753906 C 33.585938 16.769531 33.640625 16.777344 33.695312 16.769531 C 33.699219 16.765625 33.703125 16.761719 33.710938 16.761719 C 33.78125 16.730469 33.855469 16.699219 33.921875 16.664062 C 34.667969 16.488281 35.417969 16.328125 36.171875 16.183594 C 36.402344 16.1875 36.636719 16.199219 36.863281 16.222656 C 36.148438 16.445312 35.511719 16.871094 34.820312 17.164062 Z M 33.496094 16.582031 C 33.453125 16.605469 33.410156 16.628906 33.367188 16.652344 C 33.328125 16.675781 33.371094 16.683594 33.410156 16.691406 C 32.589844 16.886719 31.769531 17.097656 30.957031 17.328125 C 31.859375 16.867188 32.785156 16.425781 33.777344 16.195312 C 33.976562 16.148438 34.175781 16.113281 34.375 16.089844 C 34.066406 16.210938 33.773438 16.367188 33.496094 16.558594 C 33.484375 16.574219 33.484375 16.582031 33.496094 16.589844 Z M 34.230469 16.464844 C 34.25 16.46875 34.269531 16.46875 34.292969 16.464844 L 34.425781 16.425781 L 34.453125 16.417969 C 34.476562 16.421875 34.5 16.425781 34.523438 16.421875 L 35.261719 16.226562 C 35.269531 16.222656 35.277344 16.21875 35.285156 16.214844 C 35.433594 16.195312 35.589844 16.1875 35.738281 16.179688 C 35.210938 16.285156 34.683594 16.398438 34.15625 16.515625 C 34.179688 16.507812 34.210938 16.492188 34.226562 16.472656 Z M 34.554688 16.214844 Z M 34.699219 16.058594 C 34.988281 16.039062 35.28125 16.039062 35.574219 16.0625 L 35.722656 16.074219 L 35.53125 16.09375 C 35.503906 16.085938 35.480469 16.082031 35.453125 16.082031 L 35.269531 16.101562 C 35.222656 16.074219 35.171875 16.066406 35.121094 16.070312 L 34.984375 16.09375 C 34.957031 16.082031 34.929688 16.074219 34.898438 16.074219 C 34.839844 16.074219 34.78125 16.078125 34.722656 16.082031 C 34.710938 16.078125 34.695312 16.074219 34.683594 16.074219 C 34.695312 16.074219 34.699219 16.066406 34.695312 16.0625 Z M 46.933594 17.363281 L 47.582031 17.398438 C 47.570312 17.417969 47.570312 17.4375 47.582031 17.457031 C 47.363281 17.429688 47.144531 17.402344 46.929688 17.367188 Z M 47.996094 17.507812 L 48.507812 17.5 C 48.5 17.519531 48.5 17.535156 48.507812 17.550781 C 48.335938 17.542969 48.164062 17.53125 47.992188 17.515625 Z M 46.949219 18.351562 C 46.589844 18.425781 46.242188 18.511719 45.902344 18.605469 C 45.21875 18.796875 44.550781 19.027344 43.894531 19.304688 C 42.761719 19.789062 41.546875 20.355469 40.769531 21.339844 C 40.292969 21.9375 39.832031 22.519531 39.242188 23.007812 C 39.222656 23.023438 39.394531 23.0625 39.441406 23.023438 C 39.933594 22.609375 40.375 22.140625 40.761719 21.625 C 40.949219 21.367188 41.15625 21.125 41.378906 20.898438 C 41.617188 20.675781 41.875 20.484375 42.152344 20.320312 C 43.207031 19.679688 44.324219 19.175781 45.503906 18.8125 C 46.054688 18.636719 46.613281 18.496094 47.179688 18.382812 C 46.9375 18.546875 46.722656 18.738281 46.53125 18.960938 C 46.222656 19.3125 45.855469 19.585938 45.425781 19.777344 C 45.007812 19.953125 44.5625 20.070312 44.136719 20.226562 C 43.726562 20.378906 43.335938 20.570312 42.964844 20.804688 C 42.207031 21.285156 41.535156 21.894531 40.871094 22.492188 C 40.171875 23.148438 39.410156 23.71875 38.589844 24.210938 C 37.867188 24.628906 37.105469 24.972656 36.367188 25.355469 C 36.984375 24.902344 37.558594 24.398438 38.085938 23.84375 C 38.445312 23.457031 38.75 23.03125 39.003906 22.566406 C 39.265625 22.066406 39.457031 21.542969 39.769531 21.070312 C 40.402344 20.125 41.480469 19.542969 42.519531 19.152344 C 43.046875 18.953125 43.566406 18.734375 44.09375 18.53125 C 44.65625 18.320312 45.238281 18.21875 45.839844 18.230469 C 46.445312 18.230469 47.042969 18.230469 47.644531 18.179688 C 47.410156 18.242188 47.179688 18.304688 46.945312 18.355469 Z M 49.636719 17.613281 C 49.433594 17.613281 49.230469 17.609375 49.027344 17.597656 L 49.269531 17.585938 C 49.542969 17.574219 49.816406 17.566406 50.089844 17.5625 L 49.804688 17.609375 Z M 50.4375 17.558594 C 50.632812 17.558594 50.832031 17.558594 51.027344 17.558594 L 51.179688 17.570312 C 50.875 17.582031 50.574219 17.59375 50.273438 17.601562 Z M 54.273438 17.585938 C 54.269531 17.578125 54.265625 17.570312 54.261719 17.566406 L 54.757812 17.589844 C 54.777344 17.597656 54.796875 17.601562 54.820312 17.605469 L 54.941406 17.621094 C 54.714844 17.605469 54.492188 17.589844 54.265625 17.585938 Z M 55.027344 20.320312 C 54.714844 20.738281 54.339844 21.097656 53.90625 21.390625 C 53.480469 21.667969 53.03125 21.914062 52.570312 22.128906 C 52.109375 22.351562 51.546875 22.667969 51.035156 22.425781 C 50.980469 22.402344 50.882812 22.421875 50.875 22.492188 C 50.847656 22.785156 50.585938 22.941406 50.335938 23.042969 C 50.054688 23.15625 49.753906 23.222656 49.46875 23.308594 C 48.882812 23.488281 48.300781 23.679688 47.726562 23.886719 C 46.753906 24.238281 45.796875 24.632812 44.859375 25.066406 C 45.511719 24.582031 46.257812 24.226562 46.851562 23.664062 C 47.566406 22.988281 48.078125 22.128906 48.78125 21.441406 C 50.332031 19.914062 52.625 19.867188 54.625 19.414062 C 54.9375 19.34375 55.25 19.257812 55.554688 19.15625 C 55.136719 19.460938 54.6875 19.726562 54.214844 19.945312 C 53.644531 20.210938 53.035156 20.378906 52.445312 20.59375 C 52.167969 20.695312 51.898438 20.8125 51.644531 20.957031 C 51.375 21.125 51.125 21.316406 50.890625 21.535156 C 50.394531 21.960938 49.773438 22.109375 49.175781 22.347656 C 48.511719 22.613281 47.910156 22.980469 47.371094 23.453125 C 47.277344 23.535156 47.445312 23.621094 47.519531 23.558594 C 48.015625 23.121094 48.566406 22.777344 49.171875 22.519531 C 49.734375 22.285156 50.351562 22.152344 50.855469 21.789062 C 51.113281 21.597656 51.332031 21.359375 51.601562 21.179688 C 51.867188 21.007812 52.148438 20.867188 52.449219 20.757812 C 53.035156 20.53125 53.640625 20.375 54.214844 20.117188 C 54.734375 19.882812 55.226562 19.597656 55.683594 19.261719 C 55.488281 19.628906 55.265625 19.980469 55.023438 20.320312 Z M 62.414062 20.601562 C 61.78125 20.910156 61.089844 21.066406 60.414062 21.242188 L 58.234375 21.8125 L 56.332031 22.3125 C 57.679688 21.628906 59.148438 21.195312 60.460938 20.4375 C 60.804688 20.242188 61.128906 20.019531 61.4375 19.773438 C 61.765625 19.503906 62.042969 19.1875 62.367188 18.917969 C 62.734375 18.617188 63.15625 18.460938 63.632812 18.453125 C 64.015625 18.433594 64.402344 18.460938 64.785156 18.449219 C 64.503906 18.527344 64.210938 18.589844 63.921875 18.648438 C 63.449219 18.746094 62.992188 18.902344 62.558594 19.113281 C 61.683594 19.550781 60.960938 20.222656 60.113281 20.714844 C 60.015625 20.773438 60.207031 20.816406 60.261719 20.785156 C 61.105469 20.292969 61.824219 19.625 62.695312 19.175781 C 63.46875 18.78125 64.34375 18.71875 65.152344 18.4375 C 64.328125 19.261719 63.464844 20.089844 62.40625 20.597656 Z M 72.066406 16.1875 C 72.03125 16.179688 71.996094 16.175781 71.964844 16.183594 L 71.480469 16.273438 C 71.457031 16.265625 71.433594 16.265625 71.410156 16.269531 C 71.304688 16.285156 71.195312 16.304688 71.089844 16.328125 C 71.0625 16.285156 71.023438 16.265625 70.972656 16.273438 C 70.734375 16.300781 70.496094 16.304688 70.253906 16.28125 L 72.292969 16.148438 C 72.214844 16.15625 72.136719 16.171875 72.058594 16.1875 Z M 72.675781 16.175781 C 72.652344 16.152344 72.625 16.132812 72.589844 16.125 L 73.359375 16.074219 C 73.125 16.109375 72.890625 16.144531 72.667969 16.175781 Z M 75.269531 15.796875 C 75.238281 15.78125 75.203125 15.777344 75.167969 15.777344 L 72.875 15.929688 C 73.957031 15.808594 75.039062 15.726562 76.128906 15.675781 Z M 75.269531 15.796875 " fill-opacity="1" fill-rule="nonzero"/></g></g></g><g clip-path="url(#47c91cf9c7)"><g clip-path="url(#ad62a38ddb)"><g clip-path="url(#51780f6ff2)"><path fill="#dbbf97" d="M 39.304688 15.742188 C 39.34375 15.59375 39.324219 15.453125 39.246094 15.316406 C 39.167969 15.183594 39.054688 15.097656 38.90625 15.058594 C 38.753906 15.019531 38.613281 15.039062 38.480469 15.117188 C 38.34375 15.195312 38.257812 15.308594 38.21875 15.457031 C 38.179688 15.609375 38.199219 15.75 38.277344 15.882812 C 38.355469 16.015625 38.46875 16.101562 38.621094 16.144531 C 38.769531 16.183594 38.910156 16.164062 39.046875 16.085938 C 39.179688 16.007812 39.265625 15.894531 39.304688 15.742188 Z M 39.304688 15.742188 " fill-opacity="1" fill-rule="nonzero"/></g></g></g><g clip-path="url(#b45170fce5)"><g clip-path="url(#8a7df8c242)"><g clip-path="url(#d4c1a3869e)"><path fill="#dbbf97" d="M 50.234375 15.957031 C 50.382812 16 50.523438 15.980469 50.65625 15.902344 C 50.792969 15.824219 50.878906 15.710938 50.917969 15.558594 C 50.957031 15.410156 50.9375 15.269531 50.859375 15.132812 C 50.78125 15 50.667969 14.914062 50.515625 14.875 C 50.367188 14.835938 50.226562 14.855469 50.089844 14.933594 C 49.957031 15.011719 49.871094 15.125 49.832031 15.273438 C 49.792969 15.425781 49.8125 15.566406 49.890625 15.699219 C 49.96875 15.832031 50.082031 15.917969 50.234375 15.957031 Z M 50.234375 15.957031 " fill-opacity="1" fill-rule="nonzero"/></g></g></g><g clip-path="url(#4c0ebc33b6)"><g clip-path="url(#ab21377431)"><g clip-path="url(#8a77f03e45)"><path fill="#dbbf97" d="M 22.625 14.003906 C 22.550781 13.984375 22.480469 13.992188 22.414062 14.03125 C 22.347656 14.070312 22.304688 14.125 22.285156 14.199219 C 22.265625 14.273438 22.277344 14.34375 22.3125 14.410156 C 22.351562 14.476562 22.410156 14.519531 22.484375 14.539062 C 22.558594 14.558594 22.625 14.546875 22.691406 14.507812 C 22.757812 14.472656 22.800781 14.414062 22.820312 14.339844 C 22.839844 14.265625 22.832031 14.199219 22.792969 14.132812 C 22.753906 14.066406 22.695312 14.023438 22.625 14.003906 Z M 22.625 14.003906 " fill-opacity="1" fill-rule="nonzero"/></g></g></g></svg>