<svg xmlns="http://www.w3.org/2000/svg" xmlns:xlink="http://www.w3.org/1999/xlink" width="100" zoomAndPan="magnify" viewBox="0 0 75 74.999997" height="100" preserveAspectRatio="xMidYMid meet" version="1.0"><defs><clipPath id="82890b62b0"><path d="M 4.628906 14.039062 L 68.378906 14.039062 L 68.378906 59.789062 L 4.628906 59.789062 Z M 4.628906 14.039062 " clip-rule="nonzero"/></clipPath></defs><g clip-path="url(#82890b62b0)"><path fill="#8aaeb7" d="M 11.480469 14.039062 C 7.710938 14.039062 4.65625 17.105469 4.65625 20.902344 C 4.742188 31.308594 4.65625 42.320312 4.65625 52.925781 C 4.65625 56.578125 7.480469 59.535156 11.054688 59.753906 L 61.8125 59.789062 C 65.453125 59.640625 68.355469 56.625 68.355469 52.925781 L 68.355469 19.722656 C 67.800781 16.488281 65.007812 14.039062 61.636719 14.039062 C 44.925781 14.046875 28.195312 14.039062 11.480469 14.039062 Z M 11.375 17.648438 L 61.847656 17.648438 L 37.429688 42.203125 C 36.984375 42.652344 36.273438 42.652344 35.828125 42.203125 Z M 64.941406 19.398438 L 64.941406 52.675781 C 64.941406 54.660156 64.230469 55.777344 62.808594 56.179688 L 45.605469 38.84375 L 64.941406 19.402344 Z M 8.460938 19.542969 L 27.476562 38.664062 L 10.09375 56.144531 C 8.90625 55.738281 8.492188 54.777344 8.460938 53.460938 Z M 29.894531 41.058594 L 35.832031 47.0625 C 36.277344 47.511719 36.984375 47.511719 37.429688 47.0625 L 43.1875 41.273438 L 58.191406 56.359375 L 14.679688 56.359375 Z M 29.894531 41.058594 " fill-opacity="1" fill-rule="nonzero"/></g></svg>